<?xml version="1.0" encoding="utf-8"?>
<svg viewBox="0 0 500 500" width="500" height="500" xmlns="http://www.w3.org/2000/svg">
  <path d="M 0 0 L 500 0 L 500 500 L 0 500 Z M 45 96.31 L 45 151.292 C 45 169.633 59.869 184.502 78.21 184.502 L 105.08 184.502 L 169.541 223.244 L 170.267 181.901 C 182.198 176.865 190.572 165.056 190.572 151.292 L 190.572 96.31 C 190.572 77.969 175.703 63.1 157.362 63.1 L 78.21 63.1 C 59.869 63.1 45 77.969 45 96.31 Z M 292.227 133.208 C 251.367 133.21 218.247 165.717 218.249 205.814 C 218.252 245.911 251.377 278.414 292.236 278.411 C 333.095 278.409 366.216 245.902 366.213 205.805 C 366.211 165.708 333.086 133.205 292.227 133.208 Z M 295.005 300.007 C 212.163 300.004 145.006 332.582 145.004 372.772 C 145.004 374.07 145.074 375.361 145.212 376.642 C 145.073 377.458 145 378.296 145 379.151 L 145 440.037 C 145 448.189 151.608 454.797 159.76 454.797 L 430.24 454.797 C 438.392 454.797 445 448.189 445 440.037 L 445 379.151 C 445 378.302 444.928 377.47 444.791 376.66 C 444.93 375.377 445 374.085 445 372.785 C 445.002 332.594 377.847 300.011 295.005 300.007 Z" style="fill: rgb(68, 68, 68);" transform="matrix(1, 0, 0, 1, 0, 7.105427357601002e-15)"/>
</svg>