<?xml version="1.0" encoding="utf-8"?>
<svg viewBox="-8.649999618530273 71.75199890136719 517.2979736328125 260.31201171875" width="517.2979736328125" height="260.31201171875" xmlns="http://www.w3.org/2000/svg">
  <defs>
    <linearGradient id="gradient-0" gradientUnits="userSpaceOnUse" x1="249.997" y1="80.399" x2="249.997" y2="326.076" gradientTransform="matrix(0.99919, 0.040212, -0.022645, 0.441433, -1.403406, 163.562658)">
      <stop offset="0" style="stop-color: rgba(255, 255, 255, 1)"/>
      <stop offset="1" style="stop-color: rgba(204, 204, 204, 1)"/>
    </linearGradient>
  </defs>
  <path d="M 50 298.671 C 22.383 298.67 -0.003 276.284 -0.001 248.671 C 0.001 223.232 19.003 202.233 43.589 199.085 C 43.546 198.233 43.524 197.375 43.524 196.512 C 43.526 168.9 65.915 146.517 93.532 146.519 C 95.731 146.519 97.897 146.661 100.022 146.937 C 100.937 120.127 122.964 98.676 149.999 98.677 C 161.886 98.678 172.805 102.826 181.386 109.754 C 188.942 91.731 206.755 79.072 227.524 79.073 C 249.609 79.075 268.349 93.391 274.97 113.248 C 284.013 104.242 296.486 98.676 310.258 98.677 C 328.874 98.678 345.113 108.85 353.721 123.938 C 361.803 118.33 371.618 115.043 382.201 115.044 C 400.515 115.045 416.53 124.891 425.239 139.577 C 432.539 135.41 440.991 133.029 449.999 133.029 C 477.615 133.031 500.002 155.417 500 183.03 C 499.999 203.697 487.457 221.433 469.568 229.048 C 472.143 235.075 473.569 241.71 473.568 248.678 C 473.566 276.29 451.177 298.673 423.561 298.671 C 415.938 298.671 408.714 296.965 402.249 293.915 C 393.139 303.493 380.27 309.463 366.007 309.462 C 354.951 309.461 344.734 305.873 336.455 299.799 C 327.802 314.718 311.655 324.751 293.165 324.75 C 280.818 324.749 269.517 320.274 260.794 312.858 C 252.07 320.276 240.766 324.751 228.417 324.75 C 217.76 324.749 207.882 321.415 199.769 315.734 C 194.655 317.498 189.166 318.455 183.453 318.455 C 170.397 318.454 158.51 313.45 149.605 305.256 C 141.576 310.748 131.864 313.96 121.402 313.959 C 103.215 313.958 87.296 304.248 78.547 289.731 C 70.452 295.367 60.612 298.672 50 298.671 Z" style="fill: url(#gradient-0); stroke: rgb(68, 68, 68); stroke-width: 6; stroke-linecap: round; stroke-linejoin: round;" transform="matrix(1, 0, 0, 1, 7.105427357601002e-15, 0)"/>
</svg>