<?xml version="1.0" encoding="utf-8"?>
<svg viewBox="-9.253999710083008 70.00900268554688 489.7309875488281 279.3429870605469" width="489.7309875488281" height="279.3429870605469" xmlns="http://www.w3.org/2000/svg">
  <defs>
    <linearGradient id="gradient-0" gradientUnits="userSpaceOnUse" x1="235.612" y1="76.621" x2="235.612" y2="344.062" gradientTransform="matrix(0.999451, -0.033128, 0.03064, 0.594932, -15.223038, 110.616876)">
      <stop offset="0" style="stop-color: rgba(255, 255, 255, 1)"/>
      <stop offset="1" style="stop-color: rgb(189, 188, 188);"/>
    </linearGradient>
  </defs>
  <path d="M 0.003 211.328 C 0.005 183.715 22.394 161.332 50.011 161.334 C 56.94 161.334 63.54 162.744 69.54 165.292 C 71.382 139.355 93.011 118.886 119.42 118.888 C 119.496 118.888 119.571 118.888 119.647 118.889 C 123.364 94.945 144.072 76.619 169.061 76.621 C 184.674 76.622 198.616 83.778 207.785 94.989 C 217.744 90.737 229.305 88.304 241.636 88.305 C 254.626 88.306 266.762 91.007 277.07 95.691 C 285.898 87.855 297.521 83.096 310.255 83.097 C 333.895 83.098 353.701 99.5 358.915 121.543 C 360.455 121.453 362.01 121.408 363.579 121.408 C 398.693 121.41 427.157 144.279 427.155 172.487 C 427.155 174.596 426.996 176.675 426.686 178.717 C 451.731 181.442 471.222 202.656 471.22 228.421 C 471.218 256.034 448.829 278.417 421.212 278.415 C 416.183 278.415 411.328 277.672 406.75 276.291 C 399.49 288.008 387.524 296.503 373.491 299.137 C 370.948 324.369 349.643 344.064 323.738 344.062 C 304.208 344.061 287.294 332.865 279.063 316.542 C 269.192 323.624 256.561 327.875 242.794 327.874 C 230.35 327.873 218.835 324.399 209.448 318.5 C 207.412 318.752 205.338 318.882 203.234 318.882 C 189.988 318.881 177.945 313.731 168.999 305.324 C 159.831 315.837 146.337 322.48 131.292 322.479 C 119.117 322.478 107.96 318.127 99.288 310.896 C 93.895 312 88.226 312.588 82.378 312.588 C 46.318 312.586 17.088 290.2 17.09 262.587 C 17.09 258.438 17.75 254.407 18.994 250.553 C 7.425 241.395 0.002 227.228 0.003 211.328 Z" style="fill: url(#gradient-0); stroke-width: 5; stroke: rgb(68, 68, 68); stroke-linejoin: round; stroke-linecap: round;" transform="matrix(1.0000000298023222, 0, 0, 1.0000000298023222, 7.105427357601002e-15, 0)"/>
</svg>