<?xml version="1.0" encoding="utf-8"?>
<svg viewBox="-6.5229997634887695 83.7979965209961 514.7109985351562 269.4209899902344" width="514.7109985351562" height="269.4209899902344" xmlns="http://www.w3.org/2000/svg">
  <defs>
    <linearGradient id="gradient-1" gradientUnits="userSpaceOnUse" x1="250" y1="89.392" x2="250" y2="348.558" gradientTransform="matrix(0.999948, 0.010134, -0.004191, 0.47969, -1.323091, 154.585962)">
      <stop offset="0" style="stop-color: rgb(240, 240, 240);"/>
      <stop offset="1" style="stop-color: rgb(158, 158, 158);"/>
    </linearGradient>
  </defs>
  <path d="M 57.91 195.14 C 57.912 167.528 80.301 145.145 107.917 145.147 C 118.579 145.148 128.461 148.485 136.576 154.171 C 145.584 141.011 160.721 132.377 177.874 132.378 C 188.415 132.378 198.195 135.64 206.258 141.21 C 214.794 125.857 231.182 115.47 249.996 115.471 C 258.046 115.472 265.652 117.374 272.389 120.754 C 281.472 108.183 296.257 100.002 312.953 100.003 C 323.346 100.004 332.998 103.175 340.995 108.601 C 350.148 96.907 364.396 89.391 380.399 89.392 C 407.666 89.393 429.833 111.215 430.389 138.344 C 436.41 135.776 443.037 134.355 449.996 134.355 C 477.612 134.357 499.999 156.743 499.997 184.356 C 499.996 201.845 491.014 217.235 477.412 226.169 C 491.016 235.105 499.998 250.499 499.997 267.989 C 499.995 295.602 477.606 317.985 449.989 317.983 C 436.741 317.982 424.696 312.83 415.749 304.42 C 408.92 307.917 401.182 309.89 392.982 309.889 C 386.61 309.889 380.517 308.696 374.913 306.523 C 371.099 330.353 350.444 348.56 325.536 348.558 C 305.941 348.557 288.979 337.286 280.78 320.875 C 272.291 327.515 261.602 331.473 249.989 331.472 C 233.843 331.471 219.485 323.818 210.344 311.943 C 202.578 316.906 193.35 319.782 183.45 319.781 C 173.293 319.78 163.844 316.752 155.956 311.55 C 146.829 323.651 132.33 331.473 116.004 331.472 C 93.639 331.47 74.705 316.789 68.313 296.541 C 62.643 298.772 56.467 299.997 50.004 299.997 C 22.388 299.995 0.002 277.61 0.003 249.997 C 0.005 222.384 22.394 200.001 50.011 200.003 C 52.804 200.003 55.544 200.232 58.212 200.673 C 58.012 198.856 57.91 197.01 57.91 195.14 Z" transform="matrix(1.0000000298023222, 0, 0, 1.0000000298023222, 3.552713678800501e-15, -2.220446049250313e-16)" style="fill: url(#gradient-1); stroke-width: 5; stroke: rgb(68, 68, 68); stroke-linecap: round; stroke-linejoin: round;"/>
</svg>