<?xml version="1.0" encoding="utf-8"?>
<svg viewBox="-7.120999813079834 81.75700378417969 497.46099853515625 263.15301513671875" width="497.46099853515625" height="263.15301513671875" xmlns="http://www.w3.org/2000/svg">
  <defs>
    <linearGradient id="gradient-0" gradientUnits="userSpaceOnUse" x1="241.906" y1="88.305" x2="241.906" y2="339.567" gradientTransform="matrix(0.999835, 0.018184, -0.010809, 0.611343, 0.999065, 88.009084)">
      <stop offset="0" style="stop-color: rgba(255, 255, 255, 1)"/>
      <stop offset="1" style="stop-color: rgb(196, 196, 196);"/>
    </linearGradient>
  </defs>
  <path d="M 50.004 261.328 C 22.388 261.326 0.002 238.94 0.003 211.328 C 0.005 183.715 22.394 161.332 50.011 161.334 C 50.373 161.334 50.733 161.338 51.093 161.346 C 54.729 137.309 75.481 118.886 100.535 118.888 C 106.38 118.888 111.991 119.891 117.205 121.734 C 124.045 102.267 142.592 88.31 164.399 88.312 C 176.949 88.313 188.419 92.937 197.199 100.573 C 209.092 92.93 224.632 88.304 241.636 88.305 C 267.623 88.306 290.19 99.117 301.542 114.979 C 305.207 114.124 309.027 113.672 312.953 113.672 C 328.962 113.673 343.214 121.196 352.366 132.899 C 364.028 121.593 381.642 114.391 401.349 114.393 C 436.463 114.395 464.926 137.264 464.924 165.472 C 464.923 174.234 462.176 182.481 457.337 189.687 C 473.092 198.103 483.811 214.709 483.81 233.817 C 483.808 261.429 461.419 283.812 433.802 283.81 C 432.114 283.81 430.446 283.726 428.801 283.563 C 424.813 307.186 404.254 325.179 379.493 325.177 C 368.024 325.176 357.456 321.314 349.021 314.821 C 340.034 328.123 324.814 336.869 307.551 336.868 C 300.189 336.867 293.199 335.276 286.906 332.42 C 277.076 336.958 265.556 339.568 253.241 339.567 C 230.456 339.565 210.397 330.626 198.717 317.078 C 198.422 317.082 198.127 317.084 197.831 317.084 C 179.763 317.083 163.652 309.759 153.171 298.322 C 149.059 299.415 144.74 299.997 140.284 299.997 C 122.564 299.996 106.998 290.779 98.117 276.879 C 85.469 274.846 74.406 268.071 66.814 258.434 C 61.56 260.308 55.901 261.328 50.004 261.328 Z" style="fill: url(#gradient-0); stroke-width: 5; stroke: rgb(68, 68, 68); stroke-linecap: round; stroke-linejoin: round;" transform="matrix(1.0000000298023224, 0, 0, 1.0000000298023224, 7.105427357601002e-15, 0)"/>
</svg>