<?xml version="1.0" encoding="utf-8"?>
<svg viewBox="-8.130999565124512 65.14900207519531 496.1260070800781 290.9169921875" width="496.1260070800781" height="290.9169921875" xmlns="http://www.w3.org/2000/svg">
  <defs>
    <linearGradient id="gradient-0" gradientUnits="userSpaceOnUse" x1="240.557" y1="71.406" x2="240.557" y2="348.558" gradientTransform="matrix(0.999735, -0.023017, 0.011071, 0.482417, -7.392166, 137.386444)">
      <stop offset="0" style="stop-color: rgba(255, 255, 255, 1)"/>
      <stop offset="1" style="stop-color: rgb(198, 198, 198);"/>
    </linearGradient>
  </defs>
  <path d="M 47.118 177.155 C 47.12 149.542 69.509 127.159 97.126 127.161 C 110.042 127.162 121.814 132.059 130.687 140.098 C 139.739 127.267 154.68 118.887 171.579 118.888 C 174.219 118.888 176.812 119.093 179.341 119.487 C 180.348 92.761 202.337 71.404 229.312 71.406 C 246.478 71.407 261.624 80.057 270.627 93.235 C 277.619 89.519 285.598 87.413 294.068 87.414 C 304.713 87.414 314.581 90.741 322.689 96.411 C 331.335 81.462 347.498 71.405 366.011 71.406 C 393.536 71.408 415.866 93.647 416.01 121.134 C 417.722 120.957 419.46 120.866 421.219 120.866 C 448.836 120.868 471.222 143.254 471.22 170.867 C 471.219 184.912 465.426 197.604 456.099 206.685 C 471.052 215.329 481.113 231.492 481.112 250.004 C 481.11 277.616 458.721 299.999 431.104 299.997 C 418.244 299.997 406.517 295.142 397.658 287.165 C 391.483 292.724 383.916 296.767 375.543 298.707 C 375.465 326.254 353.106 348.56 325.536 348.558 C 304.899 348.557 287.182 336.055 279.546 318.213 C 271.266 324.288 261.047 327.876 249.989 327.875 C 229.822 327.874 212.443 315.935 204.537 298.74 C 200.938 299.563 197.191 299.997 193.342 299.997 C 183.581 299.997 174.474 297.2 166.777 292.365 C 159.301 310.564 141.397 323.38 120.5 323.378 C 100.036 323.377 82.444 311.085 74.706 293.483 C 67.419 297.629 58.988 299.998 50.004 299.997 C 22.388 299.995 0.002 277.61 0.003 249.997 C 0.005 222.384 22.394 200.001 50.011 200.003 C 50.902 200.003 51.788 200.026 52.667 200.073 C 49.12 193.207 47.117 185.415 47.118 177.155 Z" style="fill: url(#gradient-0); stroke-width: 5; stroke: rgb(68, 68, 68); stroke-linecap: round; stroke-linejoin: round;" transform="matrix(1.0000000298023224, 0, 0, 1.0000000298023224, 0, 0)"/>
</svg>