<?xml version="1.0" encoding="utf-8"?>
<svg viewBox="83.12799835205078 139.4709930419922 351.90899658203125 270.62799072265625" width="351.90899658203125" height="270.62799072265625" xmlns="http://www.w3.org/2000/svg">
  <path d="M 435.037 139.471 L 435.037 410.099 L 83.128 410.099 L 83.128 139.471 Z M 429.861 215.39 L 410.542 210.214 L 375.691 340.28 L 241.687 340.28 L 241.687 360.28 L 391.687 360.28 L 391.687 357.857 Z M 149.998 143.41 C 122.385 143.411 100.001 165.798 100.002 193.412 C 100.003 221.026 122.388 243.411 150.001 243.41 C 177.614 243.409 199.999 221.023 199.998 193.409 C 199.997 165.795 177.611 143.409 149.998 143.41 Z M 149.572 264.901 C 116.1 264.902 88.774 291.591 87.15 325.132 C 87.097 325.676 87.069 326.228 87.069 326.787 L 87.069 383.374 C 87.069 392.556 94.513 400 103.695 400 L 195.443 400 C 204.625 400 212.069 392.556 212.069 383.374 L 212.069 329.103 C 212.072 328.833 212.074 328.562 212.074 328.291 C 212.074 328.021 212.072 327.752 212.069 327.483 L 212.069 326.787 C 212.069 326.304 212.048 325.825 212.008 325.352 C 210.493 291.706 183.119 264.9 149.572 264.901 Z" style="fill: rgb(68, 68, 68);" transform="matrix(1, 0, 0, 1, 0, 1.4210854715202004e-14)"/>
</svg>