<?xml version="1.0" encoding="utf-8"?>
<svg viewBox="2.4769999980926514 0.5210000276565552 500.031005859375 499.9989929199219" width="500.031005859375" height="499.9989929199219" xmlns="http://www.w3.org/2000/svg">
  <ellipse transform="matrix(-1.0000000298023224, -0.000058000014087651286, 0.00005700001371931321, -1.0000000298023224, 444.7534312234347, 482.2995138853639)" cx="192.274" cy="231.768" rx="250.001" ry="249.985" style="fill: rgba(216, 216, 216, 0);"/>
  <path d="M 386.276 354.517 L 390.29 354.517 L 390.29 350.502 L 398.175 350.502 C 394.485 355.809 390.511 360.905 386.276 365.766 Z M 334.074 394.672 L 334.074 390.657 L 330.06 390.657 L 330.06 382.627 L 334.074 382.627 L 334.074 378.61 L 330.06 378.61 L 330.06 362.548 L 326.043 362.548 L 326.043 354.517 L 322.027 354.517 L 322.027 314.364 L 318.014 314.364 L 318.014 298.301 L 313.996 298.301 L 313.996 278.224 L 293.919 278.224 L 293.919 282.239 L 289.904 282.239 L 289.904 278.224 L 285.888 278.224 L 285.888 282.239 L 277.858 282.239 L 277.858 278.224 L 273.843 278.224 L 273.843 274.209 L 269.827 274.209 L 269.827 270.192 L 265.812 270.192 L 265.812 266.179 L 261.796 266.179 L 261.796 258.147 L 257.782 258.147 L 257.782 242.086 L 261.796 242.086 L 261.796 238.07 L 257.782 238.07 L 257.782 230.039 L 261.796 230.039 L 261.796 222.008 L 265.812 222.008 L 265.812 213.978 L 269.827 213.978 L 269.827 209.961 L 273.843 209.961 L 273.843 205.947 L 277.858 205.947 L 277.858 201.93 L 281.874 201.93 L 281.874 197.917 L 285.888 197.917 L 285.888 193.901 L 281.874 193.901 L 281.874 189.884 L 277.858 189.884 L 277.858 173.824 L 281.874 173.824 L 281.874 169.809 L 289.904 169.809 L 289.904 165.79 L 285.888 165.79 L 285.888 157.761 L 297.934 157.761 L 297.934 153.745 L 289.904 153.745 L 289.904 149.731 L 285.888 149.731 L 285.888 153.745 L 277.858 153.745 L 277.858 141.698 L 285.888 141.698 L 285.888 145.714 L 289.904 145.714 L 289.904 137.684 L 285.888 137.684 L 285.888 129.653 L 293.919 129.653 L 293.919 137.684 L 297.934 137.684 L 297.934 145.714 L 309.981 145.714 L 309.981 137.684 L 313.996 137.684 L 313.996 133.669 L 309.98 133.669 L 309.98 137.684 L 305.965 137.684 L 305.965 133.669 L 301.95 133.669 L 301.95 125.638 L 305.965 125.638 L 305.965 121.622 L 309.98 121.622 L 309.98 117.609 L 313.996 117.609 L 313.996 109.577 L 318.013 109.577 L 318.013 105.561 L 330.058 105.561 L 330.058 101.544 L 342.105 101.544 L 342.105 105.561 L 355.26 105.561 C 356.236 106.255 357.205 106.959 358.166 107.672 L 358.166 109.577 L 360.687 109.577 C 361.187 109.963 361.685 110.35 362.182 110.741 L 362.182 113.592 L 358.166 113.592 L 358.166 117.609 L 354.15 117.609 L 354.15 121.622 L 358.166 121.622 L 358.166 117.609 L 362.182 117.609 L 362.182 113.592 L 365.71 113.592 C 367.233 114.855 368.734 116.143 370.213 117.455 L 370.213 117.609 L 370.387 117.609 C 371.684 118.763 372.964 119.936 374.228 121.128 L 374.228 121.622 L 374.75 121.622 C 385.257 131.616 394.535 142.889 402.336 155.191 L 402.336 155.191 C 406.866 162.335 410.897 169.826 414.382 177.617 L 414.382 177.839 L 414.482 177.839 C 421.724 194.092 426.586 211.64 428.624 230.039 L 426.429 230.039 L 426.429 226.023 L 418.397 226.023 L 418.397 222.008 L 414.382 222.008 L 414.382 226.023 L 418.397 226.023 L 418.397 242.086 L 414.382 242.086 L 414.382 246.101 L 410.369 246.101 L 410.369 222.008 L 414.381 222.008 L 414.381 217.992 L 402.336 217.992 L 402.336 213.978 L 398.321 213.978 L 398.321 217.992 L 402.336 217.992 L 402.336 222.008 L 406.351 222.008 L 406.351 226.023 L 410.368 226.023 L 410.368 246.101 L 406.351 246.101 L 406.351 250.117 L 402.336 250.117 L 402.336 254.132 L 398.321 254.132 L 398.321 258.147 L 394.305 258.147 L 394.305 262.163 L 402.336 262.163 L 402.336 274.209 L 398.321 274.209 L 398.321 286.255 L 394.305 286.255 L 394.305 290.27 L 390.29 290.27 L 390.29 294.284 L 386.276 294.284 L 386.276 306.333 L 382.26 306.333 L 382.26 350.502 L 378.242 350.502 L 378.242 358.532 L 374.228 358.532 L 374.228 378.302 C 367.942 384.232 361.221 389.706 354.12 394.672 Z M 330.058 121.622 L 326.043 121.622 L 326.043 137.684 L 313.996 137.684 L 313.996 141.698 L 318.014 141.698 L 318.014 145.714 L 326.043 145.714 L 326.043 141.698 L 330.06 141.698 L 330.06 137.684 L 334.074 137.684 L 334.074 121.622 L 334.073 121.622 L 334.073 117.609 L 330.058 117.609 Z M 378.242 238.07 L 378.242 230.039 L 374.228 230.039 L 374.228 222.008 L 370.213 222.008 L 370.213 217.992 L 366.196 217.992 L 366.196 226.023 L 370.213 226.023 L 370.213 234.054 L 374.228 234.054 L 374.228 242.086 L 378.242 242.086 L 378.242 250.117 L 382.26 250.117 L 382.26 262.163 L 390.29 262.163 L 390.29 258.147 L 386.276 258.147 L 386.276 246.101 L 382.26 246.101 L 382.26 238.07 Z M 346.12 185.87 L 346.12 181.854 L 342.105 181.854 L 342.105 189.884 L 334.074 189.884 L 334.074 181.854 L 330.06 181.854 L 330.06 185.87 L 322.027 185.87 L 322.027 177.839 L 318.014 177.839 L 318.014 173.824 L 301.95 173.824 L 301.95 177.839 L 297.934 177.839 L 297.934 181.854 L 293.919 181.854 L 293.919 189.884 L 289.904 189.884 L 289.904 193.901 L 297.934 193.901 L 297.934 189.884 L 318.014 189.884 L 318.014 193.901 L 322.027 193.901 L 322.027 197.917 L 326.043 197.917 L 326.043 201.93 L 334.074 201.93 L 334.074 197.917 L 342.105 197.917 L 342.105 201.93 L 362.182 201.93 L 362.182 193.901 L 350.136 193.901 L 350.136 185.87 Z M 269.827 125.638 L 261.796 125.638 L 261.796 113.592 L 273.843 113.592 L 273.843 121.622 L 269.827 121.622 Z M 225.657 129.653 L 217.627 129.653 L 217.627 121.622 L 213.613 121.622 L 213.613 109.577 L 217.627 109.577 L 217.627 101.544 L 213.613 101.544 L 213.613 97.529 L 205.58 97.529 L 205.58 93.515 L 201.565 93.515 L 201.565 89.5 L 205.58 89.5 L 205.58 85.482 L 217.627 85.482 L 217.627 81.467 L 233.688 81.467 L 233.688 77.453 L 261.796 77.453 L 261.796 81.467 L 269.827 81.467 L 269.827 93.515 L 265.812 93.515 L 265.812 101.544 L 261.796 101.544 L 261.796 105.561 L 257.782 105.561 L 257.782 109.577 L 249.75 109.577 L 249.75 113.592 L 237.704 113.592 L 237.704 117.609 L 233.688 117.609 L 233.688 121.622 L 229.672 121.622 L 229.672 125.638 L 225.657 125.638 Z M 209.595 81.467 L 205.58 81.467 L 205.58 85.482 L 201.565 85.482 L 201.565 89.5 L 189.52 89.5 L 189.52 93.515 L 177.473 93.515 L 177.473 89.842 C 177.715 89.727 177.957 89.613 178.199 89.5 L 181.488 89.5 L 181.488 88.004 C 183.467 87.128 185.466 86.286 187.482 85.482 L 193.535 85.482 L 193.535 83.196 C 195.22 82.595 196.917 82.018 198.624 81.467 L 201.565 81.467 L 201.565 80.547 C 204.216 79.743 206.893 78.998 209.595 78.318 Z M 189.52 125.638 L 181.488 125.638 L 181.488 121.622 L 177.473 121.622 L 177.473 117.609 L 189.52 117.609 Z M 201.565 109.577 L 201.565 117.609 L 189.52 117.609 L 189.52 113.592 L 181.488 113.592 L 181.488 109.577 L 169.44 109.577 L 169.44 113.591 L 165.425 113.591 L 165.425 121.622 L 157.395 121.622 L 157.395 117.609 L 161.409 117.609 L 161.409 113.592 L 157.395 113.592 L 157.395 117.609 L 153.379 117.609 L 153.379 121.622 L 149.365 121.622 L 149.365 125.638 L 145.348 125.638 L 145.348 129.653 L 137.319 129.653 L 137.319 137.684 L 141.332 137.684 L 141.332 141.698 L 149.365 141.698 L 149.365 145.714 L 153.379 145.714 L 153.379 141.698 L 161.409 141.698 L 161.409 129.653 L 165.425 129.653 L 165.425 125.638 L 169.44 125.638 L 169.44 121.622 L 173.458 121.622 L 173.458 125.638 L 177.473 125.638 L 177.473 129.653 L 189.52 129.653 L 189.52 141.698 L 193.535 141.698 L 193.535 145.714 L 197.549 145.714 L 197.549 149.731 L 193.535 149.731 L 193.535 153.745 L 189.52 153.745 L 189.52 157.761 L 169.44 157.761 L 169.44 161.777 L 181.488 161.777 L 181.488 165.79 L 177.473 165.79 L 177.473 169.809 L 169.44 169.809 L 169.44 173.824 L 165.425 173.824 L 165.425 177.839 L 161.409 177.839 L 161.409 181.854 L 153.379 181.854 L 153.379 185.87 L 149.365 185.87 L 149.365 193.901 L 145.348 193.901 L 145.348 197.917 L 141.332 197.917 L 141.332 201.93 L 137.319 201.93 L 137.319 205.947 L 133.303 205.947 L 133.303 213.978 L 137.319 213.978 L 137.319 217.992 L 141.332 217.992 L 141.332 226.023 L 133.303 226.023 L 133.303 222.008 L 129.287 222.008 L 129.287 217.992 L 125.271 217.992 L 125.271 209.961 L 113.227 209.961 L 113.227 213.978 L 105.193 213.978 L 105.193 217.992 L 101.178 217.992 L 101.178 222.008 L 97.164 222.008 L 97.164 242.086 L 101.178 242.086 L 101.178 238.07 L 105.193 238.07 L 105.193 234.054 L 117.24 234.054 L 117.24 242.086 L 113.227 242.086 L 113.227 250.117 L 117.24 250.117 L 117.24 246.101 L 121.258 246.101 L 121.258 258.147 L 125.271 258.147 L 125.271 262.163 L 129.287 262.163 L 129.287 266.179 L 133.303 266.179 L 133.303 262.163 L 137.319 262.163 L 137.319 258.147 L 145.348 258.147 L 145.348 254.132 L 149.365 254.132 L 149.365 258.147 L 157.395 258.147 L 157.395 262.163 L 173.458 262.163 L 173.458 270.192 L 177.473 270.192 L 177.473 274.209 L 181.488 274.209 L 181.488 278.224 L 189.52 278.224 L 189.52 286.255 L 193.535 286.255 L 193.535 290.27 L 201.565 290.27 L 201.565 294.284 L 209.595 294.284 L 209.595 298.301 L 217.627 298.301 L 217.627 302.316 L 225.657 302.316 L 225.657 322.395 L 221.64 322.395 L 221.64 326.409 L 217.627 326.409 L 217.627 350.502 L 213.613 350.502 L 213.613 358.532 L 201.565 358.532 L 201.565 374.593 L 197.549 374.593 L 197.549 382.627 L 193.535 382.627 L 193.535 390.657 L 185.503 390.657 L 185.503 394.671 L 181.488 394.671 L 181.488 398.687 L 177.473 398.687 L 177.473 409.587 C 176.125 408.949 174.787 408.296 173.458 407.625 L 173.458 406.718 L 171.684 406.718 C 169.572 405.623 167.486 404.487 165.425 403.31 L 165.425 402.702 L 164.369 402.702 C 160.617 400.524 156.95 398.212 153.379 395.773 L 153.379 394.671 L 151.786 394.671 C 150.974 394.103 150.166 393.53 149.365 392.948 L 149.365 386.64 L 153.379 386.64 L 153.379 370.578 L 149.365 370.578 L 149.365 346.486 L 145.348 346.486 L 145.348 342.472 L 141.332 342.472 L 141.332 338.455 L 137.319 338.455 L 137.319 334.439 L 133.303 334.439 L 133.303 326.409 L 129.287 326.409 L 129.287 322.395 L 125.271 322.395 L 125.271 314.364 L 121.258 314.364 L 121.258 302.316 L 125.271 302.316 L 125.271 290.27 L 129.287 290.27 L 129.287 278.224 L 133.303 278.224 L 133.303 274.209 L 121.258 274.209 L 121.258 270.192 L 117.24 270.192 L 117.24 266.179 L 113.227 266.179 L 113.227 262.163 L 109.211 262.163 L 109.211 258.147 L 97.164 258.147 L 97.164 254.132 L 85.117 254.132 L 85.117 250.117 L 81.102 250.117 L 81.102 246.101 L 77.086 246.101 L 77.086 242.086 L 76.361 242.086 C 78.578 189.899 103.421 143.569 141.332 112.657 L 141.332 113.592 L 145.348 113.592 L 145.348 109.478 C 148.972 106.694 152.707 104.046 156.544 101.544 L 157.395 101.544 L 157.395 105.561 L 161.409 105.561 L 161.409 109.577 L 165.425 109.577 L 165.425 97.529 L 181.488 97.529 L 181.488 101.544 L 193.535 101.544 L 193.535 109.577 Z M 193.535 153.745 L 197.549 153.745 L 197.549 157.761 L 201.565 157.761 L 201.565 161.777 L 197.549 161.777 L 197.549 165.79 L 193.535 165.79 Z" style="pointer-events: auto; stroke-width: 6; stroke-linejoin: round; stroke-linecap: round; fill: rgb(143, 212, 0); stroke: rgb(143, 212, 0);" transform="matrix(1.0000000298023224, 0, 0, 1.0000000298023224, 0, 0)"/>
</svg>