<?xml version="1.0" encoding="utf-8"?>
<svg viewBox="-0.004000000189989805 29.992000579833984 500.0090026855469 440.0159912109375" width="500.0090026855469" height="440.0159912109375" xmlns="http://www.w3.org/2000/svg">
  <ellipse transform="matrix(1.0000000298023224, -0.0000780000069024974, 0.0000780000069024974, 1.0000000298023224, -135.798435443593, -132.02415859771236)" cx="185.784" cy="212.035" rx="49.998" ry="50"/>
  <ellipse transform="matrix(1.0000000298023224, -0.0000780000069024974, 0.0000780000069024974, 1.0000000298023224, -135.80246376402556, 37.975594698655414)" cx="185.784" cy="212.035" rx="49.998" ry="50"/>
  <ellipse transform="matrix(1.0000000298023224, -0.0000780000069024974, 0.0000780000069024974, 1.0000000298023224, -135.80292152771105, 207.98433542204876)" cx="185.784" cy="212.035" rx="49.998" ry="50"/>
  <ellipse transform="matrix(1.0000000298023224, -0.0000780000069024974, 0.0000780000069024974, 1.0000000298023224, 264.2023088992327, 207.97652292181604)" cx="185.784" cy="212.035" rx="49.998" ry="50"/>
  <ellipse transform="matrix(1.0000000298023224, -0.0000780000069024974, 0.0000780000069024974, 1.0000000298023224, 264.20139337186174, 37.97566717790562)" cx="185.784" cy="212.035" rx="49.998" ry="50"/>
  <ellipse transform="matrix(1.0000000298023224, -0.0000780000069024974, 0.0000780000069024974, 1.0000000298023224, 264.1984331666953, -132.02414333892284)" cx="185.784" cy="212.035" rx="49.998" ry="50"/>
  <rect x="51.97" width="400" height="100" y="30" transform="matrix(1, 0, 0, 1, 0, 0)"/>
  <rect x="53.079" y="200" width="400" height="100" transform="matrix(1, 0, 0, 1, 0, 0)"/>
  <rect x="52.155" y="370" width="400" height="100" transform="matrix(1, 0, 0, 1, 0, 0)"/>
</svg>