<?xml version="1.0" encoding="utf-8"?>
<svg viewBox="99.99099731445312 100.00299835205078 300.0060119628906 199.99400329589844" width="300.0060119628906" height="199.99400329589844" xmlns="http://www.w3.org/2000/svg">
  <path d="M 149.99 299.996 C 122.374 299.995 99.989 277.609 99.991 249.996 C 99.991 238.493 103.877 227.898 110.407 219.451 L 110 219.044 L 216.65 112.393 L 216.834 112.577 C 225.66 104.753 237.274 100.002 249.997 100.003 C 265.884 100.004 280.039 107.413 289.198 118.963 L 381.04 210.805 C 392.59 219.964 399.998 234.119 399.997 250.004 C 399.995 277.616 377.606 299.999 349.99 299.997 C 337.507 299.996 326.093 295.422 317.332 287.858 L 317.002 288.188 L 249.639 220.825 L 188.15 282.314 C 186.369 284.414 184.418 286.365 182.318 288.147 L 180.71 289.754 L 180.541 289.585 C 172.091 296.113 161.494 299.997 149.99 299.996 Z" transform="matrix(1, 0, 0, 1, 0, 0)"/>
</svg>