<?xml version="1.0" encoding="utf-8"?>
<svg viewBox="89.02899932861328 0 320.1440124511719 500" width="320.1440124511719" height="500" xmlns="http://www.w3.org/2000/svg" xmlns:bx="https://boxy-svg.com">
  <rect x="100" y="100" width="300" height="300" style="stroke-linecap: round; stroke-linejoin: round; stroke-width: 5; fill: rgba(216, 216, 216, 0); stroke: rgb(255, 0, 0);" transform="matrix(1.0000000298023222, 0, 0, 1.0000000298023222, -2.842170943040401e-14, -1.4210854715202004e-14)"/>
  <rect x="100" y="100" width="300" height="25.24" style="stroke-width: 5; fill: rgba(216, 216, 216, 0); stroke-linecap: round; stroke-linejoin: round; stroke: rgb(255, 0, 0);" transform="matrix(1.0000000298023222, 0, 0, 1.0000000298023222, -2.842170943040401e-14, -1.4210854715202004e-14)"/>
  <rect x="100" y="126.085" width="16.311" height="273.915" style="stroke-width: 5; stroke-linecap: round; stroke-linejoin: round; fill: rgba(19, 19, 19, 0); stroke: rgb(255, 0, 0);" transform="matrix(1.0000000298023222, 0, 0, 1.0000000298023222, -2.842170943040401e-14, -1.4210854715202004e-14)"/>
  <rect x="131.237" y="145.23" width="168.763" height="126.254" style="stroke-width: 5; stroke-linejoin: round; stroke-linecap: round; stroke: rgb(255, 0, 0); fill: rgb(255, 0, 0);" transform="matrix(1.0000000298023222, 0, 0, 1.0000000298023222, -2.842170943040401e-14, -1.4210854715202004e-14)"/>
  <rect x="328.146" y="355.792" width="59.174" height="21.979" transform="matrix(1.0000000298023222, 0, 0, 1.0000000298023222, -2.842170943040401e-14, -1.4210854715202004e-14)" style="stroke: rgb(255, 0, 0); fill: rgb(255, 0, 0);"/>
  <path d="M 244.864 167.082 L 266.056 191.788 L 223.671 191.788 L 244.864 167.082 Z" transform="matrix(-1.0000000298023222, 0.000017000004442758044, -0.000016000004074419956, -0.999999016523331, 602.3253963686637, 511.0204009717818)" style="stroke-width: 5; stroke-linejoin: round; stroke-linecap: round; stroke: rgb(255, 0, 0); fill: rgb(255, 0, 0);" bx:shape="triangle 223.671 167.082 42.385 24.706 0.5 0 1@618ee869"/>
  <rect x="55.98" y="101.536" width="38.041" height="8.454" transform="matrix(0, -1.0000000298023222, 1.0000009834766672, 0, 251.6463698043335, 377.9358633141473)" style="stroke-width: 5; stroke-linecap: round; stroke-linejoin: round; stroke: rgb(255, 0, 0); fill: rgb(255, 0, 0);"/>
  <line style="stroke-width: 5; stroke-linejoin: round; stroke-linecap: round; stroke: rgb(255, 0, 0);" x1="314.6754455566406" y1="143.83755493164062" x2="315.52081298828125" y2="382.22332763671875" transform="matrix(1.0000000298023222, 0, 0, 1.0000000298023222, -2.842170943040401e-14, -1.4210854715202004e-14)"/>
</svg>