<?xml version="1.0" encoding="utf-8"?>
<svg viewBox="-34.672000885009766 -32.1879997253418 561.6790161132812 561.6790161132812" width="561.6790161132812" height="561.6790161132812" xmlns="http://www.w3.org/2000/svg" xmlns:xlink="http://www.w3.org/1999/xlink" xmlns:bx="https://boxy-svg.com">
  <defs>
    <pattern id="pattern-0-1" patternTransform="matrix(0.144927, 0, 0, 1.097085, 240.329391, 16.910339)" xlink:href="#pattern-0"/>
    <pattern id="pattern-0" x="0" y="0" width="25" height="25" patternUnits="userSpaceOnUse" viewBox="0 0 100 100">
      <rect x="0" y="0" width="50" height="100" style="fill: black;"/>
    </pattern>
  </defs>
  <path d="M 85.549 204.188 C 89.192 191.031 94.437 178.372 101.166 166.494 L 47.61 93.669 L 91.218 50.068 L 164.034 103.637 C 175.913 96.909 188.573 91.666 201.731 88.026 L 201.835 87.342 L 290.479 87.342 L 290.333 86.079 L 290.631 88.034 C 303.788 91.676 316.448 96.921 328.325 103.651 L 401.15 50.094 L 444.751 93.702 L 391.182 166.518 C 397.91 178.397 403.153 191.058 406.793 204.215 L 409.454 204.621 L 407.03 204.341 L 407.03 293.078 L 406.785 293.115 C 403.143 306.272 397.898 318.932 391.168 330.81 L 444.725 403.635 L 401.117 447.235 L 328.301 393.666 C 316.422 400.394 303.761 405.637 290.605 409.277 L 290.256 411.564 L 290.491 409.53 L 201.744 409.53 L 201.705 409.27 C 188.547 405.627 175.887 400.382 164.009 393.653 L 91.184 447.209 L 47.584 403.601 L 101.153 330.785 C 94.425 318.906 89.182 306.246 85.542 293.088 L 84.799 292.975 L 84.799 204.302 Z M 162.838 248.645 C 162.833 312.792 232.271 352.889 287.827 320.82 C 313.609 305.937 329.494 278.429 329.496 248.659 C 329.502 184.512 260.064 144.414 204.509 176.483 C 178.725 191.366 162.841 218.874 162.838 248.645 Z" style="fill: rgb(255, 255, 255);" transform="matrix(0.7071070285769404, 0.7071070285769404, -0.7071070285769404, 0.7071070285769404, 247.9239423252325, -101.23836056108347)"/>
  <path d="M 6.445 203.845 L 75.007 203.845 L 85.29 292.973 L -3.839 292.973 L 6.445 203.845 Z" style="fill: rgb(93, 93, 93);" transform="matrix(0, -1.0000000298023222, 1.0000000298023222, 0, -207.6834931279268, 289.1344995836762)"/>
  <g transform="matrix(0.7071070285769404, -0.7071070285769404, 0.7071070285769404, 0.7071070285769404, -107.39824233645915, 248.65161873852045)">
    <title>Computer</title>
    <path d="M 215.963 0 L 284.523 0 L 291.379 54.848 L 209.107 54.848 L 215.963 0 Z" style="fill: rgb(78, 78, 78);"/>
    <path d="M 209.108 61.704 L 291.38 61.704 L 294.808 89.128 L 205.68 89.128 L 209.108 61.704 Z" style="fill: rgb(160, 121, 61);"/>
    <rect x="65.676" y="61.24" width="3.428" height="3.428" style="stroke-width: 0.5; stroke: rgb(0, 0, 0); fill: rgb(237, 237, 237);" transform="matrix(1, 0, 0, 0.999999, 153.717178, 3.892215)"/>
    <rect x="65.676" y="61.24" width="3.428" height="3.428" style="stroke-width: 0.5; stroke: rgb(0, 0, 0); fill: rgb(237, 237, 237);" transform="matrix(1.000002, 0, 0, 0.999999, 157.144217, 3.892711)"/>
    <rect x="65.676" y="61.24" width="3.428" height="3.428" style="stroke-width: 0.5; stroke: rgb(0, 0, 0); fill: rgb(237, 237, 237);" transform="matrix(1.000002, 0, 0, 0.999999, 160.572196, 3.89223)"/>
    <rect x="65.676" y="61.24" width="3.428" height="3.428" style="stroke-width: 0.5; stroke: rgb(0, 0, 0); fill: rgb(237, 237, 237);" transform="matrix(1.000002, 0, 0, 0.999999, 164.000205, 3.892711)"/>
    <rect x="65.676" y="61.24" width="3.428" height="3.428" style="stroke-width: 0.5; stroke: rgb(0, 0, 0); fill: rgb(237, 237, 237);" transform="matrix(1.000002, 0, 0, 0.999999, 167.428519, 3.89223)"/>
    <rect x="65.676" y="61.24" width="3.428" height="3.428" style="stroke-width: 0.5; stroke: rgb(0, 0, 0); fill: rgb(237, 237, 237);" transform="matrix(1.000002, 0, 0, 0.999999, 170.856192, 3.89223)"/>
    <rect x="65.676" y="61.24" width="3.428" height="3.428" style="stroke-width: 0.5; stroke: rgb(0, 0, 0); fill: rgb(237, 237, 237);" transform="matrix(1.000002, 0, 0, 0.999999, 174.284812, 3.892711)"/>
    <rect x="65.676" y="61.24" width="3.428" height="3.428" style="stroke-width: 0.5; stroke: rgb(0, 0, 0); fill: rgb(237, 237, 237);" transform="matrix(1.000002, 0, 0, 0.999999, 177.71218, 3.89223)"/>
    <rect x="65.676" y="61.24" width="3.428" height="3.428" style="stroke-width: 0.5; stroke: rgb(0, 0, 0); fill: rgb(237, 237, 237);" transform="matrix(1.000002, 0, 0, 0.999999, 181.140189, 3.89223)"/>
    <rect x="65.676" y="61.24" width="3.428" height="3.428" style="stroke-width: 0.5; stroke: rgb(0, 0, 0); fill: rgb(237, 237, 237);" transform="matrix(1, 0, 0, 0.999999, 184.568634, 3.89223)"/>
    <rect x="65.676" y="61.24" width="3.428" height="3.428" style="stroke-width: 0.5; stroke: rgb(0, 0, 0); fill: rgb(237, 237, 237);" transform="matrix(1, 0, 0, 0.999999, 187.996788, 3.894374)"/>
    <rect x="65.676" y="61.24" width="3.428" height="3.428" style="stroke-width: 0.5; stroke: rgb(0, 0, 0); fill: rgb(237, 237, 237);" transform="matrix(0.999993, 0, 0, 1, 191.424656, 3.894241)"/>
    <rect x="260.528" y="65.134" width="6.856" height="3.428" style="stroke-width: 0.5; stroke: rgb(0, 0, 0); fill: rgb(237, 237, 237);"/>
    <rect x="65.676" y="61.24" width="3.428" height="3.428" style="stroke-width: 0.5; stroke: rgb(0, 0, 0); fill: rgb(237, 237, 237);" transform="matrix(1.000002, 0, 0, 0.999999, 150.288016, 3.894245)"/>
    <rect x="65.676" y="61.24" width="3.428" height="3.428" style="stroke-width: 0.5; stroke: rgb(0, 0, 0); fill: rgb(237, 237, 237);" transform="matrix(1, 0, 0, 0.999999, 158.145309, 7.322383)"/>
    <rect x="65.676" y="61.24" width="3.428" height="3.428" style="stroke-width: 0.5; stroke: rgb(0, 0, 0); fill: rgb(237, 237, 237);" transform="matrix(1.000002, 0, 0, 0.999999, 161.572684, 7.322811)"/>
    <rect x="65.676" y="61.24" width="3.428" height="3.428" style="stroke-width: 0.5; stroke: rgb(0, 0, 0); fill: rgb(237, 237, 237);" transform="matrix(1.000002, 0, 0, 0.999999, 165.001273, 7.322254)"/>
    <rect x="65.676" y="61.24" width="3.428" height="3.428" style="stroke-width: 0.5; stroke: rgb(0, 0, 0); fill: rgb(237, 237, 237);" transform="matrix(1.000002, 0, 0, 0.999999, 168.429282, 7.322811)"/>
    <rect x="65.676" y="61.24" width="3.428" height="3.428" style="stroke-width: 0.5; stroke: rgb(0, 0, 0); fill: rgb(237, 237, 237);" transform="matrix(1.000002, 0, 0, 0.999999, 171.856955, 7.322254)"/>
    <rect x="65.676" y="61.24" width="3.428" height="3.428" style="stroke-width: 0.5; stroke: rgb(0, 0, 0); fill: rgb(237, 237, 237);" transform="matrix(1.000002, 0, 0, 0.999999, 175.284659, 7.322254)"/>
    <rect x="65.676" y="61.24" width="3.428" height="3.428" style="stroke-width: 0.5; stroke: rgb(0, 0, 0); fill: rgb(237, 237, 237);" transform="matrix(1.000002, 0, 0, 0.999999, 178.712943, 7.322811)"/>
    <rect x="65.676" y="61.24" width="3.428" height="3.428" style="stroke-width: 0.5; stroke: rgb(0, 0, 0); fill: rgb(237, 237, 237);" transform="matrix(1.000002, 0, 0, 0.999999, 182.141257, 7.322254)"/>
    <rect x="65.676" y="61.24" width="3.428" height="3.428" style="stroke-width: 0.5; stroke: rgb(0, 0, 0); fill: rgb(237, 237, 237);" transform="matrix(1.000002, 0, 0, 0.999999, 185.569266, 7.322254)"/>
    <rect x="65.676" y="61.24" width="3.428" height="3.428" style="stroke-width: 0.5; stroke: rgb(0, 0, 0); fill: rgb(237, 237, 237);" transform="matrix(1.000004, 0, 0, 0.999999, 188.996198, 7.322254)"/>
    <rect x="65.676" y="61.24" width="3.428" height="3.428" style="stroke-width: 0.5; stroke: rgb(0, 0, 0); fill: rgb(237, 237, 237);" transform="matrix(1, 0, 0, 0.999999, 192.424034, 7.324687)"/>
    <rect x="261.528" y="68.564" width="5.856" height="3.428" style="stroke-width: 0.5; stroke: rgb(0, 0, 0); fill: rgb(237, 237, 237);"/>
    <rect x="215.965" y="68.562" width="6.856" height="3.428" style="stroke-width: 0.5; stroke: rgb(0, 0, 0); fill: rgb(237, 237, 237);"/>
    <rect x="65.676" y="61.24" width="3.428" height="3.428" style="stroke-width: 0.5; stroke: rgb(0, 0, 0); fill: rgb(237, 237, 237);" transform="matrix(1.000002, 0, 0, 0.999999, 154.716788, 7.324611)"/>
    <rect x="65.676" y="61.24" width="3.428" height="3.428" style="stroke-width: 0.5; stroke: rgb(0, 0, 0); fill: rgb(237, 237, 237);" transform="matrix(1, 0, 0, 0.999999, 159.679138, 10.75024)"/>
    <rect x="228.783" y="71.991" width="3.428" height="3.428" style="stroke-width: 0.5; stroke: rgb(0, 0, 0); fill: rgb(237, 237, 237);"/>
    <rect x="232.211" y="71.99" width="3.428" height="3.428" style="stroke-width: 0.5; stroke: rgb(0, 0, 0); fill: rgb(237, 237, 237);"/>
    <rect x="235.639" y="71.991" width="3.428" height="3.428" style="stroke-width: 0.5; stroke: rgb(0, 0, 0); fill: rgb(237, 237, 237);"/>
    <rect x="239.067" y="71.99" width="3.428" height="3.428" style="stroke-width: 0.5; stroke: rgb(0, 0, 0); fill: rgb(237, 237, 237);"/>
    <rect x="242.495" y="71.99" width="3.428" height="3.428" style="stroke-width: 0.5; stroke: rgb(0, 0, 0); fill: rgb(237, 237, 237);"/>
    <rect x="245.923" y="71.991" width="3.428" height="3.428" style="stroke-width: 0.5; stroke: rgb(0, 0, 0); fill: rgb(237, 237, 237);"/>
    <rect x="249.351" y="71.99" width="3.428" height="3.428" style="stroke-width: 0.5; stroke: rgb(0, 0, 0); fill: rgb(237, 237, 237);"/>
    <rect x="252.777" y="71.988" width="3.428" height="3.428" style="stroke-width: 0.5; stroke: rgb(0, 0, 0); fill: rgb(237, 237, 237);" transform="matrix(0.999996, 0, 0, 1, 0.003429, 0.002449)"/>
    <rect x="256.207" y="71.99" width="3.428" height="3.428" style="stroke-width: 0.5; stroke: rgb(0, 0, 0); fill: rgb(237, 237, 237);"/>
    <rect x="259.529" y="71.99" width="7.856" height="3.428" style="stroke-width: 0.5; stroke: rgb(0, 0, 0); fill: rgb(237, 237, 237);"/>
    <rect x="215.965" y="71.99" width="6.856" height="3.428" style="stroke-width: 0.5; stroke: rgb(0, 0, 0); fill: rgb(237, 237, 237);"/>
    <rect x="65.676" y="61.24" width="3.428" height="3.428" style="stroke-width: 0.5; stroke: rgb(0, 0, 0); fill: rgb(237, 237, 237);" transform="matrix(1.000002, 0, 0, 1, 156.250609, 10.752533)"/>
    <rect x="224.042" y="75.419" width="3.428" height="3.428" style="stroke-width: 0.5; stroke: rgb(0, 0, 0); fill: rgb(237, 237, 237);"/>
    <rect x="227.469" y="75.419" width="3.428" height="3.428" style="stroke-width: 0.5; stroke: rgb(0, 0, 0); fill: rgb(237, 237, 237);"/>
    <rect x="230.898" y="75.418" width="3.428" height="3.428" style="stroke-width: 0.5; stroke: rgb(0, 0, 0); fill: rgb(237, 237, 237);"/>
    <rect x="234.326" y="75.419" width="3.428" height="3.428" style="stroke-width: 0.5; stroke: rgb(0, 0, 0); fill: rgb(237, 237, 237);"/>
    <rect x="237.754" y="75.418" width="3.428" height="3.428" style="stroke-width: 0.5; stroke: rgb(0, 0, 0); fill: rgb(237, 237, 237);"/>
    <rect x="241.181" y="75.418" width="3.428" height="3.428" style="stroke-width: 0.5; stroke: rgb(0, 0, 0); fill: rgb(237, 237, 237);"/>
    <rect x="178.254" y="54.848" width="3.428" height="3.428" style="stroke-width: 0.5; stroke: rgb(0, 0, 0); fill: rgb(237, 237, 237);" transform="matrix(0.999996, 0, 0, 1, 66.356476, 20.571178)"/>
    <rect x="181.682" y="54.847" width="3.428" height="3.428" style="stroke-width: 0.5; stroke: rgb(0, 0, 0); fill: rgb(237, 237, 237);" transform="matrix(0.999996, 0, 0, 1, 66.356522, 20.571426)"/>
    <rect x="251.466" y="75.418" width="3.428" height="3.428" style="stroke-width: 0.5; stroke: rgb(0, 0, 0); fill: rgb(237, 237, 237);"/>
    <rect x="254.894" y="75.419" width="3.428" height="3.428" style="stroke-width: 0.5; stroke: rgb(0, 0, 0); fill: rgb(237, 237, 237);"/>
    <rect x="258.322" y="75.419" width="9.062" height="3.428" style="stroke-width: 0.5; stroke: rgb(0, 0, 0); fill: rgb(237, 237, 237);"/>
    <rect x="215.964" y="75.419" width="8.078" height="3.428" style="stroke-width: 0.5; stroke: rgb(0, 0, 0); fill: rgb(237, 237, 237);"/>
    <rect x="354.802" y="78.844" width="5.376" height="3.428" style="stroke-width: 0.5; stroke: rgb(0, 0, 0); fill: rgb(237, 237, 237);" transform="matrix(1.000003, 0, 0, 1, -128.554398, 0.00235)"/>
    <rect x="215.965" y="78.846" width="3.428" height="3.428" style="stroke-width: 0.5; stroke: rgb(0, 0, 0); fill: rgb(237, 237, 237);"/>
    <rect x="219.393" y="78.846" width="3.428" height="3.428" style="stroke-width: 0.5; stroke: rgb(0, 0, 0); fill: rgb(237, 237, 237);"/>
    <rect x="222.821" y="78.846" width="3.428" height="3.428" style="stroke-width: 0.5; stroke: rgb(0, 0, 0); fill: rgb(237, 237, 237);"/>
    <rect x="253.671" y="78.844" width="3.428" height="3.428" style="stroke-width: 0.5; stroke: rgb(0, 0, 0); fill: rgb(237, 237, 237);" transform="matrix(0.999996, 0, 0, 1, 0.003433, 0.002449)"/>
    <rect x="178.252" y="54.848" width="3.428" height="3.428" style="stroke-width: 0.5; stroke: rgb(0, 0, 0); fill: rgb(237, 237, 237);" transform="matrix(0.999996, 0, 0, 1, 85.704361, 23.998459)"/>
    <rect x="181.681" y="54.847" width="3.428" height="3.428" style="stroke-width: 0.5; stroke: rgb(0, 0, 0); fill: rgb(237, 237, 237);" transform="matrix(0.999996, 0, 0, 1, 78.847748, 23.999352)"/>
    <rect x="257.101" y="78.846" width="3.428" height="3.428" style="stroke-width: 0.5; stroke: rgb(0, 0, 0); fill: rgb(237, 237, 237);"/>
    <rect x="231.34" y="78.846" width="17.028" height="3.428" style="stroke-width: 0.5; stroke: rgb(0, 0, 0); fill: rgb(237, 237, 237);"/>
    <rect x="354.804" y="78.844" width="5.376" height="3.428" style="stroke-width: 0.5; stroke: rgb(0, 0, 0); fill: rgb(237, 237, 237);" transform="matrix(1.000003, 0, 0, 1, -106.508545, 0.00235)"/>
    <ellipse transform="matrix(1.000001, 0.000038, -0.000036, 0.999999, 224.619972, 34.551063)" cx="56.477" cy="40.734" rx="3.428" ry="6.727" style="fill: rgb(237, 237, 237);"/>
    <rect x="98.989" y="40.296" width="6.856" height="6.856" transform="matrix(0.999998, 0, 0, 0.999999, 178.67913, 28.264403)" rx="0.95" ry="0.95" style="fill: rgb(237, 237, 237);"/>
    <line style="stroke: rgb(0, 0, 0); stroke-width: 0.5; fill: rgb(237, 237, 237);" x1="281.096" y1="68.56" x2="281.096" y2="73.751"/>
    <line style="stroke: rgb(0, 0, 0); stroke-width: 0.5; fill: rgb(237, 237, 237);" x1="277.668" y1="73.615" x2="284.524" y2="73.615"/>
    <rect x="111.109" y="79.505" width="13.712" height="6.856" transform="matrix(0.999999, 0, 0, 1.000001, 132.278375, -24.6568)"/>
    <path style="stroke: rgb(0, 0, 0);" d="M 215.963 47.992 L 219.634 3.155 L 281.044 3.342 L 284.523 47.992 L 215.963 47.992 Z"/>
  </g>
  <g transform="matrix(-0.7071070285769404, -0.7071070285769404, 0.7071070285769404, -0.7071070285769404, 246.16541260973818, 602.2111385527586)">
    <title>Mic</title>
    <path d="M 343 236 m -38.5 0 a 38.5 39.767 0 1 0 77 0 a 38.5 39.767 0 1 0 -77 0 Z M 343 236 m -35.107 0 a 35.107 36.262 0 0 1 70.214 0 a 35.107 36.262 0 0 1 -70.214 0 Z" transform="matrix(1, 0.000059, -0.000059, 1, -92.866576, -196.253364)" style="fill: rgb(0, 179, 255);" bx:shape="ring 343 236 35.107 36.262 38.5 39.767 1@ae629ad1"/>
    <path d="M 343 236 m -29.275 0 a 29.275 30.238 0 1 0 58.55 0 a 29.275 30.238 0 1 0 -58.55 0 Z M 343 236 m -26.695 0 a 26.695 27.573 0 0 1 53.39 0 a 26.695 27.573 0 0 1 -53.39 0 Z" transform="matrix(0.999999, 0.000059, -0.000059, 1, -92.866152, -196.253458)" style="fill: rgb(142, 221, 255);" bx:shape="ring 343 236 26.695 27.573 29.275 30.238 1@3bf94d60"/>
    <path d="M 343 236 m -20.568 0 a 20.568 21.245 0 1 0 41.136 0 a 20.568 21.245 0 1 0 -41.136 0 Z M 343 236 m -18.755 0 a 18.755 19.372 0 0 1 37.51 0 a 18.755 19.372 0 0 1 -37.51 0 Z" transform="matrix(0.999999, 0.000059, -0.000059, 1.000001, -92.865989, -196.253641)" style="fill: rgb(124, 170, 190);" bx:shape="ring 343 236 18.755 19.372 20.568 21.245 1@54006780"/>
    <path style="stroke: rgb(0, 0, 0); fill: none; stroke-width: 2;" d="M 256.839 87.705 C 257.534 85.098 261.532 82.665 268.831 80.406 C 275.052 78.48 281.222 80.566 287.34 86.663 C 288.941 88.259 291.201 88.346 294.118 86.923"/>
    <path style="stroke: rgb(0, 0, 0); fill: none; stroke-width: 2;" d="M 239.96 84.773 C 226.248 84.773 218.51 81.629 217.474 72.256 C 215.964 58.599 223.33 66.704 251.104 83.701 C 256.179 86.806 261.911 86.749 268.303 83.527 C 270.243 82.55 272.244 81.281 274.305 79.72 C 283.766 72.557 281.096 65.142 264.138 69.768 C 256.435 71.868 251.795 73.686 250.244 85.7 C 249.806 89.094 246.816 84.773 239.96 84.773 Z"/>
    <rect x="222.82" y="85.7" width="54.848" height="3.428" style="fill: rgb(101, 101, 101);"/>
    <rect x="113.768" y="110.015" width="13.712" height="6.856" transform="matrix(0.999998, 0, 0, 1, 129.620864, -31.170486)" style="fill: rgb(3, 3, 3);"/>
    <ellipse transform="matrix(1, 0.000037, -0.000036, 1, 199.072377, -26.961344)" cx="51.139" cy="90.2" rx="13.675" ry="19.031" style="fill: rgb(193, 193, 193);"/>
    <rect x="236.532" y="44.564" width="27.424" height="17.14" rx="1.303" ry="1.303" style="fill: rgb(193, 193, 193);"/>
    <path d="M 239.96 17.14 L 260.528 17.14 L 263.956 47.992 L 236.532 47.992 L 239.96 17.14 Z" style="fill: rgb(193, 193, 193);"/>
    <path d="M 240.437 17.14 L 261.005 17.14 L 263.956 47.992 C 250.265 47.992 231.956 47.992 236.532 47.992 L 240.437 17.14 Z" style="fill: url(#pattern-0-1);"/>
    <ellipse transform="matrix(-0.70711, 0.707106, -0.707106, -0.707108, 387.32761, 32.070943)" cx="120.179" cy="83.161" rx="2.581" ry="2.581" style="fill: none; stroke-width: 2;"/>
    <path style="stroke: rgb(0, 0, 0); fill: none; stroke-width: 2;"/>
    <path style="stroke: rgb(0, 0, 0); fill: none; stroke-width: 2;" d="M 282.908 71.542"/>
    <path style="fill: rgb(216, 216, 216); stroke: rgb(0, 0, 0);" d="M 337.914 70.76"/>
    <path style="fill: rgb(216, 216, 216); stroke: rgb(0, 0, 0);" d="M 327.226 80.667"/>
    <path d="M 291.38 85.7 L 301.664 82.272 L 301.664 92.556 L 291.38 89.128 L 291.38 85.7 Z"/>
    <rect x="187.125" y="80.346" width="2.127" height="13.712" transform="matrix(0.999993, 0, 0, 1, 114.540191, 0)"/>
    <rect x="303.79" y="85.7" width="10.284" height="3.428" style="fill: rgb(216, 216, 216);"/>
    <ellipse transform="matrix(-0.739941, 0.672673, -0.672673, -0.739938, 376.420712, 57.593822)" cx="96.69" cy="89.088" rx="3.532" ry="3.532" style="fill: rgb(80, 220, 44); stroke: rgb(0, 0, 0);"/>
    <ellipse transform="matrix(-0.571068, 0.820902, -0.820891, -0.571074, 324.155279, 77.410396)" cx="15.108" cy="4.435" rx="1.135" ry="1.135"/>
  </g>
  <g transform="matrix(-0.7071070285769404, 0.7071070285769404, -0.7071070285769404, -0.7071070285769404, 599.7086360367721, 248.65161873852045)">
    <title>Speaker</title>
    <path d="M 257.1 41.136 L 284.524 41.136 L 294.808 89.128 L 246.816 89.128 L 257.1 41.136 Z" style="fill: rgb(77, 51, 32);"/>
    <path d="M 215.964 0 L 243.388 0 L 253.672 89.128 L 205.68 89.128 L 215.964 0 Z" style="fill: rgb(54, 54, 54);"/>
    <path d="M 402 211 m -10.284 0 a 10.284 10.284 0 1 0 20.568 0 a 10.284 10.284 0 1 0 -20.568 0 Z M 402 211 m -5.162 0 a 5.162 5.162 0 0 1 10.324 0 a 5.162 5.162 0 0 1 -10.324 0 Z" style="fill: rgb(216, 216, 216);" transform="matrix(1, -0.000064, 0.000064, 1, -172.336887, -186.999099)" bx:shape="ring 402 211 5.162 5.162 10.284 10.284 1@be273c48"/>
    <path d="M 402 211 m -17.129 0 a 17.129 17.129 0 1 0 34.258 0 a 17.129 17.129 0 1 0 -34.258 0 Z M 402 211 m -8.598 0 a 8.598 8.598 0 0 1 17.196 0 a 8.598 8.598 0 0 1 -17.196 0 Z" style="fill: rgb(216, 216, 216);" transform="matrix(1, -0.000064, 0.000065, 1, -172.347934, -149.260303)" bx:shape="ring 402 211 8.598 8.598 17.129 17.129 1@2fd0c245"/>
    <ellipse transform="matrix(-0.680451, 0.732794, -0.732793, -0.68045, 345.148807, 59.434041)" cx="80.251" cy="83.074" rx="5.403" ry="5.403" style="fill: rgb(199, 49, 49);"/>
    <ellipse transform="matrix(-0.680452, 0.732793, -0.732793, -0.68045, 345.159667, 21.695605)" cx="80.251" cy="83.074" rx="3.725" ry="3.725" style="fill: rgb(199, 49, 49);"/>
    <path d="M 588 338 m -14.81 0 a 14.81 14.81 0 1 0 29.62 0 a 14.81 14.81 0 1 0 -29.62 0 Z M 588 338 m -8.523 0 a 8.523 8.523 0 0 1 17.046 0 a 8.523 8.523 0 0 1 -17.046 0 Z" transform="matrix(0.999998, 0.000083, -0.00008, 1, -317.159583, -272.91665)" style="fill: rgb(102, 101, 87);" bx:shape="ring 588 338 8.523 8.523 14.81 14.81 1@12aa5412"/>
    <ellipse transform="matrix(-0.695418, 0.718606, -0.718604, -0.69542, 395.888578, 14.170554)" cx="123.602" cy="54.441" rx="8.698" ry="8.698" style="fill: rgb(178, 144, 41);"/>
    <ellipse transform="matrix(-0.485645, 0.874153, -0.874153, -0.485638, 428.652795, 0.956956)" cx="140.741" cy="87.914" rx="2.076" ry="2.076" style="fill: rgb(55, 221, 30);"/>
    <ellipse transform="matrix(0.987867, 0.155301, -0.155301, 0.987867, 175.374385, -21.69444)" cx="93.218" cy="41.016" rx="8.593" ry="8.593"/>
    <line style="stroke: rgb(0, 0, 0);" x1="274.24" y1="30.852" x2="274.24" y2="30.852"/>
    <line style="stroke: rgb(0, 0, 0); stroke-width: 4;" x1="265.066" y1="26.975" x2="244.498" y2="9.835" transform="matrix(0.987869, 0.155289, -0.155289, 0.987869, 5.948829, -39.341555)"/>
    <path style="stroke: rgb(0, 0, 0); fill: none; stroke-width: 4;" d="M 246.816 9.804 C 251.52 11.014 254.478 9.938 255.688 6.578"/>
    <path style="fill: rgb(216, 216, 216); stroke: rgb(0, 0, 0);" d="M 303.616 23.222"/>
    <line style="stroke: rgb(0, 0, 0);" x1="281.096" y1="41.136" x2="281.096" y2="3.428"/>
  </g>
  <g transform="matrix(0.7071070285769404, 0.7071070285769404, -0.7071070285769404, 0.7071070285769404, 246.12575501578291, -105.56234292871771)">
    <title>Headset</title>
    <path style="stroke: rgb(0, 0, 0); stroke-width: 0.5; fill: rgb(220, 220, 220);" d="M 224.442 19.413 C 224.283 22.747 226.659 24.684 229.675 23.996 C 232.192 23.422 232.058 22.402 233.245 19.377 C 234.086 17.234 235.621 16.123 237.849 16.044 C 239.935 15.971 241.734 14.912 243.246 12.869 C 246.343 8.684 250.789 8.842 256.582 13.345 C 258.196 14.599 260.101 15.34 262.297 15.567 C 263.342 15.675 264.135 16.363 264.678 17.631 C 266.375 21.596 268.757 23.978 271.822 24.775 C 273.817 25.294 275.193 23.759 275.95 20.171 C 258.992 -9.676 220.378 12.261 224.442 19.413 Z"/>
    <line style="stroke-width: 3; stroke: rgb(48, 48, 48);" x1="224.541" y1="44.564" x2="222.693" y2="20.222"/>
    <line x1="275.817" y1="44.564" x2="277.667" y2="20.568" style="stroke-width: 3; stroke: rgb(48, 48, 48);"/>
    <rect x="219.392" y="82.272" width="61.704" height="6.856" style="fill: rgb(137, 34, 117);"/>
    <rect x="212.536" y="85.7" width="75.415" height="3.428"/>
    <path d="M 243.388 10.284 L 257.1 10.284 L 260.527 82.272 L 239.959 82.272 L 243.388 10.284 Z" style="fill: rgb(90, 90, 90);"/>
    <path d="M 239.96 0 L 260.527 0 L 257.099 13.712 L 243.388 13.712 L 239.96 0 Z"/>
    <path d="M 241.668 6.856 L 258.818 6.856 L 257.099 13.712 L 243.387 13.712 L 241.668 6.856 Z" style="fill: rgb(48, 48, 48);"/>
    <ellipse transform="matrix(1, -0.000039, 0.000037, 1, 209.242782, 8.070433)" cx="16.078" cy="38.87" rx="4.353" ry="4.48"/>
    <ellipse transform="matrix(1, -0.000039, 0.000034, 1, 259.085153, 8.070493)" cx="16.078" cy="38.87" rx="4.353" ry="4.48"/>
    <ellipse transform="matrix(1, -0.000011, 0.000009, 1, 188.467095, -18.253219)" cx="42.922" cy="72.826" rx="8.57" ry="11.998" style="fill: rgb(137, 34, 117); stroke: rgb(0, 0, 0);"/>
    <rect x="56.157" y="33.311" width="6.856" height="30.852" transform="matrix(0.999999, 0, 0, 1, 173.518452, 5.835747)" rx="0.986" ry="0.986"/>
    <path style="stroke: rgb(0, 0, 0); stroke-width: 0.5; fill: rgb(220, 220, 220);" d="M 236.532 40.72 C 236.532 37.187 240.834 36.488 242.313 40.103 C 243.452 42.886 242.137 45.845 241.327 50.95 C 240.4 56.797 239.727 62.717 241.573 69.999 C 242.407 73.288 240.493 73.427 237.532 71.535 C 236.393 70.807 236.213 70.738 236.532 68.766"/>
    <line style="stroke: rgb(0, 0, 0); stroke-width: 0.5; stroke-linecap: round;" x1="235.698" y1="40.932" x2="237.383" y2="40.432"/>
    <line style="stroke: rgb(0, 0, 0); stroke-width: 0.5; stroke-linecap: round;" x1="235.632" y1="42.575" x2="239.959" y2="41.432"/>
    <line style="stroke: rgb(0, 0, 0); stroke-width: 0.5; stroke-linecap: round;" x1="236.531" y1="44.015" x2="239.959" y2="43.932"/>
    <line style="stroke: rgb(0, 0, 0); stroke-linecap: round; stroke-width: 0.5;" x1="235.614" y1="67.352" x2="238.049" y2="69.999"/>
    <line style="stroke: rgb(0, 0, 0); stroke-width: 0.5; stroke-linecap: round;" x1="235.002" y1="44.419" x2="238.43" y2="46.003"/>
    <line style="stroke: rgb(0, 0, 0); stroke-width: 0.5; stroke-linecap: round;" x1="234.419" y1="47.431" x2="237.448" y2="47.431"/>
    <line style="stroke: rgb(0, 0, 0); stroke-width: 0.5; stroke-linecap: round;" x1="235.929" y1="66.571" x2="239.959" y2="68.613"/>
    <line style="stroke: rgb(0, 0, 0); stroke-width: 0.5; stroke-linecap: round;" x1="234.085" y1="64.988" x2="238.846" y2="66.571"/>
    <line style="stroke: rgb(0, 0, 0); stroke-width: 0.5; stroke-linecap: round;" x1="234.251" y1="63.143" x2="237.513" y2="64.893"/>
    <ellipse transform="matrix(1.000001, -0.000011, 0.00001, 1, 226.174357, -18.220737)" cx="42.922" cy="72.826" rx="8.57" ry="11.998" style="fill: rgb(137, 34, 117); stroke: rgb(0, 0, 0);"/>
    <rect x="263.956" y="39.147" width="6.856" height="30.852" rx="0.986" ry="0.986"/>
    <path style="stroke: rgb(0, 0, 0); stroke-width: 0.5; fill: rgb(220, 220, 220);" d="M 259.004 40.329 C 259.004 36.796 263.306 36.097 264.785 39.712 C 265.924 42.495 262.64 45.522 263.799 50.559 C 265.664 58.659 262.127 65.515 264.045 69.608 C 265.484 72.68 262.021 74.085 260.004 71.144 C 259.239 70.029 258.685 70.347 259.004 68.375" transform="matrix(-1, 0, 0, -1, 523.941053, 110.078621)"/>
    <line style="stroke: rgb(0, 0, 0); stroke-width: 0.5; stroke-linecap: round;" x1="264.086" y1="70.038" x2="265.771" y2="69.538" transform="matrix(-1, 0, 0, -1, 529.856966, 139.576004)"/>
    <line style="stroke: rgb(0, 0, 0); stroke-width: 0.5; stroke-linecap: round;" x1="261.51" y1="69.038" x2="265.837" y2="67.895" transform="matrix(-1, 0, 0, -1, 527.347036, 136.932999)"/>
    <line style="stroke: rgb(0, 0, 0); stroke-width: 0.5; stroke-linecap: round;" x1="261.51" y1="66.538" x2="264.938" y2="66.455" transform="matrix(-1, 0, 0, -1, 526.447977, 132.993012)"/>
    <line style="stroke: rgb(0, 0, 0); stroke-linecap: round; stroke-width: 0.5;" x1="263.42" y1="40.471" x2="265.855" y2="43.118" transform="matrix(-1, 0, 0, -1, 529.275038, 83.589006)"/>
    <line style="stroke: rgb(0, 0, 0); stroke-width: 0.5; stroke-linecap: round;" x1="263.039" y1="64.467" x2="266.467" y2="66.051" transform="matrix(-1, 0, 0, -1, 529.505968, 130.518005)"/>
    <line style="stroke: rgb(0, 0, 0); stroke-width: 0.5; stroke-linecap: round;" x1="264.021" y1="63.039" x2="267.05" y2="63.039" transform="matrix(-1, 0, 0, -1, 531.071009, 126.078003)"/>
    <line style="stroke: rgb(0, 0, 0); stroke-width: 0.5; stroke-linecap: round;" x1="261.51" y1="41.857" x2="265.54" y2="43.899" transform="matrix(-1, 0, 0, -1, 527.050029, 85.755999)"/>
    <line style="stroke: rgb(0, 0, 0); stroke-width: 0.5; stroke-linecap: round;" x1="262.623" y1="43.899" x2="267.384" y2="45.482" transform="matrix(-1, 0, 0, -1, 530.006973, 89.380996)"/>
    <line style="stroke: rgb(0, 0, 0); stroke-width: 0.5; stroke-linecap: round;" x1="263.956" y1="45.577" x2="267.218" y2="47.327" transform="matrix(-1, 0, 0, -1, 531.173958, 92.903999)"/>
    <path style="stroke: rgb(0, 0, 0); fill: none; stroke-width: 3; stroke-linecap: round;" d="M 222.605 20.415 C 222.605 20.415 248.208 -17.96 277.667 20.647"/>
    <line style="stroke: rgb(0, 0, 0); stroke-width: 0.5; stroke-linecap: round;" x1="263.956" y1="6.856" x2="264.365" y2="14.076" transform="matrix(-1, 0, 0, -1, 528.321007, 20.931998)"/>
    <line style="stroke: rgb(0, 0, 0); stroke-width: 0.5; stroke-linecap: round;" x1="262.397" y1="11.277" x2="261.813" y2="5.747"/>
    <line style="stroke: rgb(0, 0, 0); stroke-width: 0.5; stroke-linecap: round;" x1="266.191" y1="9.029" x2="266.366" y2="13.154" transform="matrix(-1, 0, 0, -1, 532.557027, 22.182998)"/>
    <line style="stroke: rgb(0, 0, 0); stroke-width: 0.5; stroke-linecap: round;" x1="273.666" y1="16.854" x2="272.849" y2="20.395" transform="matrix(-1, 0, 0, -1, 546.515023, 37.249004)"/>
    <line style="stroke: rgb(0, 0, 0); stroke-width: 0.5; stroke-linecap: round;" x1="271.68" y1="14.985" x2="271.097" y2="22.322" transform="matrix(-1, 0, 0, -1, 542.777, 37.306998)"/>
    <line style="stroke: rgb(0, 0, 0); stroke-width: 0.5; stroke-linecap: round;" x1="270.046" y1="12.708" x2="270.338" y2="15.548" transform="matrix(-1, 0, 0, -1, 540.384008, 28.256004)"/>
    <line style="stroke: rgb(0, 0, 0); stroke-width: 0.5; stroke-linecap: round;" x1="232.615" y1="9.905" x2="233.9" y2="15.198" transform="matrix(-1, 0, 0, -1, 466.515011, 25.103)"/>
    <line style="stroke: rgb(0, 0, 0); stroke-width: 0.5; stroke-linecap: round;" x1="224.732" y1="18.722" x2="226.068" y2="21.563" transform="matrix(-1, 0, 0, -1, 450.800004, 40.285001)"/>
    <line style="stroke: rgb(0, 0, 0); stroke-width: 0.5; stroke-linecap: round;" x1="226.309" y1="16.562" x2="228.295" y2="21.621" transform="matrix(-1, 0, 0, -1, 454.60398, 38.182996)"/>
    <line style="stroke: rgb(0, 0, 0); stroke-width: 0.5; stroke-linecap: round;" x1="227.944" y1="15.92" x2="229.754" y2="17.65" transform="matrix(-1, 0, 0, -1, 457.697986, 33.570003)"/>
    <line style="stroke: rgb(0, 0, 0); stroke-width: 0.5; stroke-linecap: round;" x1="230.864" y1="10.314" x2="231.74" y2="14.38" transform="matrix(-1, 0, 0, -1, 462.603975, 24.694002)"/>
    <line style="stroke: rgb(0, 0, 0); stroke-width: 0.5; stroke-linecap: round;" x1="241.607" y1="5.467" x2="240.849" y2="9.534" transform="matrix(-1, 0, 0, -1, 482.45598, 15.001001)"/>
    <line style="stroke: rgb(0, 0, 0); stroke-width: 0.5; stroke-linecap: round;" x1="238.513" y1="6.985" x2="239.155" y2="12.629" transform="matrix(-1, 0, 0, -1, 477.667972, 19.614001)"/>
    <line style="stroke: rgb(0, 0, 0); stroke-width: 0.5; stroke-linecap: round;" x1="234.25" y1="9.438" x2="234.367" y2="12.278" transform="matrix(-1, 0, 0, -1, 468.617009, 21.715999)"/>
    <ellipse transform="matrix(-0.371398, 0.928473, -0.928478, -0.371397, 237.957141, 11.58877)" cx="13.842" cy="10.958" rx="0.956" ry="0.956" style="fill: rgb(137, 34, 117);"/>
    <ellipse transform="matrix(-0.371414, 0.928469, -0.92846, -0.371402, 292.967961, 11.821195)" cx="13.842" cy="10.958" rx="0.956" ry="0.956" style="fill: rgb(137, 34, 117);"/>
    <path style="stroke: rgb(0, 0, 0); fill: rgb(220, 220, 220);" d="M 267.103 9.355"/>
  </g>
  <ellipse transform="matrix(-0.9899580177652236, 0.14140601877588074, -0.14142601613479888, -0.9899469909056114, 342.1346842686735, 288.7872400518427)" cx="89.326" cy="53.303" rx="1.464" ry="1.464" style="fill: rgb(255, 0, 234);"/>
</svg>