<?xml version="1.0" encoding="utf-8"?>
<svg viewBox="164.79800415039062 35.07099914550781 311.8210144042969 428.0589904785156" width="311.8210144042969" height="428.0589904785156" xmlns="http://www.w3.org/2000/svg" xmlns:bx="https://boxy-svg.com">
  <ellipse transform="matrix(1.0000000298023226, 0.000043000012200558884, -0.000043000012200558884, 1.0000000298023226, 89.47195701217517, 12.850061799587657)" cx="182.379" cy="156.487" rx="38.01" ry="38.01" style="stroke-width: 5; stroke-linecap: round; stroke-linejoin: round; stroke: rgb(68, 68, 68); fill: rgb(255, 255, 38);" bx:origin="0.496 1.333"/>
  <path d="M 272.569 226.337 C 297.667 226.338 318.444 246.645 322.012 273.11 C 322.403 274.343 322.614 275.655 322.614 277.017 L 322.614 313.426 C 322.614 320.557 316.834 326.337 309.703 326.337 L 235.525 326.337 C 228.394 326.337 222.614 320.557 222.614 313.426 L 222.614 277.017 C 222.614 275.858 222.767 274.735 223.053 273.667 C 226.401 246.93 247.295 226.336 272.569 226.337 Z" style="stroke: rgb(68, 68, 68); stroke-width: 5; fill: rgb(255, 255, 38);" transform="matrix(1.0000000298023226, 0, 0, 1.0000000298023226, 7.105427357601002e-15, 0)"/>
  <ellipse transform="matrix(1.0000000298023226, 0.000043000012200558884, -0.000043000012200558884, 1.0000000298023226, 189.74747269593084, 13.253503240749325)" cx="182.379" cy="156.487" rx="38.01" ry="38.01" style="stroke-width: 5; stroke-linecap: round; stroke-linejoin: round; stroke: rgb(68, 68, 68); fill: rgb(255, 255, 38);" bx:origin="0.496 1.333"/>
  <path d="M 372.844 226.739 C 397.943 226.74 418.719 247.047 422.287 273.512 C 422.678 274.745 422.889 276.057 422.889 277.419 L 422.889 313.828 C 422.889 320.959 417.109 326.739 409.979 326.739 L 335.801 326.739 C 328.669 326.739 322.889 320.959 322.889 313.828 L 322.889 277.419 C 322.889 276.26 323.042 275.137 323.328 274.069 C 326.676 247.332 347.57 226.738 372.844 226.739 Z" style="stroke: rgb(68, 68, 68); stroke-width: 5; fill: rgb(255, 255, 38);" transform="matrix(1.0000000298023226, 0, 0, 1.0000000298023226, 7.105427357601002e-15, 0)"/>
  <ellipse transform="matrix(1.0000000298023226, 0.000043000012200558884, -0.000043000012200558884, 1.0000000298023226, 139.14601549941338, 57.7874734934411)" cx="182.379" cy="156.487" rx="38.01" ry="38.01" style="stroke-width: 5; stroke-linecap: round; stroke-linejoin: round; stroke: rgb(68, 68, 68); fill: rgb(255, 255, 38);" bx:origin="0.496 1.333"/>
  <path d="M 322.243 271.279 C 347.341 271.28 368.118 291.587 371.686 318.052 C 372.077 319.285 372.288 320.597 372.288 321.959 L 372.288 358.368 C 372.288 365.499 366.508 371.279 359.377 371.279 L 285.199 371.279 C 278.068 371.279 272.288 365.499 272.288 358.368 L 272.288 321.959 C 272.288 320.8 272.441 319.677 272.727 318.609 C 276.075 291.872 296.969 271.278 322.243 271.279 Z" style="stroke: rgb(68, 68, 68); stroke-width: 5; fill: rgb(255, 255, 38);" transform="matrix(1.0000000298023226, 0, 0, 1.0000000298023226, 7.105427357601002e-15, 0)"/>
  <ellipse transform="matrix(1.0000000298023226, 0.000043000012200558884, -0.000043000012200558884, 1.0000000298023226, 239.42464397623056, 58.191160028909394)" cx="182.379" cy="156.487" rx="38.01" ry="38.01" style="stroke-width: 5; stroke-linecap: round; stroke-linejoin: round; stroke: rgb(68, 68, 68); fill: rgb(255, 255, 38);" bx:origin="0.496 1.333"/>
  <path d="M 422.518 271.681 C 447.617 271.682 468.393 291.989 471.961 318.454 C 472.352 319.687 472.563 320.999 472.563 322.361 L 472.563 358.77 C 472.563 365.901 466.783 371.681 459.653 371.681 L 385.475 371.681 C 378.343 371.681 372.563 365.901 372.563 358.77 L 372.563 322.361 C 372.563 321.202 372.716 320.079 373.002 319.011 C 376.35 292.274 397.244 271.68 422.518 271.681 Z" style="stroke: rgb(68, 68, 68); stroke-width: 5; fill: rgb(255, 255, 38);" transform="matrix(1.0000000298023226, 0, 0, 1.0000000298023226, 7.105427357601002e-15, 0)"/>
  <ellipse transform="matrix(1.0000000298023226, 0.000043000012200558884, -0.000043000012200558884, 1.0000000298023226, 38.39135093663185, 57.4646242101378)" cx="182.379" cy="156.487" rx="38.01" ry="38.01" style="stroke-width: 5; stroke-linecap: round; stroke-linejoin: round; stroke: rgb(68, 68, 68); fill: rgb(255, 255, 38);" bx:origin="0.496 1.333"/>
  <path d="M 221.488 270.953 C 246.586 270.954 267.363 291.261 270.931 317.726 C 271.322 318.959 271.533 320.271 271.533 321.633 L 271.533 358.042 C 271.533 365.173 265.753 370.953 258.622 370.953 L 184.444 370.953 C 177.313 370.953 171.533 365.173 171.533 358.042 L 171.533 321.633 C 171.533 320.474 171.686 319.351 171.972 318.283 C 175.32 291.546 196.214 270.952 221.488 270.953 Z" style="stroke: rgb(68, 68, 68); stroke-width: 5; fill: rgb(255, 255, 38);" transform="matrix(1.0000000298023226, 0, 0, 1.0000000298023226, 7.105427357601002e-15, 0)"/>
</svg>