<?xml version="1.0" encoding="utf-8"?>
<svg viewBox="75 100 360.10198974609375 300" width="360.10198974609375" height="300" xmlns="http://www.w3.org/2000/svg">
  <ellipse transform="matrix(1.0000000298023224, -0.0000020000002819288127, 0.0000020000002819288127, 1.0000000298023224, -110.90936609832534, -59.999490618690544)" cx="260.909" cy="210" rx="50" ry="50"/>
  <path d="M 225 289.533 C 225 289.73 224.999 289.928 224.998 290.125 C 225.09 291.127 225.137 292.143 225.137 293.169 L 225.137 367.172 C 225.137 385.302 210.439 400 192.309 400 L 107.965 400 C 89.835 400 75.137 385.302 75.137 367.172 L 75.137 294.104 C 75.046 292.593 75 291.069 75 289.535 C 74.999 248.114 108.578 214.534 149.999 214.534 C 191.42 214.533 224.999 248.111 225 289.533 Z" transform="matrix(1, 0, 0, 1, 0, 0)"/>
  <path d="M 417.782 186.077 L 435.102 196.077 L 375.102 300 L 373.114 298.852 L 373.114 300 L 253.114 300 L 253.114 280 L 363.556 280 Z" style="stroke-width: 5; stroke: rgb(0, 0, 0); stroke-linecap: round; stroke-linejoin: round;" transform="matrix(1, 0, 0, 1, 0, 0)"/>
</svg>