<?xml version="1.0" encoding="utf-8"?>
<svg viewBox="89.96099853515625 0 320.0780029296875 500.3599853515625" width="320.0780029296875" height="500.3599853515625" xmlns="http://www.w3.org/2000/svg" xmlns:bx="https://boxy-svg.com">
  <path d="M 174.632 120.286 C 273.982 62.725 398.126 134.503 398.478 249.511 L 356.942 249.511 C 356.769 211.224 336.276 175.892 303.098 156.735 C 231.44 115.359 141.897 166.888 141.545 249.511 L 100.009 249.511 C 100.182 196.185 128.596 146.959 174.632 120.286 Z M 257.399 399.784 C 252.084 400.074 246.788 400.07 241.532 399.784 Z" transform="matrix(1.0000000298023222, 0, 0, 1.0000000298023222, -1.4210854715202004e-14, -1.4210854715202004e-14)" style="fill: rgb(33, 150, 243);"/>
  <path d="M 177 216 m -149.231 0 a 149.231 149.777 0 1 0 298.462 0 a 149.231 149.777 0 1 0 -298.462 0 Z M 177 216 m -127.619 0 a 127.619 127.619 0 0 1 255.238 0 a 127.619 127.619 0 0 1 -255.238 0 Z" transform="matrix(1.0000000298023222, 0.00004900000713462958, -0.00004900000713462958, 1.0000000298023222, 72.24917054918913, 33.99099069806903)" style="fill: rgb(33, 150, 243);" bx:shape="ring 177 216 127.619 127.619 149.231 149.777 1@30d2ab80"/>
  <path d="M 110.242 61.96 L 172.679 190.096 L 47.804 190.096 L 110.242 61.96 Z" transform="matrix(0, 1.0000000298023222, -1.0000000298023222, 0, 389.10981384246946, 139.7581981348453)" style="fill: rgb(33, 150, 243);" bx:shape="triangle 47.804 61.96 124.875 128.136 0.5 0 1@a85b1175"/>
  <path d="M 360.294 248.928 C 360.292 288.98 339.124 325.988 304.764 346.012 C 230.728 389.158 138.188 335.216 138.193 248.917 C 138.193 248.76 138.193 248.603 138.194 248.447 L 160.361 248.447 C 160.36 248.604 160.359 248.761 160.359 248.918 C 160.358 280.975 177.297 310.598 204.798 326.628 C 264.052 361.168 338.124 318 338.127 248.928 C 338.127 248.767 338.127 248.607 338.126 248.447 L 360.293 248.447 C 360.293 248.607 360.294 248.767 360.294 248.928 Z" transform="matrix(1.0000000298023222, 0, 0, 1.0000000298023222, -1.4210854715202004e-14, -1.4210854715202004e-14)" style="fill: rgb(33, 150, 243);"/>
</svg>