<?xml version="1.0" encoding="utf-8"?>
<svg viewBox="69.16400146484375 100 368.07598876953125 300" width="368.07598876953125" height="300" xmlns="http://www.w3.org/2000/svg">
  <ellipse transform="matrix(1.0000000298023224, 0.0000020000002819288127, 0.0000020000002819288127, -1.0000000298023224, 621.0114320818012, -59.99950587748005)" cx="-260.909" cy="-210" rx="50" ry="50"/>
  <path d="M 434.965 325.001 C 434.965 324.804 434.964 324.606 434.963 324.409 C 435.055 323.407 435.102 322.391 435.102 321.365 L 435.102 247.362 C 435.102 229.232 420.404 214.534 402.274 214.534 L 317.93 214.534 C 299.8 214.534 285.102 229.232 285.102 247.362 L 285.102 320.43 C 285.011 321.941 284.965 323.465 284.965 324.999 C 284.964 366.42 318.543 400 359.964 400 C 401.385 400.001 434.964 366.423 434.965 325.001 Z" transform="matrix(-1.0000000298023224, 0, 0, -1.0000000298023224, 720.0670380612318, 614.5340148965715)"/>
  <rect x="117.909" y="242.989" width="82.091" height="141.262" rx="19.896" ry="19.896" transform="matrix(0.7071070285769406, -0.7071070285769406, 0.7071070285769406, 0.7071070285769406, -155.19347081164915, 142.5773052745253)"/>
</svg>