<?xml version="1.0" encoding="utf-8"?>
<svg viewBox="100 100 300 300" width="300" height="300" xmlns="http://www.w3.org/2000/svg">
  <path d="M 400 250 C 400 277.615 377.614 300 350 300 C 349.34 300 348.684 299.987 348.03 299.962 L 348.03 300 L 300 300 L 300 345.259 L 299.778 345.259 C 299.925 346.82 300 348.401 300 350 C 300 377.615 277.614 400 250 400 C 222.385 400 200 377.614 200 350 C 200 348.401 200.075 346.82 200.222 345.259 L 200 345.259 L 200 300 L 148.523 300 L 148.523 299.979 C 121.591 299.196 100 277.12 100 249.999 C 100 222.879 121.592 200.802 148.523 200.021 L 148.523 200 L 200 200 L 200 145.259 L 200.222 145.259 C 202.61 119.868 223.985 100 250 100 C 276.015 100 297.39 119.869 299.778 145.259 L 300 145.259 L 300 200 L 348.03 200 L 348.03 200.038 C 348.684 200.013 349.34 200 350 200 C 377.614 200 400 222.386 400 250 Z" transform="matrix(1, 0, 0, 1, 0, 1.4210854715202004e-14)"/>
</svg>