<?xml version="1.0" encoding="utf-8"?>
<svg viewBox="89.9280014038086 0 319.2449951171875 500" width="319.2449951171875" height="500" xmlns="http://www.w3.org/2000/svg" xmlns:bx="https://boxy-svg.com">
  <rect x="100" y="100" width="300" height="300" style="stroke-linecap: round; stroke-linejoin: round; stroke-width: 5; fill: rgba(216, 216, 216, 0); stroke: rgb(127, 255, 212);" transform="matrix(1.0000000298023222, 0, 0, 1.0000000298023222, 7.105427357601002e-15, 0)"/>
  <rect x="100" y="100" width="300" height="25.24" style="stroke-width: 5; fill: rgba(216, 216, 216, 0); stroke-linecap: round; stroke-linejoin: round; stroke: rgb(127, 255, 212);" transform="matrix(1.0000000298023222, 0, 0, 1.0000000298023222, 7.105427357601002e-15, 0)"/>
  <rect x="100" y="126.085" width="100" height="273.915" style="stroke-width: 5; stroke-linecap: round; stroke-linejoin: round; fill: rgba(19, 19, 19, 0); stroke: rgb(127, 255, 212);" transform="matrix(1.0000000298023222, 0, 0, 1.0000000298023222, 7.105427357601002e-15, 0)"/>
  <rect x="200" y="145.23" width="114.675" height="134.409" style="stroke-width: 5; stroke-linejoin: round; stroke-linecap: round; stroke: rgb(127, 255, 212); fill: rgb(127, 255, 212);" transform="matrix(1.0000000298023222, 0, 0, 1.0000000298023222, 7.105427357601002e-15, 0)"/>
  <rect x="111.959" y="142.147" width="76.081" height="11.835" transform="matrix(1.0000000298023222, 0, 0, 1.0000000298023222, 7.105427357601002e-15, 0)" style="stroke: rgb(127, 255, 212); fill: rgb(127, 255, 212);"/>
  <path d="M 244.864 167.082 L 266.056 191.788 L 223.671 191.788 L 244.864 167.082 Z" transform="matrix(1.0000000298023222, -0.000017000004442758044, 0.000017000004442758044, 1.0000000298023222, -94.866541828708, -4.726393840503505)" style="stroke-width: 5; stroke-linejoin: round; stroke-linecap: round; stroke: rgb(127, 255, 212); fill: rgb(127, 255, 212);" bx:shape="triangle 223.671 167.082 42.385 24.706 0.5 0 1@618ee869"/>
  <rect x="55.98" y="101.534" width="38.041" height="8.454" transform="matrix(0, 1.0000000298023222, -1.0000009834766672, 0, 255.76123809102862, 128.43359757761934)" style="stroke-width: 5; stroke-linecap: round; stroke-linejoin: round; stroke: rgb(127, 255, 212); fill: rgb(127, 255, 212);"/>
</svg>