<?xml version="1.0" encoding="utf-8"?>
<svg viewBox="0 0 500 500" width="500" height="500" xmlns="http://www.w3.org/2000/svg">
  <path d="M 85.041 275.818 C 246.4 182.654 448.023 298.705 448.792 484.763 L 442.992 484.763 C 442.614 400.607 397.57 322.945 324.641 280.841 C 167.149 189.915 -29.635 303.177 -30.404 484.763 L -36.204 484.763 C -35.826 398.536 10.321 318.96 85.041 275.818 Z" style="fill: rgb(0, 255, 255);" transform="matrix(-0.9335801283592016, -0.3583679902067178, 0.3583679902067178, -0.9335801283592016, 268.4887470152597, 777.4898913350661)"/>
  <path d="M 37.129 224.662 C 188.488 137.271 377.612 246.106 378.38 420.617 L 372.937 420.617 C 372.56 341.693 330.307 268.864 261.908 229.375 C 169.353 175.939 62.332 197.675 -4.888 263.248 C -44.959 302.337 -70.887 357.007 -71.174 420.617 L -76.616 420.617 C -76.238 339.748 -32.95 265.125 37.129 224.662 Z" style="fill: rgb(255, 174, 66);" transform="matrix(-0.5000000149011611, -0.8660250564225027, 0.8660250564225027, -0.5000000149011611, -39.745228998220824, 591.5113701674745)"/>
  <path d="M 101.963 271.354 C 243.321 189.737 419.945 291.355 420.713 454.318 L 415.629 454.318 C 415.252 380.624 375.789 312.629 311.922 275.756 C 173.952 196.102 1.571 295.274 0.803 454.318 L -4.281 454.318 C -3.904 378.809 36.525 309.137 101.963 271.354 Z" style="fill: rgb(255, 255, 38);" transform="matrix(-0.9205050742776706, -0.3907310483077477, 0.3907310483077477, -0.9205050742776706, 263.7327349106289, 750.5405497116008)"/>
  <path d="M 227.416 114.476 C 358.773 38.634 522.897 133.035 523.665 284.451 L 518.939 284.451 C 518.561 215.988 481.89 152.827 422.553 118.57 C 294.345 44.551 134.165 136.677 133.397 284.45 L 128.671 284.45 C 129.048 214.3 166.618 149.579 227.416 114.476 Z" style="fill: rgb(217, 0, 217);" transform="matrix(0.6427880121108291, 0.7660439838780153, -0.7660439838780153, 0.6427880121108291, 259.0610733944495, -183.38704464992995)"/>
</svg>