<?xml version="1.0" encoding="utf-8"?>
<svg viewBox="0.004999999888241291 -0.3700000047683716 499.9859924316406 500.74200439453125" width="499.9859924316406" height="500.74200439453125" xmlns="http://www.w3.org/2000/svg">
  <path d="M 0.005 248.934 L 5.985 248.934 C 6.753 61.717 209.634 -55.065 372.003 38.677 C 447.195 82.088 493.633 162.165 494.011 248.934 L 499.991 248.934 C 499.222 57.107 291.353 -62.551 124.998 33.498 C 47.958 77.978 0.383 160.03 0.005 248.934 Z" style="fill: rgb(127, 255, 212);" transform="matrix(1, 0, 0, 1, -1.4210854715202004e-14, 0)"/>
  <path d="M 14.457 158.517 C 170.811 68.242 366.177 180.676 366.958 360.951 L 361.336 360.951 C 360.953 279.418 317.305 204.179 246.647 163.386 C 94.04 75.28 -96.636 185.01 -97.417 360.951 L -103.037 360.951 C -102.654 277.41 -57.937 200.316 14.457 158.517 Z" style="fill: rgb(255, 110, 255);" transform="matrix(0.052336016366959046, -0.9986300170013303, 0.9986300170013303, 0.052336016366959046, -118.42725725255173, 362.8349717508245)"/>
  <path d="M 155.4 60.567 C 301.754 -23.934 484.621 81.284 485.401 250.011 L 480.137 250.011 C 479.754 173.708 438.897 103.303 372.769 65.125 C 229.924 -17.344 51.448 85.34 50.669 250.011 L 45.406 250.011 C 45.789 171.828 87.647 99.687 155.4 60.567 Z" style="fill: rgb(143, 212, 0);" transform="matrix(0.9902680215319392, 0.13917300519862774, -0.13917300519862774, 0.9902680215319392, 22.12095517280561, -35.570790397250335)"/>
  <path d="M 249.916 163.075 C 386.273 84.345 556.647 182.354 557.415 339.544 L 552.51 339.544 C 552.132 268.466 514.065 202.887 452.463 167.323 C 363.968 116.232 260.799 141.402 201.371 209.106 C 171.423 243.223 152.583 288.141 152.326 339.544 L 147.421 339.544 C 147.798 266.714 186.798 199.518 249.916 163.075 Z" style="fill: rgb(255, 0, 0);" transform="matrix(0.12186901634541192, 0.9925461111231471, -0.9925461111231471, 0.12186901634541192, 545.1226969099844, -141.3024181515698)"/>
  <path d="M 249.221 197.743 C 275.695 182.457 303.553 174.36 331.059 172.449 C 434.837 165.24 533.613 246.094 534.22 361.222 L 529.673 361.222 C 529.295 295.375 494.019 234.63 436.947 201.681 C 341.416 146.528 227.433 187.263 180.549 274.491 C 166.907 299.871 158.946 329.187 158.773 361.222 L 154.226 361.222 C 154.603 293.751 190.744 231.507 249.221 197.743 Z" style="fill: rgb(33, 150, 243);" transform="matrix(-0.17364804964208735, 0.984808116698506, -0.984808116698506, -0.17364804964208735, 666.5585525798359, -26.084357085357766)"/>
</svg>