<?xml version="1.0" encoding="utf-8"?>
<svg viewBox="3.4660000801086426 1.628000020980835 496.5580139160156 498.37200927734375" width="496.5580139160156" height="498.37200927734375" xmlns="http://www.w3.org/2000/svg" xmlns:bx="https://boxy-svg.com">
  <path d="M 177 216 m -248.267 0 a 248.267 249.174 0 1 0 496.534 0 a 248.267 249.174 0 1 0 -496.534 0 Z M 177 216 m -212.312 0 a 212.312 212.312 0 0 1 424.624 0 a 212.312 212.312 0 0 1 -424.624 0 Z" transform="matrix(1.0000000298023224, 0.00004900000349665066, -0.00004900000349665066, 1.0000000298023224, 74.75558694468693, 34.805138671551276)" style="fill: rgb(68, 68, 68);" bx:shape="ring 177 216 212.312 212.312 248.267 249.174 1@2980343b"/>
  <path d="M 462.619 250.824 C 462.615 326.437 422.42 396.305 357.173 434.108 C 216.586 515.563 40.863 413.727 40.871 250.803 C 40.871 250.535 40.872 250.268 40.873 250 L 71.413 250 C 71.412 250.268 71.411 250.536 71.411 250.805 C 71.408 315.232 105.776 374.767 161.57 406.983 C 281.79 476.4 432.072 389.644 432.079 250.823 C 432.079 250.549 432.078 250.274 432.077 250 L 462.618 250 C 462.619 250.274 462.619 250.549 462.619 250.824 Z" style="fill: rgb(68, 68, 68);" transform="matrix(1, 0, 0, 1, 0, 0)"/>
  <path d="M 162.34 95.346 C 281.332 26.403 430.007 112.299 430.568 250 L 404.67 250 C 404.394 195.669 375.301 145.536 328.215 118.348 C 226.49 59.61 99.384 132.729 98.82 250 L 72.922 250 C 73.198 186.177 107.233 127.275 162.34 95.346 Z" style="fill: rgb(68, 68, 68);" transform="matrix(1, 0, 0, 1, 0, 0)"/>
  <path d="M 183.402 103.076 L 287.275 316.241 L 79.529 316.241 L 183.402 103.076 Z" transform="matrix(0, 1.0000000298023224, -1.0000000298023224, 0, 484.40351785431795, 67.41181383764183)" style="fill: rgb(68, 68, 68);" bx:shape="triangle 79.529 103.076 207.746 213.165 0.5 0 1@690e5e55"/>
</svg>