<?xml version="1.0" encoding="utf-8"?>
<svg viewBox="-0.03200000151991844 0 500.0639953613281 500.3599853515625" width="500.0639953613281" height="500.3599853515625" xmlns="http://www.w3.org/2000/svg" xmlns:bx="https://boxy-svg.com">
  <ellipse transform="matrix(1.0000000298023224, 0.00006400000902172199, -0.00006400000902172199, 1.0000000298023224, 86.89635726500615, 46.71049257250101)" cx="163.117" cy="203.279" rx="250.016" ry="249.984" style="fill: rgba(216, 216, 216, 0);"/>
  <path d="M 127.598 35.017 C 292.876 -60.744 499.403 58.668 499.987 250 L 430.888 250 C 430.6 186.305 396.508 127.525 341.313 95.653 C 222.103 26.819 73.14 112.546 72.554 250 L 3.455 250 C 3.743 161.286 51.013 79.39 127.598 35.017 Z M 265.289 500 C 256.446 500.483 247.636 500.476 238.892 500 Z" style="fill: rgb(68, 68, 68);" transform="matrix(1, 0, 0, 1, 0, 0)"/>
  <path d="M 177 216 m -248.267 0 a 248.267 249.174 0 1 0 496.534 0 a 248.267 249.174 0 1 0 -496.534 0 Z M 177 216 m -212.312 0 a 212.312 212.312 0 0 1 424.624 0 a 212.312 212.312 0 0 1 -424.624 0 Z" transform="matrix(1.0000000298023224, 0.00004900000349665066, -0.00004900000349665066, 1.0000000298023224, 74.73134835753876, 34.805203521406725)" style="fill: rgb(68, 68, 68);" bx:shape="ring 177 216 212.312 212.312 248.267 249.174 1@2980343b"/>
  <path d="M 183.402 103.076 L 287.275 316.241 L 79.529 316.241 L 183.402 103.076 Z" transform="matrix(0, 1.0000000298023224, -1.0000000298023224, 0, 484.4035178543181, 67.41181383764183)" style="fill: rgb(68, 68, 68);" bx:shape="triangle 79.529 103.076 207.746 213.165 0.5 0 1@690e5e55"/>
  <path d="M 436.465 249.031 C 436.462 315.662 401.247 377.23 344.085 410.544 C 220.919 482.323 66.97 392.583 66.977 249.012 C 66.977 248.752 66.978 248.49 66.979 248.23 L 103.856 248.23 C 103.855 248.492 103.854 248.753 103.854 249.014 C 103.851 302.346 132.032 351.627 177.781 378.294 C 276.356 435.756 399.582 363.942 399.588 249.03 C 399.588 248.763 399.587 248.497 399.586 248.23 L 436.463 248.23 C 436.464 248.497 436.465 248.763 436.465 249.031 Z" style="fill: rgb(68, 68, 68);" transform="matrix(1, 0, 0, 1, 0, 0)"/>
</svg>