<?xml version="1.0" encoding="utf-8"?>
<svg viewBox="1.6890000104904175 0.8140000104904175 500.0639953613281 500" width="500.0639953613281" height="500" xmlns="http://www.w3.org/2000/svg">
  <ellipse transform="matrix(1.0000000298023224, 0.00006400000902172198, -0.00006400000902172198, 1.0000000298023224, 88.61680104186527, 47.52444599641693)" cx="163.117" cy="203.279" rx="250.016" ry="249.984" style="fill: rgba(216, 216, 216, 0);"/>
  <path d="M 436.465 250.793 C 436.462 316.796 401.247 377.783 344.085 410.782 C 220.919 481.884 66.97 392.991 66.977 250.775 C 66.977 250.517 66.978 250.258 66.979 250 L 103.856 250 C 103.855 250.259 103.854 250.518 103.854 250.777 C 103.851 303.605 132.032 352.421 177.781 378.837 C 276.356 435.756 399.582 364.62 399.588 250.792 C 399.588 250.528 399.587 250.264 399.586 250 L 436.463 250 C 436.464 250.264 436.465 250.528 436.465 250.793 Z" style="fill: rgb(68, 68, 68);" transform="matrix(1, 0, 0, 1, 0, 0)"/>
</svg>