<?xml version="1.0" encoding="utf-8"?>
<svg viewBox="1.6890000104904175 0.8140000104904175 500.0639953613281 500" width="500.0639953613281" height="500" xmlns="http://www.w3.org/2000/svg" xmlns:bx="https://boxy-svg.com">
  <ellipse transform="matrix(1.0000000298023224, 0.00006400000902172198, -0.00006400000902172198, 1.0000000298023224, 88.61680104186527, 47.52444599641693)" cx="163.117" cy="203.279" rx="250.016" ry="249.984" style="fill: rgba(216, 216, 216, 0);"/>
  <path d="M 177 216 m -248.267 0 a 248.267 249.174 0 1 0 496.534 0 a 248.267 249.174 0 1 0 -496.534 0 Z M 177 216 m -212.312 0 a 212.312 212.312 0 0 1 424.624 0 a 212.312 212.312 0 0 1 -424.624 0 Z" transform="matrix(1.0000000298023224, 0.000049000003496650674, -0.000049000003496650674, 1.0000000298023224, 74.73134835753876, 34.805203521406725)" style="fill: rgb(68, 68, 68);" bx:shape="ring 177 216 212.312 212.312 248.267 249.174 1@2980343b"/>
  <path d="M 183.402 103.076 L 287.275 316.241 L 79.529 316.241 L 183.402 103.076 Z" transform="matrix(0, 1.0000000298023224, -1.0000000298023224, 0, 484.4035178543181, 67.41181383764182)" style="fill: rgb(68, 68, 68);" bx:shape="triangle 79.529 103.076 207.746 213.165 0.5 0 1@690e5e55"/>
</svg>