<?xml version="1.0" encoding="utf-8"?>
<svg viewBox="11.793000221252441 -75.35700225830078 1000.0009765625 454.5480041503906" width="1000.0009765625" height="454.5480041503906" xmlns="http://www.w3.org/2000/svg" xmlns:bx="https://boxy-svg.com">
  <defs>
    <radialGradient id="gradient-7" gradientUnits="userSpaceOnUse" cx="260.973" cy="271.73" r="47.201" gradientTransform="matrix(1.087132, -0.098551, 0.050617, 0.558384, -151.145873, 26.341651)">
      <stop offset="0" style="stop-color: rgba(255, 255, 255, 1)"/>
      <stop offset="1" style="stop-color: rgba(204, 204, 204, 1)"/>
    </radialGradient>
    <radialGradient id="gradient-6" gradientUnits="userSpaceOnUse" cx="200" cy="203" r="173.148" gradientTransform="matrix(0.850922, -0.836175, 0.700899, 0.71326, -112.467023, 225.44323)">
      <stop offset="0" style="stop-color: rgba(255, 255, 255, 1)"/>
      <stop offset="1" style="stop-color: rgba(204, 204, 204, 1)"/>
    </radialGradient>
    <linearGradient id="gradient-1" gradientUnits="userSpaceOnUse" x1="604.219" y1="143.063" x2="604.219" y2="284.609" gradientTransform="matrix(0.023273, -0.999729, 2.557148, 0.05953, -65.019926, 806.812059)">
      <stop offset="0" style="stop-color: rgba(255, 255, 255, 1)"/>
      <stop offset="1" style="stop-color: rgba(204, 204, 204, 1)"/>
    </linearGradient>
  </defs>
  <path d="M 218.712 377.917 C 217.951 376.756 217.962 376.39 218.834 373.799 C 219.42 372.058 220.131 370.909 220.669 370.836 C 221.37 370.74 221.469 371.002 221.162 372.136 C 220.951 372.917 220.964 374.385 221.189 375.399 C 221.601 377.245 221.018 379.191 220.052 379.191 C 219.774 379.191 219.171 378.618 218.712 377.917 Z M 185.122 374.134 C 184.965 373.977 184.268 373.761 183.573 373.655 C 182.788 373.535 182.245 373.039 182.139 372.343 C 181.937 371.02 183.605 366.81 183.947 367.781 C 184.112 368.247 184.471 368.293 185.142 367.934 C 186.45 367.234 186.78 367.715 186.78 370.322 C 186.78 372.41 185.755 374.767 185.122 374.134 Z M 209.364 372.543 C 209.41 371.238 211.371 366.755 211.431 367.817 C 211.453 368.203 211.686 368.387 211.948 368.225 C 212.725 367.744 212.942 370.97 212.222 372.315 C 211.349 373.949 209.309 374.111 209.364 372.543 Z M 236.122 365.455 C 235.266 364.424 235.934 362.2 237.199 361.869 C 238.575 361.509 238.846 361.847 238.846 363.92 C 238.846 365.853 237.215 366.773 236.122 365.455 Z M 234.702 351.267 C 234.047 351.004 233.361 350.194 233.179 349.467 C 232.996 348.74 232.047 347.417 231.069 346.527 C 229.321 344.937 229.286 344.929 228.977 346.081 C 228.804 346.726 228.659 347.904 228.655 348.698 C 228.645 350.24 227.869 351.118 227.311 350.215 C 227.126 349.915 226.686 349.673 226.335 349.677 C 225.951 349.682 226.017 349.893 226.501 350.206 C 227.216 350.668 227.216 350.725 226.501 350.712 C 225.245 350.689 223.478 347.433 223.076 344.401 C 222.699 341.563 223.086 340.76 225.574 339.202 C 226.046 338.907 226.508 338.062 226.6 337.323 C 226.811 335.646 225.173 335.425 223.495 336.903 C 222.582 337.707 222.092 337.79 220.915 337.343 C 219.828 336.93 219.559 336.948 219.848 337.416 C 220.121 337.857 219.93 337.918 219.208 337.623 C 217.171 336.792 216.575 337.013 216.395 338.665 C 216.298 339.551 216.01 340.492 215.754 340.756 C 215.489 341.029 215.411 340.766 215.574 340.145 C 215.73 339.546 215.555 338.867 215.184 338.638 C 214.709 338.344 214.611 338.485 214.852 339.114 C 215.041 339.605 214.961 340.007 214.675 340.007 C 214.389 340.007 214.155 339.396 214.155 338.649 C 214.155 337.146 213.049 336.46 211.605 337.067 C 211.089 337.284 210.115 337.499 209.441 337.545 C 208.39 337.617 208.259 337.432 208.521 336.24 C 208.689 335.476 209.416 333.686 210.137 332.261 C 210.859 330.836 211.336 329.488 211.199 329.266 C 211.061 329.043 210.801 327.927 210.62 326.785 C 210.439 325.643 210.18 324.528 210.044 324.307 C 209.681 323.714 206.758 323.817 206.375 324.436 C 206.053 324.957 202.454 323.776 201.828 322.944 C 200.676 321.413 199.714 321.166 198.117 321.992 C 195.919 323.128 195.614 323.075 193.673 321.22 C 192.746 320.335 191.481 319.607 190.86 319.602 C 188.961 319.588 185.105 318.246 185.553 317.755 C 185.785 317.5 185.563 317.441 185.049 317.624 C 183.908 318.033 183.102 316.752 183.428 315.046 C 183.713 313.555 186.092 311.202 187.585 310.933 C 188.404 310.786 188.685 310.27 188.769 308.751 C 188.83 307.657 189.279 306.152 189.768 305.407 C 190.864 303.733 190.424 301.567 188.89 301.08 C 187.614 300.675 183.559 303.076 183.559 304.237 C 183.559 305.094 181.666 306.896 180.601 307.052 C 179.236 307.253 179.069 305.127 180.344 303.77 C 181.563 302.472 181.409 301.189 180.095 301.693 C 179.685 301.851 178.895 301.737 178.341 301.44 C 177.523 301.002 176.951 301.26 175.314 302.805 L 173.295 304.71 L 174.495 305.987 C 175.869 307.45 175.774 307.482 172.49 306.655 C 169.212 305.83 168.351 306.655 170.453 308.6 C 171.71 309.766 171.84 310.1 171.193 310.509 C 169.872 311.345 165.466 311.132 165.115 310.217 C 164.939 309.757 164.138 309.412 163.251 309.412 C 162.396 309.412 161.12 308.97 160.416 308.429 C 158.53 306.982 157.217 306.629 156.361 307.34 C 155.141 308.353 154.572 307.224 154.552 303.747 C 154.518 297.778 154.813 296.343 156.607 293.738 C 157.563 292.351 158.586 291.067 158.88 290.885 C 159.815 290.307 159.248 287.358 158.079 286.724 C 156.419 285.823 152.474 285.132 149.4 285.204 C 147.391 285.251 146.557 285.048 146.33 284.458 C 145.903 283.345 144.914 283.434 144.903 284.586 C 144.89 286.088 144.103 286.933 142.557 287.102 C 140.865 287.288 139.007 285.302 139.007 283.306 C 139.007 282.608 138.766 282.036 138.47 282.036 C 138.175 282.036 137.934 282.399 137.934 282.841 C 137.934 283.284 137.601 283.647 137.194 283.647 C 136.788 283.647 136.142 284.024 135.759 284.486 C 135.127 285.247 135.018 285.247 134.593 284.486 C 134.334 284.024 133.569 283.647 132.891 283.647 C 132.213 283.647 131.239 283.183 130.726 282.616 C 129.837 281.633 129.844 281.558 130.891 280.997 C 132.444 280.166 131.758 278.922 129.424 278.336 C 123.273 276.791 118.436 277.242 116.531 279.538 C 115.903 280.295 113.779 280.826 113.779 280.225 C 113.779 280.115 114.132 279.023 114.564 277.8 C 115.437 275.326 115.187 273.981 113.856 273.992 C 112.664 274.001 108.261 279.107 106.123 282.96 C 103.93 286.911 100.3 291.628 99.421 291.668 C 98.5 291.71 98.574 291.206 99.827 288.867 C 100.42 287.761 101.016 285.985 101.153 284.92 C 101.419 282.836 102.654 281.544 104.404 281.517 C 105.06 281.506 105.9 280.803 106.507 279.755 C 107.063 278.796 108.075 277.335 108.757 276.509 C 109.438 275.683 110.392 274.173 110.875 273.154 C 111.359 272.135 111.928 271.301 112.141 271.301 C 112.63 271.301 112.754 270.377 112.934 265.396 C 113.014 263.182 113.368 260.183 113.72 258.732 C 114.115 257.105 114.166 255.974 113.853 255.78 C 112.871 255.173 112.988 254.717 114.545 253.092 C 115.409 252.19 115.988 251.323 115.831 251.166 C 115.674 251.01 115.942 249.137 116.426 247.005 C 117.1 244.035 117.544 243.082 118.321 242.932 C 119.761 242.655 121.255 240.684 121.276 239.034 C 121.286 238.263 122.019 236.72 122.904 235.606 C 124.337 233.803 124.753 232.946 124.405 232.519 C 124.345 232.446 124.678 231.661 125.146 230.775 C 125.614 229.889 126.569 227.852 127.269 226.247 C 127.968 224.642 129.205 222.41 130.016 221.286 C 130.828 220.163 131.492 218.917 131.492 218.517 C 131.492 218.117 131.976 217.353 132.566 216.819 C 133.157 216.285 133.64 215.608 133.64 215.315 C 133.64 215.022 134.485 213.751 135.518 212.49 C 136.552 211.229 137.397 210.076 137.397 209.928 C 137.397 209.78 138.616 207.889 140.106 205.726 C 142.872 201.711 143.175 200.149 141.519 198.451 C 140.651 197.561 134.353 199.021 132.81 200.47 C 132.195 201.048 131.275 201.521 130.765 201.521 C 129.795 201.521 126.662 203.599 126.662 204.243 C 126.662 204.447 124.687 206.682 122.275 209.207 C 118.142 213.533 115.32 217.613 113.482 221.918 C 113.041 222.951 112.447 224.159 112.164 224.602 C 111.511 225.62 109.866 229.048 109.802 229.522 C 109.682 230.406 108.846 230.673 108.409 229.966 C 107.185 227.985 109.809 220.876 114.78 212.706 C 115.458 211.593 115.755 210.603 115.465 210.424 C 114.609 209.896 115.417 208.072 116.648 207.753 C 117.284 207.588 118.407 206.541 119.142 205.426 C 119.877 204.312 120.625 203.279 120.803 203.131 C 120.982 202.984 122.433 201.166 124.029 199.091 C 125.624 197.017 127.236 194.963 127.611 194.529 C 129.615 192.202 130.419 191.116 130.419 190.737 C 130.419 190.505 131.144 189.522 132.029 188.552 C 132.915 187.582 133.64 186.584 133.64 186.333 C 133.64 185.665 134.784 184.688 136.404 183.971 C 137.329 183.563 138.06 182.625 138.493 181.294 C 138.86 180.167 139.488 178.769 139.889 178.186 C 140.831 176.817 140.81 176.293 139.813 176.293 C 139.37 176.293 139.008 176.155 139.008 175.986 C 139.008 175.817 139.37 175.317 139.813 174.874 C 140.308 174.379 140.618 173.063 140.618 171.455 C 140.618 170.018 140.879 168.68 141.198 168.483 C 141.517 168.286 141.636 167.556 141.462 166.862 C 141.114 165.475 142.598 164.248 143.982 164.779 C 144.918 165.138 146.216 163.681 145.702 162.849 C 145.254 162.125 141.61 162.674 141.07 163.547 C 140.833 163.931 139.824 163.738 138.017 162.961 C 136.534 162.322 134.848 161.8 134.271 161.8 C 132.891 161.8 130.432 163.91 131.362 164.296 C 132.303 164.686 131.642 165.557 130.404 165.557 C 129.654 165.557 129.472 165.809 129.726 166.497 C 129.917 167.013 130.259 167.563 130.486 167.719 C 130.713 167.874 130.685 168.348 130.423 168.773 C 130.056 169.367 129.599 169.423 128.438 169.016 C 126.649 168.389 126.067 166.323 127.57 165.934 C 128.32 165.739 128.347 165.668 127.688 165.62 C 126.133 165.506 125.096 161.263 126.623 161.263 C 126.833 161.263 128.289 160.306 129.857 159.135 C 132.099 157.463 132.917 157.119 133.681 157.528 C 134.332 157.876 135.105 157.841 136.025 157.422 C 137.974 156.534 137.917 154.19 135.922 153.191 C 135.11 152.785 134.031 152.11 133.524 151.692 C 133.017 151.273 132.112 151.058 131.513 151.215 C 130.531 151.472 130.451 151.306 130.705 149.538 C 130.86 148.459 131.047 147.093 131.121 146.502 C 131.195 145.912 131.451 145.116 131.689 144.734 C 131.933 144.343 131.847 143.708 131.492 143.28 C 130.981 142.665 131.131 142.453 132.278 142.165 C 134.408 141.63 133.767 140.189 131.01 139.315 C 128.682 138.577 128.671 138.562 129.941 137.858 C 130.647 137.467 131.648 137.138 132.164 137.128 C 133.132 137.108 133.527 136.035 132.567 136.035 C 132.272 136.035 132.03 135.794 132.03 135.498 C 132.03 135.203 132.996 134.962 134.177 134.962 C 135.747 134.962 136.324 134.741 136.324 134.14 C 136.324 133.083 135.322 132.718 132.164 132.623 C 128.724 132.519 128.789 131.327 132.298 130.172 C 136.889 128.66 139.276 127.27 139.276 126.107 C 139.276 124.622 134.258 123.794 133.264 125.115 C 132.909 125.586 132.244 125.828 131.787 125.652 C 130.57 125.185 130.772 126.237 132.03 126.91 C 133.155 127.512 133.516 129.057 132.531 129.057 C 131.287 129.057 129.811 127.873 130.103 127.109 C 130.298 126.603 130.184 126.455 129.788 126.7 C 128.801 127.31 122.368 127.389 122.368 126.792 C 122.368 126.498 122.006 126.405 121.563 126.584 C 121.12 126.763 120.427 127.045 120.022 127.209 C 119.617 127.374 118.867 127.09 118.356 126.578 C 117.604 125.826 117.232 125.769 116.415 126.279 C 115.859 126.626 114.616 126.895 113.653 126.876 C 111.952 126.843 111.94 126.827 113.23 126.312 C 114.098 125.966 114.341 125.646 113.929 125.392 C 113.516 125.137 113.471 124.732 113.8 124.212 C 114.663 122.847 114.375 122.229 112.445 121.313 C 110.424 120.354 108.878 118.322 110.169 118.322 C 110.566 118.322 111.356 117.981 111.926 117.565 C 112.938 116.825 112.939 116.784 111.954 115.696 C 111.129 114.785 111.069 114.438 111.624 113.769 C 112.152 113.133 112.155 112.954 111.641 112.954 C 111.269 112.954 111.119 112.596 111.296 112.133 C 111.523 111.542 111.159 111.222 109.992 110.989 C 108.01 110.592 107.014 109.061 108.134 108.131 C 109.077 107.349 112.445 108.288 113.138 109.527 C 113.399 109.994 113.945 110.173 114.481 109.967 C 114.978 109.777 115.25 109.405 115.087 109.141 C 114.924 108.877 115.673 108.14 116.751 107.504 C 118.498 106.473 118.678 106.166 118.403 104.686 L 118.094 103.024 L 119.156 104.289 C 120.406 105.779 121.627 105.51 122.359 103.585 C 122.7 102.688 123.145 102.345 123.693 102.555 C 124.284 102.782 124.523 102.515 124.543 101.605 L 124.571 100.34 L 125.414 101.548 C 125.877 102.212 126.577 102.755 126.968 102.755 C 127.935 102.755 130.59 100.241 130.005 99.879 C 129.748 99.72 126.656 99.424 123.135 99.22 C 118.547 98.955 116.167 98.567 114.74 97.851 C 113.645 97.301 112.437 96.843 112.056 96.834 C 111.676 96.825 110.156 96.223 108.68 95.497 C 105.765 94.063 102.426 93.79 99.993 94.786 C 98.944 95.215 90.601 95.451 72.717 95.558 C 48.404 95.703 41.044 96.097 38.639 97.384 C 38.138 97.652 36.586 98.026 35.19 98.216 C 31.944 98.656 30.442 97.552 30.882 95.051 C 31.584 91.065 33.735 90.55 46.952 91.199 C 50.79 91.387 54.679 91.777 55.594 92.064 C 57.86 92.776 89.593 92.747 93.651 92.029 C 95.422 91.716 99.287 91.325 102.239 91.161 C 106.875 90.904 108.046 91.021 110.827 92.026 C 118.394 94.758 123.233 95.261 128.562 93.867 C 130.322 93.407 132.497 93.167 133.396 93.334 C 135.171 93.664 140.13 92.412 142.137 91.128 C 142.826 90.688 143.671 90.436 144.016 90.567 C 144.361 90.698 145.213 90.594 145.909 90.335 C 146.921 89.959 147.107 89.601 146.841 88.541 C 146.581 87.504 146.685 87.285 147.321 87.529 C 147.767 87.701 148.133 88.056 148.133 88.32 C 148.133 89.052 149.616 88.891 150.377 88.075 C 151.094 87.308 152.964 87.507 152.964 88.352 C 152.964 88.627 154.128 88.799 155.551 88.734 C 156.974 88.67 158.368 88.759 158.649 88.932 C 158.93 89.106 160.725 89.062 162.637 88.835 C 164.55 88.608 166.839 88.636 167.725 88.898 C 176.254 91.424 186.242 92.197 188.452 90.501 C 190.656 88.81 191.489 88.743 192.608 90.166 C 193.391 91.161 194.15 91.481 195.714 91.475 C 198.731 91.463 199.294 90.927 198.94 88.402 C 198.776 87.225 198.216 85.37 197.697 84.281 C 196.437 81.639 197.137 80.48 199.989 80.48 L 202.078 80.48 L 201.884 85.445 C 201.715 89.771 201.804 90.41 202.572 90.41 C 203.057 90.41 203.587 90.062 203.75 89.637 C 203.913 89.213 204.767 88.707 205.649 88.513 C 207.085 88.198 207.235 87.974 207.095 86.351 C 206.892 83.991 209.117 80.246 210.735 80.226 C 212.381 80.205 212.861 81.18 212.778 84.371 C 212.698 87.412 213.276 87.99 214.253 85.847 C 214.589 85.109 215.182 84.505 215.571 84.505 C 215.96 84.505 216.698 83.841 217.212 83.029 C 218.763 80.579 220.272 79.157 221.33 79.147 C 222.122 79.14 222.254 79.39 221.961 80.345 C 221.757 81.01 221.454 82.735 221.286 84.18 L 220.982 86.807 L 222.534 86.432 C 223.387 86.226 224.385 85.665 224.751 85.186 C 225.951 83.616 226.114 84.942 224.952 86.822 C 223.429 89.285 223.504 89.514 225.696 89.103 C 227.266 88.809 227.802 88.978 228.958 90.134 C 229.719 90.895 231.349 91.868 232.581 92.296 C 234.62 93.005 234.883 92.993 235.506 92.157 C 235.883 91.652 236.14 90.365 236.077 89.297 C 235.949 87.12 238.189 82.748 239.902 81.831 C 241.371 81.045 243.141 81.159 243.141 82.04 C 243.141 82.53 243.517 82.696 244.214 82.514 C 244.831 82.352 245.288 82.497 245.288 82.854 C 245.288 83.773 243.037 86.652 242.318 86.652 C 241.356 86.652 239.007 88.933 238.609 90.255 C 238.412 90.908 238.528 91.961 238.866 92.594 C 239.376 93.547 239.774 93.68 241.177 93.367 C 242.11 93.159 243.192 92.972 243.583 92.952 C 244.016 92.929 244.186 92.508 244.02 91.871 C 243.719 90.72 245.753 88.317 247.142 88.182 C 247.598 88.138 248.26 88.077 248.613 88.048 C 249.056 88.011 249.209 88.945 249.11 91.081 C 249.021 93.008 249.183 94.167 249.543 94.167 C 249.86 94.167 250.119 94.497 250.119 94.901 C 250.119 95.476 250.926 95.576 253.876 95.365 C 257.605 95.098 257.634 95.107 257.634 96.449 C 257.634 97.312 257.13 98.131 256.239 98.715 L 254.845 99.628 L 256.041 100.467 C 257.111 101.216 257.502 101.221 259.721 100.511 C 261.087 100.074 262.505 99.817 262.871 99.939 C 263.68 100.208 263.763 103.09 262.976 103.576 C 262.37 103.951 262.818 108.592 263.535 109.372 C 264.124 110.013 268.369 108.622 268.369 107.789 C 268.369 106.706 270.35 105.896 272.552 106.079 C 274.23 106.218 274.523 106.427 274.422 107.408 C 274.312 108.469 274.531 108.564 276.885 108.479 C 278.958 108.404 279.861 108.041 281.452 106.644 C 282.543 105.686 283.85 104.91 284.357 104.92 C 285.812 104.948 287.529 106.693 287.939 108.559 C 288.306 110.228 288.387 110.27 291.251 110.27 C 292.866 110.27 294.839 109.942 295.637 109.54 C 296.434 109.139 298.173 108.669 299.502 108.496 C 303.894 107.922 305.829 106.781 306.475 104.382 C 307.283 101.384 309.825 99.535 313.141 99.535 C 315.957 99.535 317.097 100.003 319.057 101.963 C 320.598 103.504 322.139 103.668 323.188 102.404 C 323.593 101.915 324.761 101.166 325.784 100.738 C 327.601 99.979 327.677 99.999 329.139 101.635 C 330.146 102.763 330.634 103.898 330.634 105.112 C 330.634 106.665 330.846 106.958 332.165 107.221 C 333.006 107.39 334.21 107.393 334.84 107.228 C 336.597 106.769 338.701 107.458 338.348 108.378 C 337.984 109.327 339.966 112.24 341.254 112.649 C 341.766 112.812 342.424 113.47 342.716 114.113 C 343.009 114.756 343.611 115.445 344.053 115.644 C 346.909 116.927 347.006 117.061 347.006 119.726 C 347.006 122.919 348.68 125.589 351.002 126.099 C 353.588 126.667 354.091 127.748 352.666 129.676 L 351.448 131.323 L 352.54 132.415 C 353.492 133.367 354.707 133.573 362.024 134.022 C 369.188 134.461 370.549 134.42 371.325 133.74 C 374.602 130.87 380.19 129.834 386.458 130.934 C 390.217 131.593 391.196 131.974 392.019 133.099 C 392.567 133.849 393.896 134.944 394.971 135.531 C 396.046 136.119 397.65 137.018 398.535 137.529 C 402.532 139.837 408.625 141.146 419.201 141.968 C 429.636 142.78 435.126 143.46 438.793 144.395 C 440.564 144.846 442.989 145.398 444.18 145.622 C 445.372 145.846 446.672 146.23 447.07 146.476 C 447.467 146.721 450.357 147.099 453.492 147.314 C 460.705 147.811 463.216 148.858 463.216 151.372 C 463.216 152.993 463.351 153.11 465.597 153.447 C 466.906 153.643 477.232 153.509 488.544 153.148 C 499.855 152.787 512.854 152.473 517.43 152.449 C 527.299 152.399 550.837 152.799 551.306 153.025 C 551.486 153.112 557.887 153.322 565.53 153.491 C 573.173 153.66 580.755 153.884 582.379 153.99 C 584.002 154.096 590.114 154.334 595.959 154.519 C 605.818 154.83 606.576 154.788 606.426 153.933 C 606.2 152.642 608.705 152.208 613.289 152.743 C 615.33 152.981 622.677 153.445 629.614 153.774 C 646.639 154.581 648.995 154.802 649.872 155.68 C 650.286 156.094 651.393 156.444 652.331 156.458 C 653.27 156.472 658.868 156.724 664.773 157.018 C 670.677 157.312 676.233 157.562 677.118 157.573 C 678.631 157.591 685.199 158.167 691.88 158.866 C 693.503 159.036 697.786 159.315 701.396 159.486 C 707.157 159.759 708.002 159.69 708.298 158.92 C 708.728 157.798 709.566 157.801 710.39 158.927 C 710.951 159.694 712.199 159.797 719.817 159.701 C 728.19 159.596 728.637 159.644 729.452 160.724 C 730.386 161.963 730.762 161.993 743.632 161.854 C 749.4 161.792 750.103 161.679 750.788 160.7 C 751.509 159.671 752.061 159.62 761.301 159.715 C 770.119 159.805 771.259 159.712 773.2 158.736 C 777.24 156.705 790.462 156.347 808.458 157.78 C 815.38 158.332 818.925 158.413 819.899 158.042 C 821.997 157.245 825.141 157.391 827.12 158.379 C 828.377 159.006 829.628 159.162 831.557 158.934 C 834.021 158.642 834.374 158.747 835.83 160.204 C 837.356 161.73 837.599 161.789 842.078 161.739 C 846.798 161.685 849.433 162.072 850.601 162.99 C 850.997 163.301 851.585 163.304 852.13 162.999 C 852.619 162.725 854.137 162.682 855.513 162.902 C 856.886 163.121 861.094 163.6 864.864 163.966 C 870.852 164.548 871.835 164.529 872.647 163.821 C 873.429 163.139 874.465 163.087 879.212 163.497 C 882.312 163.764 886.056 163.986 887.532 163.991 C 889.008 163.995 891.786 164.457 893.705 165.018 C 895.624 165.578 899.126 166.274 901.488 166.564 C 906.931 167.232 910.455 167.914 911.363 168.476 C 911.754 168.717 913.147 169.911 914.459 171.128 C 917.247 173.716 918.077 174.02 922.524 174.092 C 926.159 174.151 927.032 174.757 925.66 176.273 C 925.073 176.922 924.963 177.381 925.339 177.613 C 926.469 178.311 925.875 178.915 923.898 179.078 C 922.044 179.232 921.827 179.428 921.153 181.557 C 920.483 183.677 920.505 183.93 921.422 184.602 C 921.972 185.005 923.038 185.212 923.792 185.062 C 924.817 184.858 925.619 185.216 926.979 186.486 C 928.283 187.704 928.606 188.3 928.123 188.598 C 927.375 189.06 924.873 188.732 924.011 188.058 C 923.454 187.622 920.702 188.667 921.068 189.175 C 921.174 189.323 920.985 189.96 920.647 190.591 C 920.106 191.603 920.207 191.808 921.496 192.313 C 922.3 192.629 926.035 193.002 929.796 193.143 C 933.556 193.283 936.877 193.549 937.176 193.733 C 938.088 194.297 937.783 195.08 936.65 195.08 C 935.36 195.08 931.278 196.787 931.278 197.327 C 931.278 197.538 929.373 197.581 927.044 197.423 C 924.388 197.243 922.681 197.344 922.465 197.693 C 921.905 198.6 927.573 199.809 934.231 200.202 C 936.002 200.307 939.625 200.523 942.282 200.682 C 944.939 200.841 950.253 201.13 954.091 201.323 C 960.995 201.671 961.085 201.692 962.545 203.305 C 963.357 204.201 964.021 205.378 964.021 205.919 C 964.021 207.281 966.991 208.961 970.14 209.381 C 971.667 209.585 973.217 210.179 973.837 210.799 C 975.567 212.529 978.548 213.014 995.784 214.365 C 1002.561 214.896 1008.315 215.545 1008.57 215.807 C 1009.644 216.907 1009.628 218.979 1008.535 220.276 C 1007.469 221.54 1007.214 221.581 1001.213 221.467 C 995.871 221.366 995.086 221.457 995.634 222.118 C 995.984 222.54 996.855 223.033 997.569 223.212 C 998.282 223.391 999.515 224.139 1000.309 224.875 L 1001.752 226.212 L 999.915 226.212 C 998.099 226.212 998.08 226.236 998.28 228.335 C 998.464 230.267 998.351 230.492 997.03 230.823 C 996.192 231.034 994.245 230.817 992.422 230.31 C 990.686 229.828 988.586 229.433 987.755 229.433 C 986.29 229.433 984.955 230.258 984.955 231.164 C 984.955 231.78 987.499 232.705 990.032 233.009 C 992.616 233.32 992.803 233.426 993.16 234.792 C 993.424 235.802 993.187 235.874 989.602 235.882 C 984.872 235.892 983.242 236.643 986.63 237.252 C 987.923 237.484 989.538 237.612 990.219 237.537 C 990.899 237.461 992.046 237.787 992.768 238.259 C 993.49 238.732 994.08 239.01 994.08 238.876 C 994.08 238.742 994.865 238.88 995.825 239.182 C 996.784 239.484 999.5 240.061 1001.859 240.464 C 1005.506 241.087 1006.35 241.438 1007.495 242.804 C 1008.236 243.688 1009.506 244.569 1010.318 244.763 C 1011.13 244.957 1011.794 245.312 1011.794 245.551 C 1011.794 246.094 1009.006 246.727 1006.16 246.832 C 1004.978 246.875 1003.452 247.222 1002.769 247.602 C 1002.086 247.982 1000.794 248.216 999.896 248.122 C 998.999 248.028 998.233 248.072 998.194 248.22 C 998.096 248.588 999.994 251.291 1001.461 252.872 C 1003.245 254.794 1002.971 255.129 999.851 254.836 C 993.462 254.238 992.975 254.305 991.664 255.949 C 990.725 257.126 990.11 257.429 989.063 257.229 C 988.243 257.072 987.087 257.365 986.189 257.957 C 984.335 259.18 981.644 259.225 978.312 258.089 C 975.472 257.122 974.68 257.387 976.012 258.86 C 976.503 259.401 976.904 260.198 976.904 260.629 C 976.904 261.089 979.138 262.513 982.305 264.071 C 985.276 265.533 988.042 267.099 988.451 267.551 C 989.497 268.707 988.703 269.672 986.398 270.046 C 984.831 270.301 983.656 269.98 980.536 268.445 C 976.157 266.291 962.072 262.098 959.19 262.091 C 958.157 262.089 956.264 262.228 954.983 262.402 C 953.163 262.649 952.324 262.483 951.143 261.642 C 949.426 260.419 945.274 260.137 945.173 261.236 C 945.049 262.576 945.338 264.065 945.818 264.564 C 946.895 265.685 946.148 266 942.685 265.888 C 938.892 265.765 938.471 265.858 938.838 266.739 C 939.267 267.77 945.088 272.374 945.963 272.374 C 946.448 272.374 946.845 272.607 946.845 272.891 C 946.845 273.175 947.87 274.393 949.123 275.597 C 950.999 277.4 951.259 277.877 950.599 278.305 C 949.015 279.332 947.469 279.425 945.856 278.591 C 943.739 277.496 943.823 277.472 943.168 279.352 C 942.46 281.384 941.098 281.428 937.451 279.538 C 929.394 275.362 929.709 275.477 928.813 276.373 C 928.355 276.831 928.219 277.205 928.511 277.205 C 928.998 277.205 932.889 282.104 932.889 282.718 C 932.889 283.55 928.928 284.76 927.362 284.406 C 926.416 284.193 924.676 283.949 923.495 283.864 C 922.314 283.779 920.437 283.548 919.323 283.35 C 918.107 283.133 916.66 283.254 915.7 283.652 C 914.398 284.191 913.936 284.177 913.214 283.577 C 912.726 283.173 912.27 282.962 912.2 283.11 C 912.016 283.502 905.513 279.764 905.513 279.265 C 905.513 278.818 901.118 276.668 900.204 276.668 C 899.908 276.668 898.53 276.065 897.142 275.326 C 893.477 273.378 890.517 273.497 888.332 275.682 C 887.098 276.917 885.901 277.496 883.947 277.805 C 880.453 278.357 879.406 279.158 880.54 280.411 C 880.99 280.908 881.359 281.703 881.359 282.177 C 881.359 283.174 879.663 283.03 876.394 281.756 C 874.173 280.89 873.952 280.994 875.25 282.292 C 875.728 282.77 875.976 283.304 875.8 283.479 C 875.313 283.966 869.407 281.251 866.294 279.11 C 863.089 276.905 861.211 276.585 861.665 278.321 C 861.872 279.114 861.746 279.356 861.229 279.158 C 860.829 279.004 859.578 278.725 858.45 278.537 C 857.322 278.349 855.191 277.689 853.715 277.07 C 851.729 276.237 849.647 275.905 845.705 275.796 C 842.775 275.715 839.692 275.364 838.853 275.016 C 837.854 274.602 835.252 274.47 831.322 274.631 C 828.02 274.768 824.233 274.676 822.907 274.428 C 821.39 274.145 820.296 274.178 819.956 274.518 C 819.176 275.298 816.299 275.181 814.146 274.282 C 812.812 273.725 809.498 273.459 802.406 273.342 C 792.99 273.187 792.448 273.234 790.913 274.341 C 789.714 275.207 787.865 275.669 783.667 276.151 C 780.567 276.507 777.033 277.131 775.812 277.538 C 774.592 277.946 770.848 278.412 767.492 278.575 C 764.137 278.738 760.787 278.986 760.049 279.126 C 759.311 279.266 756.108 279.603 752.931 279.875 C 749.754 280.147 746.975 280.481 746.756 280.616 C 744.449 282.042 699.337 281.917 680.607 280.432 C 677.212 280.163 672.261 279.787 669.604 279.596 C 662.988 279.121 661.037 278.958 656.989 278.544 L 653.501 278.187 L 655.111 279.342 L 656.721 280.498 L 652.547 280.222 C 649.941 280.05 648.494 280.141 648.693 280.464 C 648.868 280.748 649.237 280.841 649.512 280.671 C 649.787 280.501 650.012 280.578 650.012 280.841 C 650.012 281.109 644.508 281.307 637.532 281.291 C 630.668 281.275 621.67 281.57 617.537 281.947 C 607.932 282.823 598.243 283.43 582.11 284.167 C 567.406 284.838 566.96 284.883 563.323 286.05 C 560.942 286.815 555.77 286.903 517.429 286.832 C 458.119 286.723 446.975 286.461 431.01 284.801 C 428.205 284.51 423.857 284.105 421.348 283.902 C 418.839 283.698 416.64 283.445 416.462 283.338 C 415.82 282.953 402.798 282.962 401.582 283.348 C 400.853 283.579 400.45 284.038 400.61 284.455 C 400.981 285.424 399.846 285.775 397.377 285.453 C 395.665 285.231 387.653 285.203 376.528 285.382 C 375.347 285.401 371.724 285.387 368.476 285.352 C 365.229 285.316 361.787 285.396 360.827 285.529 C 358.875 285.801 358.627 285.452 360.022 284.393 C 360.878 283.744 360.834 283.679 359.524 283.663 C 358.733 283.654 357.706 283.267 357.242 282.803 C 356.755 282.315 356.399 282.215 356.399 282.566 C 356.399 282.9 356.174 283.034 355.899 282.864 C 355.624 282.694 355.244 282.807 355.054 283.115 C 354.464 284.069 350.903 283.541 350.62 282.457 C 350.482 281.93 350.028 281.499 349.61 281.499 C 349.192 281.499 348.729 281.183 348.581 280.798 C 348.433 280.412 347.358 280.04 346.191 279.971 C 344.359 279.863 344.117 279.977 344.41 280.807 C 344.896 282.181 346.801 284.183 347.623 284.183 C 348.539 284.183 350.15 286.658 349.704 287.38 C 349.513 287.688 349.024 287.94 348.616 287.94 C 347.164 287.94 347.218 289.082 348.825 292.38 C 349.72 294.219 350.434 295.844 350.41 295.992 C 350.386 296.139 350.984 297.367 351.739 298.719 C 352.53 300.136 353.089 301.956 353.058 303.013 C 353.028 304.023 352.905 304.554 352.784 304.195 C 352.422 303.12 346.995 300.284 343.252 299.214 L 339.757 298.214 L 339.153 299.342 C 338.67 300.244 338.722 300.596 339.414 301.102 C 340.368 301.799 340.051 302.511 338.972 302.097 C 338.591 301.951 337.793 302.678 337.164 303.745 C 336.14 305.48 335.819 305.654 333.636 305.654 C 332.315 305.654 331.084 305.896 330.901 306.192 C 330.493 306.853 327.989 306.312 326.834 305.313 C 324.529 303.319 323.434 305.03 323.605 310.356 C 323.689 312.964 323.527 313.788 322.883 314.036 C 322.426 314.211 322.154 314.519 322.278 314.72 C 322.679 315.369 320.185 315.125 319.63 314.461 C 319.045 313.76 313.054 311.548 311.811 311.574 C 311.388 311.583 312.129 312.542 313.457 313.705 C 316.265 316.164 315.641 316.443 311.814 314.442 C 308.897 312.917 304.333 312.086 304.333 313.08 C 304.333 313.403 304.836 313.937 305.452 314.267 C 307.069 315.132 306.441 315.389 304.297 314.739 C 303.283 314.431 300.786 314.121 298.748 314.049 C 295.616 313.939 294.756 314.114 293.189 315.177 C 291.4 316.391 291.158 316.416 286.314 315.876 C 279.487 315.114 279.537 315.11 279.738 316.501 C 279.846 317.249 280.403 317.803 281.246 318 C 283.787 318.596 281.321 319.166 277.824 318.792 C 274.67 318.454 274.406 318.508 274.132 319.556 C 273.97 320.176 273.961 321.158 274.113 321.739 C 274.35 322.644 274.71 322.75 276.649 322.484 C 278.705 322.203 279.038 322.329 280.348 323.886 C 281.315 325.034 281.788 326.219 281.788 327.491 C 281.788 329.368 281.771 329.382 279.775 329.121 C 278.668 328.976 277.219 328.68 276.555 328.465 C 275.515 328.128 275.347 328.264 275.347 329.443 C 275.347 330.196 275.107 331.444 274.813 332.216 C 274.52 332.988 274.191 337.246 274.083 341.677 C 273.972 346.227 273.645 349.975 273.332 350.289 C 272.401 351.219 270.836 350.547 270.285 348.98 C 269.928 347.966 269.967 346.735 270.408 345.086 C 270.763 343.76 271.053 341.725 271.053 340.563 C 271.053 337.938 270.037 332.988 269.314 332.09 C 269.017 331.721 268.985 331.415 269.242 331.411 C 269.5 331.406 269.383 331.195 268.983 330.941 C 268.382 330.561 268.411 330.242 269.152 329.112 C 269.705 328.268 269.984 326.957 269.879 325.69 C 269.723 323.787 269.598 323.648 268.191 323.797 C 267.052 323.918 266.603 323.694 266.395 322.902 C 266.243 322.32 265.468 321.575 264.671 321.245 C 262.592 320.384 259.332 321.813 258.53 323.936 C 258.203 324.804 257.565 325.524 257.113 325.536 C 256.659 325.547 256.974 325.927 257.818 326.385 C 259.112 327.086 264.074 331.794 264.074 332.32 C 264.074 332.972 260.671 332.259 258.481 331.148 C 255.403 329.586 252.777 329.29 253.89 330.63 C 254.831 331.764 253.176 332.986 250.655 333.02 C 249.622 333.034 248.427 333.267 247.999 333.537 C 247.5 333.853 246.567 333.755 245.384 333.261 C 243.4 332.431 241.887 332.211 242.929 332.903 C 243.255 333.12 243.689 334.203 243.892 335.31 C 244.119 336.544 244.565 337.323 245.043 337.323 C 245.473 337.323 245.824 337.806 245.824 338.397 C 245.824 338.993 246.182 339.47 246.629 339.47 C 247.072 339.47 247.434 339.833 247.434 340.276 C 247.434 340.771 246.931 341.081 246.127 341.081 C 245.1 341.081 244.493 341.684 243.309 343.884 C 242.478 345.425 240.974 347.239 239.966 347.915 C 238.959 348.59 237.872 349.665 237.551 350.303 C 236.848 351.701 236.272 351.896 234.702 351.267 Z M 229.088 337.416 C 229.202 336.642 228.976 336.25 228.417 336.25 C 227.869 336.25 227.574 336.735 227.574 337.637 C 227.574 339.318 228.835 339.134 229.088 337.416 Z M 241.407 330.245 C 241.075 329.25 239.92 329.084 239.92 330.032 C 239.92 330.5 240.302 330.882 240.77 330.882 C 241.237 330.882 241.524 330.595 241.407 330.245 Z M 218.053 317.038 C 217.983 316.386 218.136 315.853 218.393 315.853 C 219.033 315.853 219.456 313.392 218.955 312.582 C 218.644 312.079 218.101 312.138 216.629 312.837 C 215.078 313.573 214.804 313.925 215.205 314.666 C 215.477 315.171 215.844 316.265 216.02 317.096 C 216.416 318.967 218.255 318.915 218.053 317.038 Z M 301.882 311.078 C 302.221 310.529 300.976 309.948 299.457 309.948 C 298.891 309.948 298.428 310.311 298.428 310.753 C 298.428 311.642 301.363 311.917 301.882 311.078 Z M 311.847 308.005 C 311.847 307.822 311.183 306.626 310.371 305.347 C 308.971 303.143 307.711 302.097 307.141 302.666 C 306.608 303.199 307.6 304.693 308.672 304.974 C 309.44 305.175 309.705 305.576 309.525 306.266 C 309.372 306.851 309.633 307.483 310.152 307.786 C 311.189 308.391 311.847 308.476 311.847 308.005 Z M 453.017 278.605 C 453.017 278.489 452.655 278.255 452.212 278.085 C 451.769 277.915 451.407 278.01 451.407 278.296 C 451.407 278.582 451.769 278.816 452.212 278.816 C 452.655 278.816 453.017 278.721 453.017 278.605 Z M 456.902 278.436 C 456.235 278.308 455.269 278.313 454.755 278.447 C 454.242 278.581 454.788 278.686 455.969 278.68 C 457.15 278.674 457.57 278.564 456.902 278.436 Z M 653.232 278.296 C 653.232 278.01 652.87 277.915 652.427 278.085 C 651.984 278.255 651.622 278.489 651.622 278.605 C 651.622 278.721 651.984 278.816 652.427 278.816 C 652.87 278.816 653.232 278.582 653.232 278.296 Z M 449.938 277.901 C 449.278 277.774 448.07 277.77 447.254 277.894 C 446.438 278.017 446.978 278.122 448.455 278.126 C 449.931 278.13 450.598 278.029 449.938 277.901 Z M 349.806 276.317 C 350.163 275.247 346.639 274.311 342.826 274.462 C 341.52 274.514 341.401 274.653 341.888 275.561 C 342.682 277.046 349.351 277.683 349.806 276.317 Z M 850.962 166.52 C 850.818 166.286 850.216 166.094 849.626 166.094 C 849.036 166.094 848.692 166.32 848.863 166.597 C 849.034 166.873 849.635 167.065 850.199 167.022 C 850.764 166.98 851.107 166.753 850.962 166.52 Z M 831.759 163.641 C 837.324 162.023 834.172 161.457 828.353 163.029 C 827.098 163.367 826.071 163.834 826.071 164.064 C 826.071 164.74 828.634 164.549 831.759 163.641 Z M 360.282 160.816 C 360.597 160.501 360.594 160.192 360.272 159.995 C 359.555 159.552 352.637 160.253 352.637 160.768 C 352.637 161.727 359.326 161.768 360.278 160.816 Z M 375.722 159.653 C 375.722 159.358 374.756 159.116 373.575 159.116 C 372.394 159.116 371.428 159.358 371.428 159.653 C 371.428 159.948 372.394 160.19 373.575 160.19 C 374.756 160.19 375.722 159.948 375.722 159.653 Z M 373.872 157.015 C 373.705 156.746 371.887 155.865 369.83 155.058 C 366.752 153.85 365.947 153.711 365.271 154.272 C 363.284 155.922 364.478 156.775 369.281 157.136 C 370.61 157.236 372.254 157.361 372.936 157.412 C 373.618 157.464 374.039 157.285 373.872 157.015 Z M 354.161 156.397 C 355.169 156.357 349.6 154.728 348.347 154.695 C 345.551 154.624 344.59 154.882 344.59 155.702 C 344.59 156.452 345.065 156.538 347.81 156.289 C 349.656 156.122 351.168 156.22 351.353 156.52 C 351.531 156.807 352.034 156.905 352.471 156.737 C 352.908 156.57 353.669 156.416 354.161 156.397 Z M 393.436 156.464 C 393.436 156.186 393.194 155.81 392.899 155.627 C 392.604 155.445 392.362 154.831 392.362 154.264 C 392.362 153.143 394.521 152.287 395.626 152.97 C 395.979 153.188 397.231 153.448 398.409 153.548 C 399.586 153.648 400.835 153.967 401.185 154.257 C 402.163 155.069 422.587 156.741 422.824 156.028 C 422.952 155.646 424.439 155.536 427.148 155.707 C 430.956 155.947 431.197 155.902 430.239 155.129 C 428.992 154.122 428.763 152.352 429.771 151.516 C 430.609 150.82 437.499 151.238 439.833 152.126 C 440.628 152.428 444.07 152.675 447.482 152.675 C 452.935 152.675 453.604 152.578 453.017 151.87 C 452.65 151.427 451.91 151.065 451.373 151.065 C 450.836 151.065 450.23 150.796 450.027 150.467 C 449.811 150.117 448.835 149.979 447.676 150.134 C 446.526 150.288 445.147 150.097 444.391 149.678 C 443.673 149.281 441.932 148.947 440.52 148.937 C 439.109 148.926 436.572 148.472 434.884 147.928 C 431.025 146.684 417.817 146.338 413.77 147.375 C 411.537 147.948 410.746 147.922 408.592 147.211 C 407.194 146.748 404.963 146.43 403.634 146.502 C 402.189 146.581 400.237 146.222 398.774 145.608 C 396.354 144.592 396.306 144.593 393.943 145.664 C 390.898 147.046 389.384 147.039 385.293 145.623 C 382.53 144.667 381.695 144.577 380.288 145.086 C 377.892 145.953 376.163 145.848 373.414 144.669 C 370.848 143.569 369.286 141.837 369.273 140.076 C 369.251 137.173 368.812 137.099 355.877 137.813 C 348.532 138.218 346.633 138.542 348.243 139.116 C 348.629 139.253 349.524 139.945 350.232 140.653 C 351.829 142.249 352.347 142.248 355.154 140.644 C 358.091 138.964 358.596 139.574 356.074 141.753 C 354.146 143.419 354.108 143.52 354.933 144.779 C 355.447 145.562 356.496 146.198 357.569 146.375 C 358.549 146.537 360.96 147.417 362.927 148.33 C 364.893 149.244 366.891 149.991 367.365 149.991 C 368.332 149.991 372.728 152.159 376 154.25 C 377.185 155.007 378.635 155.915 379.22 156.267 C 380.51 157.041 393.436 157.221 393.436 156.464 Z M 387.84 152.268 C 387.052 151.48 387.716 151.065 389.768 151.065 C 390.998 151.065 391.876 151.193 391.719 151.35 C 391.207 151.862 388.156 152.584 387.84 152.268 Z M 343.811 139.845 C 344.092 139.578 344.804 139.236 345.395 139.084 C 345.985 138.932 345.28 138.848 343.827 138.898 C 342.258 138.951 341.095 139.26 340.964 139.658 C 340.707 140.44 343.026 140.591 343.811 139.845 Z M 336.183 128.964 C 336.852 127.904 336.285 126.373 335.223 126.373 C 334.777 126.373 334.263 126.963 334.082 127.685 C 333.501 130.002 334.965 130.894 336.183 128.964 Z M 334.969 122.24 C 335.702 120.311 335.4 120.265 333.328 121.995 C 332.248 122.897 331.683 123.753 331.918 124.132 C 332.496 125.068 334.325 123.933 334.969 122.24 Z M 139.276 122.079 C 139.093 121.784 138.415 121.546 137.768 121.551 C 136.812 121.558 136.742 121.656 137.397 122.079 C 138.454 122.763 139.698 122.763 139.276 122.079 Z M 142.765 110.737 C 145.476 109.094 146.425 107.357 144.433 107.687 C 143.874 107.779 142.917 107.403 142.307 106.851 C 141.391 106.024 140.746 105.917 138.626 106.243 C 136.432 106.58 136.232 106.705 137.263 107.095 C 138.516 107.569 138.65 107.931 138.487 110.404 C 138.407 111.62 138.61 111.88 139.638 111.879 C 140.324 111.878 141.731 111.364 142.765 110.737 Z M 180.774 105.649 L 180.607 103.024 L 175.508 102.441 C 169.755 101.782 169.077 101.876 169.445 103.284 C 169.636 104.013 170.414 104.377 172.352 104.643 C 173.808 104.843 175.394 105.406 175.878 105.894 C 177.728 107.76 180.03 109.183 180.477 108.736 C 180.732 108.481 180.865 107.092 180.774 105.649 Z M 166.919 102.249 C 166.919 101.534 164.71 100.072 163.63 100.072 C 162.858 100.072 162.817 100.268 163.347 101.409 C 163.787 102.358 164.396 102.748 165.443 102.751 C 166.255 102.753 166.919 102.528 166.919 102.249 Z M 135.518 101.682 C 135.336 101.387 134.778 101.149 134.279 101.153 C 133.497 101.16 133.482 101.233 134.176 101.682 C 135.228 102.361 135.938 102.361 135.518 101.682 Z M 207.281 343.496 C 207.425 343.201 207.099 342.537 206.555 342.02 C 206.011 341.504 205.567 341.328 205.567 341.63 C 205.567 341.932 204.963 341.784 204.225 341.3 C 203.487 340.816 202.883 340.674 202.883 340.983 C 202.883 341.292 202.339 341.715 201.675 341.922 C 201.011 342.13 200.318 342.531 200.135 342.815 C 199.945 343.111 198.914 342.777 197.72 342.032 C 196.574 341.318 195.214 340.578 194.697 340.388 C 194.18 340.197 193.758 339.671 193.758 339.219 C 193.758 338.767 193.516 338.397 193.221 338.397 C 192.926 338.397 192.684 338.141 192.684 337.829 C 192.684 337.516 192.892 337.388 193.145 337.545 C 193.548 337.794 193.578 336.586 193.211 334.908 C 192.961 333.764 193.282 333.115 194.993 331.301 C 196.451 329.755 197.286 329.357 199.714 329.054 C 202.801 328.668 205.585 329.536 205.93 330.991 C 207.004 335.522 207.101 337.529 206.274 338.134 C 205.529 338.679 205.653 338.817 207.165 339.119 C 208.812 339.449 208.9 339.578 208.576 341.198 C 208.386 342.149 207.958 343.175 207.625 343.48 C 207.252 343.821 207.12 343.828 207.282 343.496 Z M 166.382 341.297 C 166.382 340.341 167.553 336.539 169.225 332.061 C 169.93 330.172 170.528 329.306 171.002 329.488 C 171.395 329.639 171.882 329.494 172.084 329.166 C 172.323 328.779 172.205 328.722 171.75 329.004 C 171.295 329.285 171.177 329.228 171.416 328.842 C 171.783 328.247 173.375 328.539 173.345 329.195 C 173.335 329.385 172.86 331.231 172.287 333.298 C 171.714 335.364 171.238 337.572 171.229 338.203 C 171.208 339.757 169.655 341.432 167.859 341.84 C 166.714 342.1 166.382 341.978 166.382 341.297 Z M 167.724 340.544 C 167.542 340.249 167.286 340.007 167.156 340.007 C 167.026 340.007 166.919 340.249 166.919 340.544 C 166.919 340.839 167.175 341.081 167.488 341.081 C 167.8 341.081 167.907 340.839 167.724 340.544 Z M 185.026 330.193 C 185.391 327.066 185.731 326.003 186.259 326.329 C 186.545 326.507 186.78 326.396 186.78 326.083 C 186.78 325.77 186.44 325.515 186.025 325.515 C 185.512 325.515 185.369 325.137 185.578 324.336 C 185.872 323.21 185.905 323.204 186.295 324.201 C 186.59 324.953 186.734 325.02 186.81 324.441 C 186.868 323.998 187.118 325.202 187.366 327.117 C 187.834 330.74 187.58 331.499 185.809 331.77 C 184.993 331.894 184.859 331.623 185.026 330.193 Z M 88.842 323.405 C 88.445 322.762 89.455 322.126 90.17 322.568 C 90.77 322.939 90.376 323.904 89.625 323.904 C 89.364 323.904 89.012 323.679 88.842 323.405 Z M 130.956 318.594 C 130.956 318.33 131.338 317.968 131.805 317.789 C 133.118 317.285 133.291 317.394 132.566 318.268 C 131.826 319.161 130.956 319.336 130.956 318.594 Z M 147.059 316.658 C 147.426 316.215 147.848 315.853 147.995 315.853 C 148.143 315.853 147.963 316.215 147.596 316.658 C 147.228 317.101 146.807 317.463 146.659 317.463 C 146.511 317.463 146.691 317.101 147.059 316.658 Z M 136.05 315.844 C 135.76 315.375 135.529 314.448 135.049 311.827 C 134.995 311.532 134.763 310.988 134.532 310.619 C 134.258 310.18 134.448 309.926 135.084 309.885 C 141.466 309.469 141.922 309.477 141.016 309.999 C 140.497 310.298 139.838 310.398 139.551 310.221 C 139.264 310.044 138.526 310.168 137.91 310.498 C 137.092 310.935 136.941 311.278 137.35 311.77 C 137.739 312.239 137.726 312.625 137.307 313.044 C 136.863 313.488 137.007 313.567 137.856 313.345 C 139.165 313.003 139.206 313.112 138.483 315.013 C 137.954 316.406 136.668 316.845 136.049 315.844 Z M 739.797 310.698 C 739.975 310.519 740.438 310.5 740.826 310.655 C 741.254 310.826 741.127 310.954 740.502 310.979 C 739.936 311.002 739.619 310.876 739.797 310.697 Z M 51.251 309.42 C 51.066 309.12 51.291 308.875 51.751 308.875 C 52.694 308.875 52.832 309.197 52.088 309.657 C 51.813 309.827 51.436 309.72 51.251 309.42 Z M 353.521 303.775 C 353.351 303.333 353.446 302.97 353.732 302.97 C 354.018 302.97 354.252 303.333 354.252 303.775 C 354.252 304.218 354.157 304.581 354.041 304.581 C 353.925 304.581 353.691 304.218 353.521 303.775 Z M 143.253 302.573 C 142.098 299.537 143.74 296.231 146.665 295.701 C 147.848 295.486 148.056 295.686 148.365 297.334 C 148.576 298.459 149.031 299.213 149.499 299.213 C 150.601 299.213 150.519 299.396 148.313 301.853 C 145.929 304.508 144.088 304.77 143.253 302.573 Z M 51.203 300.754 C 50.741 300.007 51.635 298.904 54.096 297.185 C 57.021 295.142 64.362 291.484 64.753 291.876 C 65.149 292.272 63.909 294.382 63.281 294.382 C 62.983 294.382 61.578 295.469 60.158 296.797 C 58.737 298.126 57.331 299.213 57.033 299.213 C 56.734 299.213 55.891 299.684 55.159 300.259 C 53.886 301.261 51.686 301.536 51.203 300.754 Z M 68.809 298.59 C 68.923 298.248 69.807 297.543 70.775 297.025 C 71.742 296.506 72.937 295.748 73.43 295.34 C 74.653 294.329 79.703 291.698 80.421 291.698 C 81.88 291.698 80.109 293.256 75.921 295.656 C 73.41 297.095 71.225 298.484 71.065 298.743 C 70.629 299.448 68.569 299.309 68.809 298.59 Z M 351.568 285.281 C 351.568 285 352.458 284.883 353.545 285.022 C 356.322 285.378 356.462 285.794 353.804 285.794 C 352.574 285.794 351.568 285.563 351.568 285.281 Z M 12.151 284.899 C 11.954 284.702 11.793 283.893 11.793 283.101 C 11.793 281.838 12.194 281.503 15.062 280.373 C 16.86 279.664 18.56 278.661 18.838 278.145 C 19.117 277.628 19.957 277.205 20.704 277.205 C 22.418 277.205 23.287 276.734 27.644 273.435 C 30.943 270.939 33.338 270.118 34.035 271.246 C 34.696 272.316 33.565 275.115 31.726 276.962 C 29.393 279.304 26.161 281.055 23.649 281.338 C 22.642 281.451 20.324 282.379 18.499 283.4 C 15.377 285.146 12.967 285.715 12.151 284.899 Z M 657.671 280.638 C 657.85 280.46 658.313 280.441 658.7 280.596 C 659.128 280.768 659.001 280.895 658.376 280.92 C 657.81 280.944 657.493 280.817 657.671 280.639 Z M 50.005 278.227 C 50.246 277.484 54.654 275.722 56.479 275.638 C 59.346 275.507 55.262 278.087 51.683 278.667 C 50.182 278.911 49.813 278.814 50.005 278.227 Z M 92.508 273.731 C 92.07 272.589 92.329 272.391 94.783 271.992 L 96.854 271.656 L 95.996 272.955 C 94.964 274.516 92.979 274.958 92.508 273.731 Z M 90.161 268.124 C 90.161 267.669 93.412 265.396 94.063 265.396 C 94.221 265.396 93.672 266.121 92.845 267.007 C 91.365 268.591 90.161 269.092 90.161 268.124 Z M 29.68 245.92 C 29.526 245.669 29.483 245.401 29.587 245.322 C 32.507 243.112 35.411 242.651 35.411 244.397 C 35.411 246.051 30.558 247.34 29.681 245.92 Z M 81.573 212.859 C 81.573 212.305 81.956 211.533 82.424 211.144 C 82.893 210.756 83.792 209.34 84.423 207.998 C 85.919 204.815 90.886 199.914 93.93 198.619 C 95.252 198.056 97.783 196.943 99.555 196.145 C 101.326 195.347 104.343 194.52 106.259 194.309 C 108.175 194.097 110.031 193.685 110.382 193.393 C 110.992 192.887 116.854 191.79 119.668 191.654 C 120.606 191.609 121.195 192.007 121.684 193.013 C 123.024 195.773 121.428 196.858 113.511 198.564 C 106.354 200.107 103.172 201.331 101.023 203.368 C 99.92 204.414 98.792 205.271 98.516 205.274 C 98.24 205.276 96.892 206.224 95.521 207.38 C 94.151 208.536 92.121 209.861 91.011 210.325 C 89.9 210.789 88.27 211.775 87.388 212.517 C 85.344 214.237 81.573 214.459 81.573 212.859 Z M 98.348 192.528 C 95.901 192.109 96.392 187.648 98.903 187.49 C 104.402 187.143 107.78 188.832 104.251 190.164 C 103.44 190.471 102.051 191.175 101.165 191.728 C 100.279 192.282 99.012 192.642 98.348 192.528 Z M 104.779 182.197 C 105.147 181.607 105.911 181.124 106.477 181.124 C 107.47 181.124 107.472 181.159 106.533 182.197 C 105.998 182.788 105.234 183.271 104.835 183.271 C 104.242 183.271 104.232 183.072 104.779 182.197 Z M 98.213 178.959 C 98.213 178.078 100.386 177.511 102.748 177.776 C 105.311 178.064 105.709 178.321 104.639 178.998 C 103.556 179.682 98.213 179.65 98.213 178.959 Z M 121.911 173.285 C 121.512 172.834 121.323 172.327 121.491 172.159 C 121.906 171.745 125.051 173.083 125.051 173.674 C 125.051 174.457 122.688 174.164 121.911 173.285 Z M 135.207 173.289 C 134.586 172.541 134.658 172.456 135.77 172.618 C 136.471 172.72 137.144 173.106 137.265 173.475 C 137.584 174.44 136.048 174.302 135.207 173.289 Z M 108.39 165.8 C 107.263 164.442 109.03 161.387 111.503 160.415 C 113.834 159.5 114.073 159.364 116.992 157.284 C 118.645 156.107 119.34 155.874 119.804 156.338 C 120.269 156.802 120.109 157.287 119.158 158.298 C 118.075 159.452 117.983 159.832 118.507 160.983 C 119.375 162.888 118.946 163.485 115.493 165.174 C 112.107 166.83 109.44 167.065 108.39 165.8 Z M 52.876 162.905 C 52.737 162.681 53.22 162.18 53.948 161.79 C 54.676 161.4 55.271 160.914 55.271 160.71 C 55.271 160.506 55.827 160.445 56.507 160.575 C 57.187 160.705 59.177 160.327 60.93 159.735 C 62.684 159.143 64.221 158.761 64.347 158.887 C 64.648 159.189 64.603 159.215 61.176 160.656 C 57.246 162.309 53.187 163.409 52.876 162.905 Z M 878.496 160.905 C 877.878 160.288 878.105 159.653 878.943 159.653 C 879.386 159.653 879.748 160.015 879.748 160.458 C 879.748 161.296 879.114 161.523 878.496 160.905 Z M 43.999 159.416 C 43.999 159.286 44.241 159.03 44.536 158.848 C 44.831 158.665 45.073 158.772 45.073 159.084 C 45.073 159.397 44.831 159.653 44.536 159.653 C 44.241 159.653 43.999 159.546 43.999 159.416 Z M 34.709 153.374 C 33.241 152.991 33.857 151.467 35.677 150.98 C 36.571 150.741 38.12 150.782 39.166 151.073 C 40.2 151.36 42.617 151.6 44.536 151.606 C 48.092 151.618 49.758 152.144 49.184 153.073 C 48.863 153.593 36.533 153.849 34.709 153.374 Z M 72.206 147.904 C 73.018 147.145 75.132 146.646 75.132 147.213 C 75.132 147.8 73.854 148.381 72.565 148.381 C 72.034 148.381 71.895 148.195 72.206 147.904 Z M 76.528 146.316 C 77.531 145.144 80.499 144.681 80.499 145.697 C 80.499 145.992 80.318 146.264 80.097 146.302 C 79.875 146.34 79.211 146.434 78.621 146.512 C 78.03 146.589 77.095 146.837 76.542 147.062 C 75.565 147.461 75.564 147.441 76.527 146.316 Z M 431.299 139.606 C 430.482 139.008 430.441 138.801 431.062 138.414 C 432.053 137.796 433.743 137.549 434.635 137.892 C 435.179 138.1 435.211 138.425 434.771 139.248 C 434.102 140.498 432.716 140.642 431.299 139.606 Z M 121.696 138.885 C 121.18 138.75 120.757 138.408 120.757 138.124 C 120.757 137.813 121.184 137.836 121.831 138.182 C 122.421 138.498 122.904 138.869 122.904 139.006 C 122.904 139.143 122.844 139.227 122.77 139.193 C 122.696 139.159 122.213 139.02 121.696 138.885 Z M 101.165 134.474 C 98.855 134.2 98.456 133.978 98.3 132.875 C 97.89 129.976 101.236 129.935 104.272 132.801 C 106.803 135.189 106.873 135.151 101.165 134.474 Z M 415.712 134.61 C 415.121 134.485 414.095 134.267 413.43 134.125 C 412.577 133.943 412.223 133.482 412.223 132.555 C 412.223 130.965 413.608 130.13 416.248 130.13 C 420.023 130.13 421.603 132.359 419.081 134.126 C 417.869 134.975 417.613 135.012 415.712 134.61 Z M 124.246 133.351 C 124.429 133.056 125.167 132.814 125.888 132.814 C 126.609 132.814 127.198 133.056 127.198 133.351 C 127.198 133.646 126.459 133.888 125.556 133.888 C 124.598 133.888 124.053 133.664 124.246 133.351 Z M 403.662 122.381 C 403.14 121.752 403.322 121.454 404.643 120.77 C 406.371 119.877 408.249 119.672 408.639 120.334 C 408.769 120.556 408.671 121.28 408.42 121.945 C 408.069 122.872 407.538 123.152 406.133 123.152 C 405.126 123.152 404.014 122.805 403.662 122.381 Z M 396.938 121.432 C 396.356 121.094 395.027 120.632 393.986 120.406 C 392.945 120.18 390.765 119.524 389.142 118.948 C 387.518 118.372 384.929 117.773 383.389 117.617 C 381.849 117.461 380.359 117.191 380.078 117.018 C 379.139 116.437 362.067 116.311 359.527 116.866 C 355.255 117.798 352.414 115.692 352.984 112.014 C 353.14 111.008 352.924 110.807 351.684 110.807 C 350.866 110.807 349.632 110.411 348.942 109.928 C 347.859 109.169 347.724 108.722 347.957 106.653 C 348.122 105.193 347.947 103.719 347.512 102.878 C 347.012 101.914 346.956 101.201 347.328 100.507 C 347.811 99.604 347.674 99.539 345.822 99.787 C 344.701 99.938 342.577 100.173 341.101 100.31 C 339.625 100.447 337.02 100.726 335.312 100.929 C 332.647 101.246 332.103 101.158 331.48 100.305 C 330.638 99.154 330.853 98.301 332.57 95.975 L 333.812 94.294 L 331.509 93.65 C 328.78 92.886 324.522 93.522 321.349 95.167 C 319.9 95.919 318.891 96.105 317.86 95.811 C 317.062 95.584 313.827 95.456 310.672 95.528 C 304.591 95.665 304.232 95.793 299.863 99.367 C 298.191 100.734 296.011 100.952 293.851 99.967 C 292.76 99.47 292.213 99.47 291.417 99.967 C 290.853 100.32 290.03 100.608 289.59 100.608 C 288.93 100.608 288.897 100.371 289.4 99.266 C 289.797 98.396 290.449 97.924 291.257 97.924 C 292.173 97.924 292.596 97.534 292.853 96.448 C 293.597 93.318 294.803 92.757 301.622 92.372 C 303.584 92.261 305.174 91.91 305.29 91.561 C 305.403 91.223 305.83 90.946 306.239 90.946 C 306.679 90.946 306.856 91.275 306.673 91.751 C 306.213 92.95 308.251 92.774 309.774 91.483 C 310.947 90.49 310.971 90.367 310.102 89.846 C 308.864 89.103 308.909 87.899 310.201 87.208 C 311.506 86.509 315.971 86.479 316.395 87.165 C 316.57 87.448 317.076 87.539 317.52 87.369 C 317.965 87.198 319.346 87.426 320.59 87.875 C 324.577 89.315 327.887 89.896 330.094 89.543 C 331.998 89.238 332.244 89.03 332.244 87.723 C 332.244 86.911 331.858 85.927 331.387 85.535 C 330.604 84.885 330.606 84.797 331.418 84.512 C 331.906 84.341 334.406 84.426 336.972 84.701 C 340.31 85.059 342.535 85.016 344.792 84.55 C 347.729 83.943 353.745 84.052 360.022 84.826 C 362.152 85.089 362.303 85.022 362.303 83.816 C 362.303 83.106 362.787 82.087 363.378 81.551 C 364.315 80.704 365.541 80.572 372.906 80.529 C 381.549 80.478 383.247 80.174 382.164 78.869 C 381.732 78.349 380.378 78.22 377.082 78.386 C 372.74 78.604 372.551 78.564 371.472 77.192 C 369.977 75.292 370.06 74.205 371.965 70.733 C 372.851 69.12 373.575 67.614 373.575 67.388 C 373.575 67.162 372.873 67.081 372.014 67.207 C 371.155 67.333 370.046 67.209 369.55 66.931 C 368.813 66.519 369.221 66.155 371.772 64.947 C 374.224 63.786 375.1 63.594 375.839 64.056 C 377.304 64.971 379.216 64.753 380.308 63.546 C 381.846 61.846 384.217 61.018 388.587 60.655 C 390.85 60.466 393.173 59.943 393.922 59.452 C 394.66 58.968 396.813 58.476 398.771 58.342 C 402.149 58.111 403.345 58.383 406.2 60.028 C 407.212 60.612 408.233 60.608 412.104 60.009 C 417.097 59.237 421.602 58.079 424.422 56.844 C 427.118 55.664 433.173 54.391 435.841 54.444 C 437.169 54.471 439.343 54.515 440.671 54.542 C 442 54.569 445.744 54.079 448.991 53.451 C 452.239 52.824 456.224 52.302 457.848 52.292 C 459.472 52.281 461.767 52.057 462.947 51.793 C 464.128 51.528 466.785 51.159 468.852 50.972 C 474.436 50.466 476.162 50.134 477.398 49.329 C 480.242 47.474 486.408 47.191 488.625 48.813 C 489.441 49.409 489.526 49.894 489.149 51.799 C 488.526 54.947 486.715 55.556 479.826 54.931 C 474.823 54.477 473.419 54.576 461.337 56.235 C 458.09 56.681 453.938 57.191 452.112 57.368 C 450.286 57.545 447.749 58.074 446.476 58.544 C 445.003 59.087 441.622 59.493 437.182 59.661 C 432.603 59.834 429.802 60.178 429.035 60.662 C 428.391 61.068 426.821 61.552 425.546 61.738 C 421.79 62.287 417.495 63.555 414.907 64.881 C 413.578 65.561 411.301 66.271 409.846 66.458 C 408.392 66.644 406.822 67.133 406.358 67.544 C 405.528 68.278 403.04 69.644 399.35 71.392 C 398.322 71.879 395.544 72.409 393.177 72.57 C 389.849 72.795 388.389 73.166 386.738 74.205 C 383.728 76.099 382.904 76.989 383.705 77.485 C 384.058 77.703 384.193 78.284 384.004 78.776 C 383.713 79.534 383.934 79.622 385.462 79.354 C 386.452 79.18 388.052 78.799 389.017 78.506 C 389.982 78.214 392.547 77.897 394.717 77.802 C 397.848 77.665 399.119 77.342 400.87 76.236 C 402.083 75.47 403.669 74.843 404.394 74.843 C 405.119 74.843 406.271 74.633 406.954 74.375 C 408.766 73.693 410.235 74.455 411.435 76.699 C 412.48 78.656 412.48 78.685 411.45 79.444 C 410.816 79.91 409.13 80.211 407.152 80.211 C 405.361 80.211 403.052 80.471 402.021 80.788 C 400.99 81.106 397.972 81.344 395.315 81.319 C 391.494 81.282 390.078 81.49 388.544 82.314 C 387.477 82.887 385.665 83.512 384.518 83.704 C 383.371 83.895 382.07 84.178 381.627 84.332 C 381.184 84.486 378.527 84.665 375.723 84.728 C 369.816 84.863 367.035 85.637 365.824 87.484 C 365.161 88.496 364.494 88.799 362.933 88.799 C 361.817 88.799 359.652 89.423 358.122 90.185 C 354 92.239 351.031 91.237 351.031 87.792 C 351.031 86.837 350.739 86.735 348.482 86.901 C 347.079 87.004 345.328 87.322 344.59 87.607 C 343.852 87.892 342.488 88.291 341.559 88.493 C 340.631 88.695 339.442 89.333 338.919 89.912 C 338.006 90.92 338.009 90.996 338.998 91.749 C 339.677 92.267 340.878 92.462 342.527 92.323 C 344.689 92.14 345.065 92.26 345.314 93.212 C 345.582 94.238 345.863 94.287 349.524 93.944 C 354.6 93.469 359.276 92.622 362.304 91.63 C 363.632 91.194 366.289 90.625 368.208 90.365 C 370.127 90.104 372.777 89.736 374.096 89.546 C 375.416 89.356 377.391 88.635 378.486 87.944 C 380.253 86.829 381.189 86.677 386.822 86.591 C 391.595 86.518 393.876 86.235 396.024 85.447 C 397.595 84.871 399.343 84.521 399.909 84.669 C 400.495 84.822 401.572 84.44 402.408 83.782 C 403.809 82.68 404.464 82.622 416.504 82.533 C 425.339 82.468 430.744 82.173 434.499 81.552 C 439.375 80.745 441.979 80.36 449.261 79.373 C 452.335 78.955 454.247 80.432 453.988 83.024 C 453.72 85.697 452.938 85.856 443.533 85.154 C 437.506 84.704 433.944 84.68 431.279 85.071 C 424.572 86.057 419.136 86.266 416.985 85.621 C 415.35 85.131 414.299 85.17 411.824 85.812 C 410.114 86.254 408.181 86.477 407.529 86.306 C 406.814 86.12 405.608 86.429 404.499 87.083 C 400.604 89.381 384.8 94.239 380.722 94.392 C 379.465 94.439 378.031 94.878 377.467 95.388 C 376.123 96.604 373.43 97.098 372.081 96.375 C 371.269 95.941 370.396 95.986 368.66 96.551 C 364.753 97.823 360.035 98.462 357.115 98.115 C 355.59 97.934 353.658 97.958 352.821 98.169 L 351.3 98.553 L 352.642 99.242 C 353.38 99.62 354.881 100.092 355.978 100.29 C 358.397 100.726 358.934 101.438 357.794 102.697 C 356.373 104.267 356.705 105.795 358.547 106.164 C 360.021 106.459 360.872 107.586 359.62 107.586 C 358.271 107.586 359.361 108.555 362.438 110.092 C 367.409 112.573 368.723 112.875 378.407 113.757 C 383.278 114.201 388.23 114.819 389.411 115.13 C 390.592 115.44 393.45 115.909 395.764 116.171 C 398.077 116.433 400.553 117.03 401.265 117.497 C 404.661 119.722 400.506 123.5 396.939 121.432 Z M 42.926 118.322 C 42.926 118.026 43.167 117.785 43.462 117.785 C 43.758 117.785 43.999 118.026 43.999 118.322 C 43.999 118.617 43.758 118.858 43.462 118.858 C 43.167 118.858 42.926 118.617 42.926 118.322 Z M 105.191 116.705 C 105.191 116.413 105.795 116.174 106.533 116.174 C 107.271 116.174 107.875 116.363 107.875 116.594 C 107.875 116.825 107.271 117.064 106.533 117.125 C 105.795 117.186 105.191 116.997 105.191 116.705 Z M 400.782 113.965 C 400.247 113.654 396.986 113.268 393.536 113.107 C 387.374 112.821 383.774 111.973 383.774 110.81 C 383.774 110.486 384.398 109.597 385.16 108.835 C 386.462 107.533 386.765 107.47 390.125 107.798 C 396.374 108.41 402.799 109.453 403.716 110.005 C 404.891 110.712 405.156 112.572 404.24 113.677 C 403.4 114.688 402.197 114.788 400.782 113.965 Z M 387.261 105.435 C 387.077 105.138 387.315 104.746 387.789 104.564 C 388.816 104.169 389.389 104.604 388.895 105.403 C 388.45 106.125 387.696 106.139 387.261 105.435 Z M 280.312 101.856 C 278.902 100.873 278.748 99.786 279.953 99.324 C 281.315 98.801 282.346 98.943 283.168 99.765 C 284.131 100.727 284.125 100.878 283.091 101.912 C 282.069 102.934 281.85 102.93 280.311 101.856 Z M 88.087 87.647 C 86.567 87.085 86.283 86.313 87.242 85.353 C 88.993 83.602 93.174 84.816 92.762 86.956 C 92.549 88.06 90.157 88.413 88.087 87.647 Z M 105.428 86.401 C 104.855 85.967 104.641 85.605 104.954 85.596 C 105.267 85.587 105.991 85.933 106.564 86.367 C 107.137 86.8 107.351 87.162 107.038 87.172 C 106.725 87.181 106.001 86.834 105.428 86.401 Z M 225.156 83.427 C 224.569 82.478 225.461 80.748 226.537 80.748 C 227.833 80.748 227.99 83.157 226.725 83.642 C 225.611 84.07 225.548 84.061 225.156 83.427 Z M 235.414 78.735 C 235.59 77.628 235.96 76.298 236.237 75.779 C 236.825 74.678 235.771 70.549 234.901 70.549 C 234.596 70.549 234.813 70.208 235.383 69.791 C 235.953 69.375 236.646 69.174 236.924 69.346 C 237.202 69.518 238.594 69.605 240.017 69.54 C 242.752 69.416 243.46 70.244 241.799 71.623 C 241.356 71.99 240.993 72.501 240.993 72.757 C 240.993 73.014 240.329 73.89 239.517 74.704 C 238.705 75.519 237.963 76.638 237.868 77.192 C 237.509 79.275 236.699 80.748 235.91 80.748 C 235.269 80.748 235.163 80.318 235.414 78.735 Z M 315.848 79.647 C 314.721 78.402 315.328 76.215 317.013 75.447 C 318.621 74.714 320.952 74.677 322.044 75.368 C 322.747 75.812 322.721 76.113 321.832 77.764 C 320.42 80.385 317.382 81.342 315.848 79.647 Z M 278.514 77.731 C 278.043 77.164 277.995 76.501 278.352 75.487 C 278.949 73.79 280.534 73.272 280.824 74.678 C 281.368 77.316 279.843 79.333 278.514 77.731 Z M 339.088 77.753 C 338.461 77.123 338.614 75.371 339.356 74.665 C 340.311 73.758 344.597 72.731 345.685 73.149 C 346.897 73.615 346.208 75.535 344.407 76.715 C 342.879 77.716 339.673 78.342 339.088 77.753 Z M 203.956 75.38 C 203.956 75.085 204.198 74.843 204.493 74.843 C 204.788 74.843 205.03 75.085 205.03 75.38 C 205.03 75.675 204.788 75.917 204.493 75.917 C 204.198 75.917 203.956 75.675 203.956 75.38 Z M 228.864 74.223 C 228.562 73.733 230.071 72.214 230.897 72.176 C 231.633 72.142 231.976 73.339 231.398 73.918 C 230.605 74.711 229.265 74.872 228.864 74.223 Z M 79.023 73.951 C 78.654 73.802 78.352 73.243 78.352 72.709 C 78.352 71.703 79.358 71.086 80.997 71.086 C 82.184 71.086 83.945 72.971 83.473 73.736 C 83.116 74.312 80.261 74.45 79.023 73.951 Z M 330.365 73.769 C 330.182 73.473 330.711 72.974 331.541 72.659 C 332.37 72.345 333.532 71.648 334.123 71.11 C 334.861 70.437 336.452 70.024 339.222 69.785 C 345.019 69.285 346.494 68.959 349.471 67.523 C 352.116 66.247 354.376 66.227 355.147 67.475 C 355.694 68.359 353.239 70.012 351.374 70.016 C 350.447 70.017 349.026 70.365 348.216 70.787 C 347.406 71.21 345.836 71.548 344.727 71.538 C 343.618 71.529 340.808 72.148 338.483 72.914 C 334.088 74.361 330.936 74.693 330.365 73.769 Z M 223.952 69.87 C 221.222 68.325 218.988 66.763 218.987 66.4 C 218.987 66.037 218.028 65.251 216.857 64.654 C 214.362 63.381 213.102 61.544 214.234 60.827 C 215.385 60.097 215.676 60.225 218.041 62.497 C 219.27 63.678 220.589 64.645 220.973 64.645 C 221.356 64.645 221.67 64.852 221.67 65.107 C 221.67 65.361 223.121 66.342 224.894 67.287 C 226.868 68.339 228.429 69.606 228.919 70.556 C 230.408 73.433 230.192 73.404 223.952 69.87 Z M 246.67 56.121 C 246.509 55.862 246.737 54.932 247.175 54.054 C 247.814 52.771 247.85 52.099 247.356 50.634 C 247.019 49.631 246.482 48.479 246.163 48.074 C 245.645 47.415 244.849 45.983 241.732 40.113 C 240.981 38.699 240.941 38.247 241.509 37.563 C 243.363 35.329 245.285 37.744 245.29 42.315 C 245.29 43.59 245.757 45.279 246.399 46.332 C 247.497 48.133 247.531 48.145 250.691 47.859 C 253.562 47.598 253.876 47.67 253.876 48.588 C 253.876 49.148 253.393 49.908 252.802 50.276 C 252.212 50.645 251.729 51.251 251.729 51.623 C 251.729 51.995 251.534 52.299 251.295 52.299 C 251.056 52.299 250.151 53.259 249.282 54.433 C 247.659 56.627 247.175 56.94 246.67 56.121 Z M 215.183 55.197 C 214.796 54.73 212.897 53.236 210.962 51.876 C 209.028 50.516 206.651 48.726 205.681 47.898 C 204.71 47.07 203.06 46.034 202.013 45.597 C 200.966 45.159 199.447 44.133 198.637 43.317 C 196.292 40.951 193.101 38.164 191.16 36.788 C 189.395 35.537 189.383 35.501 190.393 34.491 C 191.732 33.152 193.366 33.745 196.468 36.696 C 197.73 37.897 198.98 38.88 199.244 38.88 C 199.509 38.88 199.6 39.082 199.447 39.33 C 199.294 39.577 200.17 40.483 201.393 41.343 C 202.616 42.202 204.589 43.941 205.779 45.206 C 206.968 46.471 209.014 48.041 210.325 48.695 C 212.858 49.958 215.761 52.7 216.403 54.436 C 216.904 55.79 216.095 56.295 215.183 55.197 Z M 218.089 52.339 C 211.953 47.629 208.632 43.133 211.337 43.196 C 211.854 43.208 213.967 44.777 216.034 46.683 C 218.1 48.589 220.051 50.149 220.368 50.15 C 220.686 50.151 221.523 50.766 222.229 51.518 C 223.219 52.572 223.385 53.086 222.955 53.767 C 222.07 55.171 221.598 55.032 218.089 52.339 Z M 282.957 52.035 C 283.052 50.897 283.432 49.867 283.801 49.746 C 284.796 49.419 284.648 52.558 283.628 53.404 C 282.883 54.023 282.805 53.864 282.957 52.035 Z M 133.103 48.599 C 133.103 48.272 132.649 48.005 132.095 48.005 C 131.541 48.005 130.774 47.627 130.392 47.166 C 129.998 46.692 128.98 46.366 128.044 46.416 C 125.459 46.553 125.166 46.455 125.245 45.486 C 125.286 44.987 124.831 44.323 124.234 44.01 C 123.615 43.686 123.229 43.037 123.335 42.497 C 123.471 41.807 123.072 41.463 121.852 41.219 C 120.318 40.912 120.249 40.811 121.011 39.969 C 121.76 39.142 121.749 38.975 120.896 38.231 C 120.377 37.778 119.414 37.129 118.757 36.789 C 117.566 36.174 117.565 36.167 118.622 35.11 C 120.176 33.556 119.942 32.225 117.939 31.228 C 116.455 30.489 116.371 30.355 117.377 30.326 C 118.274 30.3 118.693 29.808 119.111 28.295 C 119.471 26.99 119.48 26.115 119.136 25.772 C 118.224 24.86 118.563 24.259 119.818 24.565 C 121.51 24.979 122.93 23.798 122.539 22.302 C 122.275 21.291 122.426 21.121 123.504 21.218 C 124.207 21.281 125.266 21.292 125.856 21.241 C 126.755 21.165 126.799 21.064 126.125 20.621 C 124.614 19.63 126.677 19.009 130.285 19.369 C 133.619 19.702 133.639 19.696 133.639 18.32 C 133.639 16.614 134.361 16.109 135.743 16.849 C 136.441 17.223 136.907 17.231 137.128 16.874 C 137.713 15.926 138.871 16.296 139.222 17.543 C 139.553 18.722 139.58 18.726 140.352 17.716 C 141.119 16.714 141.959 16.901 141.959 18.073 C 141.959 18.39 142.414 18.715 142.969 18.797 C 143.524 18.878 144.237 19.203 144.552 19.519 C 144.868 19.834 146.02 20.093 147.113 20.093 C 148.817 20.093 149.258 20.362 150.216 21.984 C 151.628 24.377 152.494 24.699 154.64 23.629 C 155.585 23.158 156.5 22.927 156.673 23.116 C 156.847 23.305 156.683 23.57 156.308 23.703 C 155.2 24.098 153.974 25.538 154.186 26.194 C 154.294 26.528 155.211 27.199 156.223 27.684 C 157.235 28.169 157.942 28.766 157.794 29.01 C 157.646 29.255 158.13 29.76 158.868 30.133 C 159.606 30.507 160.028 30.846 159.807 30.887 C 159.586 30.929 159.163 31.023 158.868 31.096 C 158.572 31.17 157.968 31.261 157.526 31.298 C 156.35 31.396 156.542 33.142 157.815 33.937 C 158.417 34.313 158.775 34.837 158.611 35.103 C 158.447 35.368 158.558 35.737 158.859 35.922 C 159.631 36.399 159.536 38.102 158.699 38.797 C 158.311 39.119 157.042 39.456 155.881 39.545 C 154.447 39.655 153.768 39.962 153.768 40.501 C 153.768 41.624 152.961 42.082 150.964 42.092 C 149.619 42.098 149.067 42.429 148.488 43.576 C 148.078 44.388 147.846 45.342 147.973 45.696 C 148.143 46.171 147.766 46.214 146.532 45.861 C 145.061 45.439 144.792 45.534 144.281 46.655 C 143.786 47.74 143.55 47.834 142.679 47.295 C 141.873 46.795 141.562 46.818 141.198 47.402 C 140.945 47.809 140.496 47.993 140.2 47.81 C 139.649 47.469 135.719 48.102 134.042 48.801 C 133.477 49.037 133.103 48.956 133.103 48.599 Z M 310.505 45.348 C 311.095 45.106 312.197 44.215 312.954 43.37 C 314.89 41.204 316.943 39.753 320.972 37.702 C 322.689 36.828 327.286 33.582 327.511 33.085 C 327.751 32.552 333.299 29.874 335.004 29.468 C 335.831 29.271 336.576 29.382 336.794 29.735 C 337.487 30.855 335.581 32.699 332.427 33.961 C 330.703 34.65 328.93 35.434 328.487 35.702 C 328.044 35.971 325.387 37.381 322.582 38.838 C 319.778 40.294 316.309 42.469 314.875 43.671 C 313.206 45.07 311.756 45.845 310.849 45.824 C 309.587 45.793 309.549 45.741 310.505 45.348 Z M 271.927 34.988 C 271.41 33.058 271.54 26.091 272.099 25.745 C 273.034 25.167 275.883 19.008 275.9 17.527 C 275.919 15.929 276.99 14.188 277.955 14.188 C 278.672 14.188 278.703 15.823 278.078 20.629 C 277.759 23.089 277.106 24.951 275.867 26.939 C 274.728 28.767 274.135 30.372 274.181 31.501 C 274.344 35.466 272.726 37.969 271.927 34.988 Z M 206.16 27.036 C 204.297 26.202 201.809 23.747 201.809 22.743 C 201.809 21.53 197.691 15.639 196.363 14.953 C 195.52 14.517 194.831 13.955 194.831 13.703 C 194.831 13.451 194.1 12.942 193.207 12.572 C 191.681 11.94 188.876 8.823 189.83 8.819 C 190.071 8.818 189.481 8.336 188.517 7.749 C 187.554 7.161 186.36 5.831 185.865 4.792 C 185.263 3.529 183.982 2.327 182 1.165 C 180.37 0.209 178.044 -1.177 176.831 -1.915 C 175.618 -2.653 173.829 -3.74 172.854 -4.33 C 171.88 -4.921 169.703 -6.401 168.016 -7.619 C 166.329 -8.837 164.366 -10.136 163.653 -10.506 C 162.94 -10.875 161.874 -11.73 161.283 -12.404 C 160.693 -13.079 157.947 -14.799 155.182 -16.227 C 151.52 -18.118 148.97 -19.951 145.789 -22.978 C 143.388 -25.263 140.745 -27.678 139.916 -28.345 C 139.088 -29.012 137.639 -30.187 136.696 -30.955 C 135.753 -31.724 134.102 -32.931 133.028 -33.639 C 131.18 -34.856 124.785 -40.186 121.807 -42.991 C 121.056 -43.699 119.676 -44.831 118.741 -45.506 C 117.806 -46.182 115.6 -47.867 113.838 -49.251 C 112.076 -50.635 109.953 -52.121 109.12 -52.552 C 108.288 -52.984 106.969 -54.025 106.19 -54.867 C 103.492 -57.781 98.473 -62.391 96.603 -63.671 C 95.569 -64.378 94.482 -65.147 94.187 -65.381 C 93.892 -65.615 92.539 -66.631 91.181 -67.64 C 88.417 -69.693 86.962 -72.366 87.844 -73.771 C 89.276 -76.053 94.203 -75.83 96.549 -73.378 C 97.317 -72.575 99.209 -70.6 100.754 -68.989 C 102.299 -67.377 104.472 -65.338 105.584 -64.458 C 106.696 -63.577 109.688 -60.799 112.233 -58.285 C 119.104 -51.496 119.825 -50.88 121.358 -50.496 C 122.13 -50.302 123.273 -49.452 123.898 -48.607 C 124.523 -47.762 125.621 -46.753 126.339 -46.366 C 129.827 -44.483 137.044 -38.785 140.982 -34.803 C 143.397 -32.361 145.615 -30.364 145.911 -30.364 C 146.207 -30.364 146.588 -29.926 146.758 -29.392 C 147.244 -27.86 151.407 -23.928 152.927 -23.564 C 154.924 -23.087 156.765 -22.075 158.599 -20.446 C 159.485 -19.66 161.419 -18.229 162.897 -17.266 C 164.375 -16.303 166.307 -14.739 167.191 -13.792 C 168.075 -12.844 170.428 -11.183 172.421 -10.1 C 174.414 -9.016 176.044 -7.965 176.044 -7.763 C 176.044 -7.562 177.675 -6.746 179.668 -5.95 C 182.058 -4.996 184.489 -3.441 186.812 -1.38 C 188.749 0.338 191.229 2.117 192.322 2.574 C 193.415 3.031 194.449 3.766 194.618 4.209 C 194.788 4.652 195.765 5.508 196.789 6.112 C 197.813 6.717 198.504 7.45 198.324 7.741 C 198.136 8.045 198.352 8.135 198.829 7.952 C 199.287 7.776 199.662 7.9 199.662 8.226 C 199.662 8.553 200.039 8.821 200.499 8.821 C 200.959 8.821 201.204 9.034 201.042 9.295 C 200.737 9.79 204.673 10.968 206.631 10.968 C 207.25 10.968 208.703 11.451 209.861 12.041 C 211.018 12.632 212.454 13.115 213.052 13.115 C 213.649 13.115 214.917 13.811 215.87 14.662 C 217.448 16.072 217.62 16.537 217.802 19.896 C 218 23.528 217.975 23.609 216.078 25.432 C 213.629 27.787 209.373 28.475 206.16 27.036 Z M 322.266 16.604 C 321.732 14.477 322.439 12.634 323.932 12.26 C 324.666 12.075 325.266 11.695 325.266 11.415 C 325.266 11.134 325.508 11.054 325.803 11.236 C 326.098 11.418 326.34 11.809 326.34 12.105 C 326.34 12.4 326.082 12.482 325.767 12.287 C 325.452 12.093 325.249 12.26 325.315 12.658 C 325.43 13.351 325.233 14.048 324.16 16.738 C 323.525 18.331 322.684 18.271 322.266 16.604 Z M 326.496 11.238 C 325.011 10.19 325.406 9.034 327.386 8.638 C 328.418 8.432 329.069 7.857 329.431 6.833 C 329.723 6.007 330.878 4.366 331.997 3.186 C 333.116 2.006 335.485 -0.648 337.262 -2.711 C 339.038 -4.775 340.928 -6.932 341.461 -7.505 C 341.994 -8.077 342.558 -8.947 342.714 -9.438 C 343.069 -10.556 345.362 -11.826 346.149 -11.34 C 346.472 -11.14 346.737 -10.614 346.737 -10.172 C 346.737 -9.08 343.513 -5.135 342.621 -5.135 C 342.228 -5.135 341.906 -4.905 341.906 -4.623 C 341.906 -4.341 340.429 -2.916 338.625 -1.456 C 336.06 0.619 335.079 1.851 334.131 4.184 C 333.464 5.825 333.02 7.271 333.146 7.396 C 333.271 7.522 332.456 8.189 331.333 8.879 C 330.21 9.569 328.93 10.57 328.487 11.104 C 327.749 11.993 327.583 12.004 326.496 11.238 Z M 145.122 0.903 C 143.468 -1.388 144.555 -3.667 146.415 -1.807 C 147.133 -1.089 147.306 2.379 146.623 2.379 C 146.383 2.379 145.708 1.715 145.122 0.903 Z" id="path2987" style="fill:#000000" transform="matrix(1, 0, 0, 1, -7.105427357601002e-15, -2.842170943040401e-14)"/>
  <path d="M 146.555 118.088 L 173.019 172.247 L 120.091 172.247 L 146.555 118.088 Z" style="stroke-linejoin: round; stroke: rgb(255, 255, 255); stroke-width: 0; fill: url(#gradient-7);" transform="matrix(-0.000010000000656873453, 1, -1, -0.0000090000012278324, 399.3013000488281, 63.84861373901367)" bx:shape="triangle 120.091 118.088 52.928 54.159 0.5 0 1@b4ffe7e4"/>
  <path style="stroke-width: 12.992; stroke-dashoffset: -1; stroke-linecap: round; stroke-dasharray: 0; stroke-linejoin: round; fill: url(#gradient-6);" transform="matrix(0.47418102622032166, -0.000005000000783184078, 0.000005000000783184078, 0.47418102622032166, 151.59832763671875, 114.14472961425781)" d="M 186.573 80.721 L 213.427 80.721 L 224.047 120.412 A 86.018 86.018 0 0 1 241.395 127.597 L 276.97 107.041 L 295.959 126.03 L 275.403 161.605 A 86.018 86.018 0 0 1 282.588 178.953 L 322.279 189.573 L 322.279 216.427 L 282.588 227.047 A 86.018 86.018 0 0 1 275.403 244.395 L 295.959 279.97 L 276.97 298.959 L 241.395 278.403 A 86.018 86.018 0 0 1 224.047 285.588 L 213.427 325.279 L 186.573 325.279 L 175.953 285.588 A 86.018 86.018 0 0 1 158.605 278.403 L 123.03 298.959 L 104.041 279.97 L 124.597 244.395 A 86.018 86.018 0 0 1 117.412 227.047 L 77.721 216.427 L 77.721 189.573 L 117.412 178.953 A 86.018 86.018 0 0 1 124.597 161.605 L 104.041 126.03 L 123.03 107.041 L 158.605 127.597 A 86.018 86.018 0 0 1 175.953 120.412 Z M 200 29.852 A 173.148 173.148 0 0 0 200 376.148 A 173.148 173.148 0 0 0 200 29.852" bx:shape="cog 200 203 173.148 86.018 122.279 0.443 8 1@3d13fdc1"/>
  <path d="M 764.419 246.477 L 775.128 246.477 C 777.109 246.477 778.505 246.057 779.318 245.217 C 780.125 244.377 780.529 243.087 780.529 241.347 L 780.529 221.817 C 780.529 220.077 781.128 218.697 782.328 217.677 C 783.529 216.657 785.089 216.147 787.008 216.147 C 788.448 216.147 789.619 216.267 790.518 216.507 C 791.419 216.747 792.349 217.137 793.308 217.677 C 793.789 217.977 794.208 218.127 794.568 218.127 C 795.169 218.127 795.648 217.647 796.008 216.687 L 799.518 207.147 C 799.698 206.667 799.789 206.247 799.789 205.887 C 799.789 205.347 799.458 204.837 798.799 204.357 C 797.599 203.457 796.308 202.827 794.929 202.467 C 793.549 202.107 791.688 201.927 789.349 201.927 C 784.609 201.927 780.409 203.547 776.748 206.787 L 776.208 204.537 C 776.089 203.997 775.832 203.65 775.438 203.497 C 775.052 203.35 774.469 203.277 773.688 203.277 L 762.349 203.277 C 760.969 203.277 760.052 203.474 759.599 203.867 C 759.152 204.254 758.929 205.047 758.929 206.247 L 758.929 241.347 C 758.929 243.087 759.349 244.377 760.188 245.217 C 761.029 246.057 762.438 246.477 764.419 246.477 Z M 722.703 233.517 C 719.463 233.517 717.843 231.267 717.843 226.767 C 717.843 223.347 718.533 220.724 719.913 218.897 C 721.293 217.064 723.213 216.147 725.673 216.147 C 726.573 216.147 727.293 216.267 727.833 216.507 L 727.833 228.747 C 727.833 230.247 727.353 231.417 726.393 232.257 C 725.433 233.097 724.203 233.517 722.703 233.517 Z M 714.693 247.827 C 717.873 247.827 720.603 247.424 722.883 246.617 C 725.163 245.804 727.173 244.587 728.913 242.967 L 730.353 245.217 C 730.653 245.697 730.983 246.027 731.343 246.207 C 731.703 246.387 732.213 246.477 732.873 246.477 L 744.213 246.477 C 745.593 246.477 746.509 246.284 746.963 245.897 C 747.409 245.504 747.633 244.707 747.633 243.507 L 747.633 207.867 C 744.453 205.767 741.196 204.25 737.863 203.317 C 734.536 202.39 730.473 201.927 725.673 201.927 C 720.093 201.927 715.069 202.947 710.603 204.987 C 706.129 207.027 702.633 209.937 700.113 213.717 C 697.593 217.497 696.333 221.847 696.333 226.767 C 696.333 233.427 698.013 238.604 701.373 242.297 C 704.733 245.984 709.173 247.827 714.693 247.827 Z M 658.306 218.937 C 658.306 217.437 658.77 216.254 659.696 215.387 C 660.63 214.514 662.026 214.077 663.886 214.077 C 667.666 214.077 669.556 215.697 669.556 218.937 L 658.306 218.937 Z M 664.786 247.827 C 672.826 247.827 679.396 246.267 684.496 243.147 C 685.336 242.667 685.756 242.097 685.756 241.437 C 685.756 240.957 685.576 240.417 685.216 239.817 L 681.706 233.157 C 681.226 232.317 680.716 231.897 680.176 231.897 C 679.756 231.897 679.186 232.077 678.466 232.437 C 676.786 233.277 675.226 233.89 673.786 234.277 C 672.346 234.67 670.456 234.867 668.116 234.867 C 665.056 234.867 662.656 234.344 660.916 233.297 C 659.176 232.244 658.306 230.817 658.306 229.017 L 684.226 229.017 C 685.726 229.017 686.836 228.597 687.556 227.757 C 688.276 226.917 688.636 225.627 688.636 223.887 C 688.636 217.107 686.536 211.75 682.336 207.817 C 678.136 203.89 671.956 201.927 663.796 201.927 C 655.456 201.927 649.08 203.924 644.666 207.917 C 640.26 211.904 638.056 217.677 638.056 225.237 C 638.056 230.037 639.196 234.13 641.476 237.517 C 643.756 240.91 646.92 243.477 650.966 245.217 C 655.02 246.957 659.626 247.827 664.786 247.827 Z M 603.631 229.287 C 601.711 229.287 600.331 228.777 599.491 227.757 C 598.651 226.737 598.231 225.027 598.231 222.627 C 598.231 220.467 598.501 218.937 599.041 218.037 C 599.581 217.137 600.241 216.61 601.021 216.457 C 601.801 216.31 603.181 216.237 605.161 216.237 C 606.241 216.237 607.111 216.357 607.771 216.597 L 607.771 224.877 C 607.771 226.437 607.454 227.564 606.821 228.257 C 606.194 228.944 605.131 229.287 603.631 229.287 Z M 602.551 261.777 C 607.891 261.777 612.527 260.744 616.461 258.677 C 620.387 256.604 623.387 253.707 625.461 249.987 C 627.527 246.267 628.561 241.977 628.561 237.117 L 628.561 209.037 C 625.741 206.997 622.201 205.304 617.941 203.957 C 613.681 202.604 609.151 201.927 604.351 201.927 C 585.931 201.927 576.721 209.127 576.721 223.527 C 576.721 230.247 578.594 235.347 582.341 238.827 C 586.094 242.307 591.661 244.047 599.041 244.047 C 600.481 244.047 601.994 243.897 603.581 243.597 C 605.174 243.297 606.451 242.937 607.411 242.517 L 607.411 242.787 C 607.411 246.027 605.071 247.647 600.391 247.647 C 598.891 247.647 597.104 247.514 595.031 247.247 C 592.964 246.974 591.361 246.627 590.221 246.207 C 589.501 245.967 589.051 245.847 588.871 245.847 C 588.271 245.847 587.701 246.327 587.161 247.287 L 582.661 254.847 C 582.301 255.507 582.121 255.987 582.121 256.287 C 582.121 256.887 582.571 257.427 583.471 257.907 C 585.811 259.227 588.647 260.2 591.981 260.827 C 595.307 261.46 598.831 261.777 602.551 261.777 Z M 545.174 233.517 C 542.895 233.517 541.168 232.827 539.995 231.447 C 538.828 230.067 538.245 227.757 538.245 224.517 C 538.245 221.997 538.695 219.97 539.595 218.437 C 540.495 216.91 541.845 216.147 543.645 216.147 C 545.145 216.147 546.208 216.494 546.835 217.187 C 547.468 217.874 547.785 218.997 547.785 220.557 L 547.785 233.157 C 547.125 233.397 546.255 233.517 545.174 233.517 Z M 544.365 247.827 C 549.285 247.827 553.858 247.214 558.085 245.987 C 562.318 244.754 565.815 243.147 568.575 241.167 L 568.575 190.407 C 568.575 188.667 568.171 187.377 567.365 186.537 C 566.551 185.697 565.155 185.277 563.174 185.277 L 552.915 185.277 C 550.935 185.277 549.525 185.684 548.685 186.497 C 547.845 187.304 547.424 188.607 547.424 190.407 L 547.424 203.457 C 546.465 203.037 545.188 202.677 543.595 202.377 C 542.008 202.077 540.495 201.927 539.055 201.927 C 531.854 201.927 526.335 203.967 522.495 208.047 C 518.655 212.127 516.734 217.617 516.734 224.517 C 516.734 232.197 519.044 238.004 523.665 241.937 C 528.285 245.864 535.185 247.827 544.365 247.827 Z M 490.677 246.477 L 501.387 246.477 C 503.427 246.477 504.85 246.057 505.657 245.217 C 506.47 244.377 506.877 243.087 506.877 241.347 L 506.877 208.407 C 506.877 206.607 506.47 205.304 505.657 204.497 C 504.85 203.684 503.427 203.277 501.387 203.277 L 490.677 203.277 C 488.697 203.277 487.3 203.697 486.487 204.537 C 485.68 205.377 485.277 206.667 485.277 208.407 L 485.277 241.347 C 485.277 243.087 485.68 244.377 486.487 245.217 C 487.3 246.057 488.697 246.477 490.677 246.477 Z M 492.117 200.127 L 499.947 200.127 C 502.287 200.127 504.087 199.51 505.347 198.277 C 506.607 197.05 507.237 195.567 507.237 193.827 L 507.237 191.577 C 507.237 189.837 506.607 188.354 505.347 187.127 C 504.087 185.894 502.287 185.277 499.947 185.277 L 492.117 185.277 C 489.777 185.277 487.993 185.894 486.767 187.127 C 485.533 188.354 484.917 189.837 484.917 191.577 L 484.917 193.827 C 484.917 195.567 485.533 197.05 486.767 198.277 C 487.993 199.51 489.777 200.127 492.117 200.127 Z M 444.821 246.477 L 454.631 246.477 C 455.951 246.477 456.958 246.22 457.651 245.707 C 458.338 245.2 458.921 244.317 459.401 243.057 L 480.821 189.147 C 481.121 188.367 481.271 187.707 481.271 187.167 C 481.271 185.907 480.611 185.277 479.291 185.277 L 462.371 185.277 C 460.511 185.277 459.341 186.087 458.861 187.707 L 449.681 217.047 L 440.501 187.707 C 440.021 186.087 438.851 185.277 436.991 185.277 L 420.071 185.277 C 418.751 185.277 418.091 185.907 418.091 187.167 C 418.091 187.707 418.241 188.367 418.541 189.147 L 440.051 243.057 C 440.531 244.317 441.114 245.2 441.801 245.707 C 442.494 246.22 443.501 246.477 444.821 246.477 Z" style="fill: url(#gradient-1); stroke: rgb(186, 218, 85); stroke-width: 0px; white-space: pre;" transform="matrix(1, 0, 0, 1, -7.105427357601002e-15, -2.842170943040401e-14)"/>
</svg>