<?xml version="1.0" encoding="utf-8"?>
<svg viewBox="111.20099639892578 77.18199920654297 258.8869934082031 258.7879943847656" width="258.8869934082031" height="258.7879943847656" xmlns="http://www.w3.org/2000/svg" xmlns:bx="https://boxy-svg.com">
  <path style="stroke-width: 12.992; stroke-dashoffset: -1; stroke-linecap: round; stroke-dasharray: 0; stroke-linejoin: round; fill: rgb(68, 68, 68);" transform="matrix(-0.4833120847735426, 0.5701170137559473, -0.5701170137559473, -0.4833120847735426, 453.0622388441034, 190.6610011655389)" d="M 188.075 80.721 L 211.925 80.721 L 221.435 119.696 A 86.018 86.018 0 0 1 237.127 125.407 L 269.464 101.664 L 287.734 116.994 L 269.968 152.964 A 86.018 86.018 0 0 1 278.317 167.425 L 318.351 170.023 L 322.492 193.51 L 285.761 209.644 A 86.018 86.018 0 0 1 282.861 226.089 L 311.859 253.812 L 299.934 274.467 L 261.426 263.216 A 86.018 86.018 0 0 1 248.634 273.949 L 253.028 313.826 L 230.616 321.983 L 208.349 288.612 A 86.018 86.018 0 0 1 191.651 288.612 L 169.384 321.983 L 146.972 313.826 L 151.366 273.949 A 86.018 86.018 0 0 1 138.574 263.216 L 100.066 274.467 L 88.141 253.812 L 117.139 226.089 A 86.018 86.018 0 0 1 114.239 209.644 L 77.508 193.51 L 81.649 170.023 L 121.683 167.425 A 86.018 86.018 0 0 1 130.032 152.964 L 112.266 116.994 L 130.536 101.664 L 162.873 125.407 A 86.018 86.018 0 0 1 178.565 119.696 Z M 200 29.852 A 173.148 173.148 0 0 0 200 376.148 A 173.148 173.148 0 0 0 200 29.852" bx:shape="cog 200 203 173.148 86.018 122.279 0.443 9 1@5212c4d6"/>
  <path d="M 261.392 210.617 L 308.593 307.214 L 214.191 307.214 L 261.392 210.617 Z" style="stroke-linejoin: round; stroke: rgb(255, 255, 255); stroke-width: 0; fill: rgb(68, 68, 68);" transform="matrix(-0.019905005243569755, 0.9998022615850636, -0.9998022615850636, -0.019905005243569755, 517.7515413091041, -49.056985409765964)" bx:shape="triangle 214.191 210.617 94.402 96.597 0.5 0 1@95608bf1"/>
</svg>