<?xml version="1.0" encoding="utf-8"?>
<svg viewBox="0 0 500 504.30999755859375" width="500" height="504.30999755859375" xmlns="http://www.w3.org/2000/svg">
  <path d="M 0 0 L 500 0 L 500 504.31 L 0 504.31 Z M 399.976 252.155 L 399.995 252.155 C 400.005 251.443 400.01 250.731 400.01 250.018 C 400.018 134.618 275.024 62.485 175.021 120.178 C 128.609 146.954 100.016 196.441 100.012 249.998 C 100.007 334.3 166.71 395.513 241.647 399.89 L 241.647 421.229 L 300 387.539 L 241.647 353.848 L 241.647 374.967 C 223.445 373.746 205.003 368.413 187.482 358.296 C 148.794 335.957 124.963 294.674 124.966 250 C 124.973 153.74 229.181 93.585 312.541 141.72 C 351.229 164.06 375.059 205.342 375.056 250.016 C 375.056 250.731 375.05 251.444 375.039 252.155 L 375.09 252.155 C 375.075 252.404 375.067 252.655 375.067 252.908 C 375.066 259.752 380.647 265.3 387.532 265.301 C 394.416 265.301 399.998 259.754 399.999 252.91 C 399.999 252.656 399.991 252.405 399.976 252.155 Z M 222.162 320.166 L 222.162 178.701 L 199.317 178.701 C 197.215 183.632 193.767 187.636 188.973 190.712 C 184.166 193.774 179.333 195.695 174.474 196.474 L 174.474 218.997 C 177.57 218.997 180.802 218.283 184.172 216.856 C 187.529 215.441 190.148 213.58 192.029 211.269 L 192.029 320.166 Z M 314.382 311.445 C 320.901 304.762 324.159 295.112 324.159 282.498 L 324.159 218.666 C 324.159 205.287 321.01 195.092 314.715 188.084 C 308.42 181.062 298.983 177.552 286.404 177.552 C 273.93 177.552 264.553 181.062 258.269 188.084 C 251.974 195.092 248.826 205.287 248.826 218.666 L 248.826 282.498 C 248.826 294.996 252.084 304.618 258.602 311.367 C 265.107 318.116 274.374 321.49 286.404 321.49 C 298.552 321.49 307.878 318.142 314.382 311.445 Z M 281.349 292.621 C 280.082 290.699 279.449 288.422 279.449 285.788 L 279.449 216.038 C 279.449 211.975 279.894 208.88 280.781 206.753 C 281.657 204.611 283.53 203.541 286.404 203.541 C 289.278 203.541 291.185 204.611 292.125 206.753 C 293.066 208.88 293.536 211.975 293.536 216.038 L 293.536 285.788 C 293.536 288.422 292.87 290.699 291.537 292.621 C 290.219 294.528 288.507 295.482 286.404 295.482 C 284.314 295.482 282.629 294.528 281.349 292.621 Z" transform="matrix(0.9999999999999999, 0, 0, 0.9999999999999999, -1.4210854715202004e-14, 3.552713678800501e-15)"/>
  <path d="M 399.987 253.035 C 399.986 259.879 394.404 265.426 387.52 265.426 C 380.635 265.424 375.054 259.877 375.055 253.033 C 375.055 252.78 375.063 252.529 375.078 252.28 L 375.027 252.28 C 375.038 251.569 375.044 250.856 375.044 250.141 C 375.047 205.467 351.217 164.185 312.529 141.845 C 229.169 93.71 124.961 153.865 124.954 250.125 C 124.951 294.799 148.782 336.082 187.47 358.421 C 204.991 368.538 223.433 373.871 241.635 375.092 L 241.635 353.973 L 299.988 387.664 L 241.635 421.354 L 241.635 400.015 C 166.698 395.638 99.995 334.424 100 250.123 C 100.004 196.566 128.597 147.079 175.009 120.303 C 275.012 62.61 400.006 134.743 399.998 250.143 C 399.998 250.856 399.993 251.568 399.983 252.28 L 399.964 252.28 C 399.979 252.53 399.987 252.781 399.987 253.035 Z" style="fill: rgba(255, 255, 255, 0); stroke-width: 10; stroke: rgb(255, 255, 255); stroke-linecap: round; stroke-linejoin: round;" transform="matrix(0.9999999999999999, 0, 0, 0.9999999999999999, -1.4210854715202004e-14, 3.552713678800501e-15)"/>
  <path d="M 192.33 319.583 L 192.33 210.686 C 190.449 212.997 187.83 214.858 184.473 216.273 C 181.103 217.7 177.871 218.414 174.775 218.414 L 174.775 195.891 C 179.634 195.112 184.467 193.191 189.274 190.129 C 194.068 187.053 197.516 183.049 199.618 178.118 L 222.463 178.118 L 222.463 319.583 L 192.33 319.583 Z M 286.705 320.907 C 274.675 320.907 265.408 317.533 258.903 310.784 C 252.385 304.035 249.127 294.413 249.127 281.915 L 249.127 218.083 C 249.127 204.704 252.275 194.509 258.57 187.501 C 264.854 180.479 274.231 176.969 286.705 176.969 C 299.284 176.969 308.721 180.479 315.016 187.501 C 321.311 194.509 324.46 204.704 324.46 218.083 L 324.46 281.915 C 324.46 294.529 321.202 304.179 314.683 310.862 C 308.179 317.559 298.853 320.907 286.705 320.907 Z M 286.705 294.899 C 288.808 294.899 290.52 293.945 291.838 292.038 C 293.171 290.116 293.837 287.839 293.837 285.205 L 293.837 215.455 C 293.837 211.392 293.367 208.297 292.426 206.17 C 291.486 204.028 289.579 202.958 286.705 202.958 C 283.831 202.958 281.958 204.028 281.082 206.17 C 280.195 208.297 279.75 211.392 279.75 215.455 L 279.75 285.205 C 279.75 287.839 280.383 290.116 281.65 292.038 C 282.93 293.945 284.615 294.899 286.705 294.899 Z" style="white-space: pre; stroke: rgb(255, 255, 255); stroke-width: 10; fill: rgba(255, 255, 255, 0);" transform="matrix(0.9999999999999999, 0, 0, 0.9999999999999999, -1.4210854715202004e-14, 3.552713678800501e-15)"/>
</svg>