<?xml version="1.0" encoding="utf-8"?>
<svg viewBox="0 0 500 504.30999755859375" width="500" height="504.30999755859375" xmlns="http://www.w3.org/2000/svg">
  <path d="M 0 0 L 500 0 L 500 504.31 L 0 504.31 Z M 399.976 252.155 L 399.995 252.155 C 400.005 251.443 400.01 250.731 400.01 250.018 C 400.018 134.618 275.024 62.485 175.021 120.178 C 128.609 146.954 100.016 196.441 100.012 249.998 C 100.007 334.3 166.71 395.513 241.647 399.89 L 241.647 421.229 L 300 387.539 L 241.647 353.848 L 241.647 374.967 C 223.445 373.746 205.003 368.413 187.482 358.296 C 148.794 335.957 124.963 294.674 124.966 250 C 124.973 153.74 229.181 93.585 312.541 141.72 C 351.229 164.06 375.059 205.342 375.056 250.016 C 375.056 250.731 375.05 251.444 375.039 252.155 L 375.09 252.155 C 375.075 252.404 375.067 252.655 375.067 252.908 C 375.066 259.752 380.647 265.3 387.532 265.301 C 394.416 265.301 399.998 259.754 399.999 252.91 C 399.999 252.656 399.991 252.405 399.976 252.155 Z M 229.942 308.462 C 235.677 300.299 238.543 288.703 238.543 273.675 C 238.543 263.916 237.714 256.018 236.055 249.984 C 234.395 243.949 231.445 239.399 227.199 236.337 C 222.953 233.262 216.966 231.724 209.233 231.724 C 205.485 231.724 202.232 232.463 199.476 233.943 C 196.707 235.422 194.662 237.48 193.343 240.114 L 193.343 211.653 C 193.343 208.253 193.976 205.735 195.244 204.1 C 196.511 202.451 198.692 201.628 201.788 201.628 C 204.883 201.628 206.842 202.946 207.665 205.58 C 208.488 208.202 208.9 211.926 208.9 216.754 L 208.9 219.713 L 236.388 219.713 L 236.388 204.412 C 236.388 198.494 234.84 193.452 231.745 189.286 C 228.663 185.12 224.529 181.992 219.342 179.903 C 214.156 177.826 208.469 176.788 202.277 176.788 C 191.018 176.788 182.573 179.008 176.944 183.446 C 171.327 187.884 167.604 194.303 165.777 202.699 C 163.96 211.083 163.053 222.568 163.053 237.155 L 163.053 275.31 C 163.053 285.847 164.209 294.407 166.521 300.987 C 168.847 307.566 172.824 312.497 178.453 315.781 C 184.082 319.077 191.75 320.726 201.455 320.726 C 214.699 320.726 224.196 316.638 229.942 308.462 Z M 193.343 284.206 L 193.343 266.764 C 193.343 260.081 195.826 256.739 200.788 256.739 C 205.203 256.739 207.411 260.574 207.411 268.243 L 207.411 279.593 C 207.411 284.965 206.999 288.834 206.176 291.195 C 205.353 293.544 203.447 294.718 200.455 294.718 C 195.714 294.718 193.343 291.214 193.343 284.206 Z M 327.615 310.681 C 334.133 303.998 337.391 294.348 337.391 281.734 L 337.391 217.902 C 337.391 204.523 334.245 194.328 327.948 187.32 C 321.653 180.298 312.215 176.788 299.637 176.788 C 287.164 176.788 277.785 180.298 271.502 187.32 C 265.207 194.328 262.058 204.523 262.058 217.902 L 262.058 281.734 C 262.058 294.232 265.318 303.854 271.835 310.603 C 278.34 317.352 287.607 320.726 299.637 320.726 C 311.784 320.726 321.11 317.378 327.615 310.681 Z M 294.582 291.857 C 293.316 289.935 292.681 287.658 292.681 285.024 L 292.681 215.274 C 292.681 211.212 293.126 208.116 294.014 205.989 C 294.889 203.847 296.764 202.777 299.637 202.777 C 302.511 202.777 304.417 203.847 305.358 205.989 C 306.298 208.116 306.768 211.212 306.768 215.274 L 306.768 285.024 C 306.768 287.658 306.102 289.935 304.77 291.857 C 303.451 293.764 301.741 294.718 299.637 294.718 C 297.548 294.718 295.863 293.764 294.582 291.857 Z" transform="matrix(0.9999999999999999, 0, 0, 0.9999999999999999, -1.4210854715202004e-14, 0)"/>
  <path d="M 399.987 253.035 C 399.986 259.879 394.404 265.426 387.52 265.426 C 380.635 265.424 375.054 259.877 375.055 253.033 C 375.055 252.78 375.063 252.529 375.078 252.28 L 375.027 252.28 C 375.038 251.569 375.044 250.856 375.044 250.141 C 375.047 205.467 351.217 164.185 312.529 141.845 C 229.169 93.71 124.961 153.865 124.954 250.125 C 124.951 294.799 148.782 336.082 187.47 358.421 C 204.991 368.538 223.433 373.871 241.635 375.092 L 241.635 353.973 L 299.988 387.664 L 241.635 421.354 L 241.635 400.015 C 166.698 395.638 99.995 334.424 100 250.123 C 100.004 196.566 128.597 147.079 175.009 120.303 C 275.012 62.61 400.006 134.743 399.998 250.143 C 399.998 250.856 399.993 251.568 399.983 252.28 L 399.964 252.28 C 399.979 252.53 399.987 252.781 399.987 253.035 Z" style="fill: rgba(255, 255, 255, 0); stroke-width: 10; stroke: rgb(255, 255, 255); stroke-linecap: round; stroke-linejoin: round;" transform="matrix(0.9999999999999999, 0, 0, 0.9999999999999999, -1.4210854715202004e-14, 0)"/>
  <path d="M 201.614 320.907 C 191.909 320.907 184.241 319.258 178.612 315.963 C 172.983 312.679 169.006 307.748 166.68 301.168 C 164.368 294.588 163.212 286.029 163.212 275.491 L 163.212 237.336 C 163.212 222.75 164.119 211.264 165.936 202.88 C 167.764 194.484 171.486 188.066 177.103 183.627 C 182.732 179.189 191.177 176.97 202.437 176.97 C 208.628 176.97 214.316 178.007 219.502 180.084 C 224.688 182.173 228.822 185.301 231.904 189.467 C 234.999 193.633 236.547 198.675 236.547 204.593 L 236.547 219.894 L 209.059 219.894 L 209.059 216.935 C 209.059 212.107 208.647 208.383 207.824 205.761 C 207.002 203.127 205.042 201.809 201.947 201.809 C 198.851 201.809 196.67 202.633 195.403 204.281 C 194.135 205.917 193.502 208.434 193.502 211.835 L 193.502 240.295 C 194.821 237.661 196.866 235.604 199.635 234.124 C 202.391 232.645 205.644 231.905 209.392 231.905 C 217.125 231.905 223.113 233.443 227.358 236.519 C 231.604 239.581 234.555 244.13 236.214 250.165 C 237.874 256.199 238.702 264.097 238.702 273.856 C 238.702 288.884 235.836 300.481 230.101 308.643 C 224.355 316.819 214.858 320.907 201.614 320.907 Z M 200.614 294.9 C 203.606 294.9 205.513 293.726 206.335 291.376 C 207.158 289.015 207.57 285.147 207.57 279.774 L 207.57 268.425 C 207.57 260.755 205.362 256.92 200.948 256.92 C 195.985 256.92 193.502 260.262 193.502 266.945 L 193.502 284.387 C 193.502 291.395 195.873 294.9 200.614 294.9 Z M 299.796 320.907 C 287.766 320.907 278.499 317.534 271.994 310.784 C 265.477 304.035 262.217 294.413 262.217 281.915 L 262.217 218.083 C 262.217 204.704 265.366 194.509 271.661 187.501 C 277.944 180.479 287.323 176.97 299.796 176.97 C 312.374 176.97 321.812 180.479 328.107 187.501 C 334.404 194.509 337.551 204.704 337.551 218.083 L 337.551 281.915 C 337.551 294.53 334.292 304.179 327.774 310.862 C 321.269 317.559 311.943 320.907 299.796 320.907 Z M 299.796 294.9 C 301.9 294.9 303.61 293.946 304.929 292.038 C 306.261 290.116 306.927 287.839 306.927 285.205 L 306.927 215.455 C 306.927 211.393 306.457 208.297 305.517 206.17 C 304.576 204.028 302.67 202.958 299.796 202.958 C 296.924 202.958 295.049 204.028 294.173 206.17 C 293.285 208.297 292.84 211.393 292.84 215.455 L 292.84 285.205 C 292.84 287.839 293.475 290.116 294.741 292.038 C 296.022 293.946 297.707 294.9 299.796 294.9 Z" style="white-space: pre; stroke-width: 10; stroke-linejoin: round; stroke-linecap: round; stroke: rgb(255, 255, 255); fill: rgba(255, 255, 255, 0);" transform="matrix(0.9999999999999999, 0, 0, 0.9999999999999999, -1.4210854715202004e-14, 0)"/>
</svg>