<?xml version="1.0" encoding="utf-8"?>
<svg viewBox="0 0 500 504.30999755859375" width="500" height="504.30999755859375" xmlns="http://www.w3.org/2000/svg">
  <path d="M 0 0 L 500 0 L 500 504.31 L 0 504.31 Z M 399.976 252.155 L 399.995 252.155 C 400.005 251.443 400.01 250.731 400.01 250.018 C 400.018 134.618 275.024 62.485 175.021 120.178 C 128.609 146.954 100.016 196.441 100.012 249.998 C 100.007 334.3 166.71 395.513 241.647 399.89 L 241.647 421.229 L 300 387.539 L 241.647 353.848 L 241.647 374.967 C 223.445 373.746 205.003 368.413 187.482 358.296 C 148.794 335.957 124.963 294.674 124.966 250 C 124.973 153.74 229.181 93.585 312.541 141.72 C 351.229 164.06 375.059 205.342 375.056 250.016 C 375.056 250.731 375.05 251.444 375.039 252.155 L 375.09 252.155 C 375.075 252.404 375.067 252.655 375.067 252.908 C 375.066 259.752 380.647 265.3 387.532 265.301 C 394.416 265.301 399.998 259.754 399.999 252.91 C 399.999 252.656 399.991 252.405 399.976 252.155 Z M 222.162 320.166 L 222.162 178.701 L 199.317 178.701 C 197.215 183.632 193.767 187.636 188.973 190.712 C 184.166 193.774 179.333 195.695 174.474 196.474 L 174.474 218.997 C 177.57 218.997 180.802 218.283 184.172 216.856 C 187.529 215.441 190.148 213.58 192.029 211.269 L 192.029 320.166 Z M 314.382 311.445 C 320.901 304.762 324.159 295.112 324.159 282.498 L 324.159 218.666 C 324.159 205.287 321.01 195.092 314.715 188.084 C 308.42 181.062 298.983 177.552 286.404 177.552 C 273.93 177.552 264.553 181.062 258.269 188.084 C 251.974 195.092 248.826 205.287 248.826 218.666 L 248.826 282.498 C 248.826 294.996 252.084 304.618 258.602 311.367 C 265.107 318.116 274.374 321.49 286.404 321.49 C 298.552 321.49 307.878 318.142 314.382 311.445 Z M 281.349 292.621 C 280.082 290.699 279.449 288.422 279.449 285.788 L 279.449 216.038 C 279.449 211.975 279.894 208.88 280.781 206.753 C 281.657 204.611 283.53 203.541 286.404 203.541 C 289.278 203.541 291.185 204.611 292.125 206.753 C 293.066 208.88 293.536 211.975 293.536 216.038 L 293.536 285.788 C 293.536 288.422 292.87 290.699 291.537 292.621 C 290.219 294.528 288.507 295.482 286.404 295.482 C 284.314 295.482 282.629 294.528 281.349 292.621 Z" transform="matrix(0.9999999999999999, 0, 0, 0.9999999999999999, -1.4210854715202004e-14, 3.552713678800501e-15)"/>
</svg>