<?xml version="1.0" encoding="utf-8"?>
<svg viewBox="0 0 500 504.30999755859375" width="500" height="504.30999755859375" xmlns="http://www.w3.org/2000/svg">
  <path d="M 0 0 L 500 0 L 500 504.31 L 0 504.31 Z M 229.942 308.462 C 235.677 300.299 238.543 288.703 238.543 273.675 C 238.543 263.916 237.714 256.018 236.055 249.984 C 234.395 243.949 231.445 239.399 227.199 236.337 C 222.953 233.262 216.966 231.724 209.233 231.724 C 205.485 231.724 202.232 232.463 199.476 233.943 C 196.707 235.422 194.662 237.48 193.343 240.114 L 193.343 211.653 C 193.343 208.253 193.976 205.735 195.244 204.1 C 196.511 202.451 198.692 201.628 201.788 201.628 C 204.883 201.628 206.842 202.946 207.665 205.58 C 208.488 208.202 208.9 211.926 208.9 216.754 L 208.9 219.713 L 236.388 219.713 L 236.388 204.412 C 236.388 198.494 234.84 193.452 231.745 189.286 C 228.663 185.12 224.529 181.992 219.342 179.903 C 214.156 177.826 208.469 176.788 202.277 176.788 C 191.018 176.788 182.573 179.008 176.944 183.446 C 171.327 187.884 167.604 194.303 165.777 202.699 C 163.96 211.083 163.053 222.568 163.053 237.155 L 163.053 275.31 C 163.053 285.847 164.209 294.407 166.521 300.987 C 168.847 307.566 172.824 312.497 178.453 315.781 C 184.082 319.077 191.75 320.726 201.455 320.726 C 214.699 320.726 224.196 316.638 229.942 308.462 Z M 193.343 284.206 L 193.343 266.764 C 193.343 260.081 195.826 256.739 200.788 256.739 C 205.203 256.739 207.411 260.574 207.411 268.243 L 207.411 279.593 C 207.411 284.965 206.999 288.834 206.176 291.195 C 205.353 293.544 203.447 294.718 200.455 294.718 C 195.714 294.718 193.343 291.214 193.343 284.206 Z M 327.615 310.681 C 334.133 303.998 337.391 294.348 337.391 281.734 L 337.391 217.902 C 337.391 204.523 334.245 194.328 327.948 187.32 C 321.653 180.298 312.215 176.788 299.637 176.788 C 287.164 176.788 277.785 180.298 271.502 187.32 C 265.207 194.328 262.058 204.523 262.058 217.902 L 262.058 281.734 C 262.058 294.232 265.318 303.854 271.835 310.603 C 278.34 317.352 287.607 320.726 299.637 320.726 C 311.784 320.726 321.11 317.378 327.615 310.681 Z M 294.582 291.857 C 293.316 289.935 292.681 287.658 292.681 285.024 L 292.681 215.274 C 292.681 211.212 293.126 208.116 294.014 205.989 C 294.889 203.847 296.764 202.777 299.637 202.777 C 302.511 202.777 304.417 203.847 305.358 205.989 C 306.298 208.116 306.768 211.212 306.768 215.274 L 306.768 285.024 C 306.768 287.658 306.102 289.935 304.77 291.857 C 303.451 293.764 301.741 294.718 299.637 294.718 C 297.548 294.718 295.863 293.764 294.582 291.857 Z M 100.011 253.035 C 100.012 259.879 105.594 265.426 112.478 265.426 C 119.363 265.424 124.944 259.877 124.943 253.033 C 124.943 252.78 124.935 252.529 124.92 252.28 L 124.971 252.28 C 124.96 251.569 124.954 250.856 124.954 250.141 C 124.951 205.467 148.781 164.185 187.469 141.845 C 270.829 93.71 375.037 153.865 375.044 250.125 C 375.047 294.799 351.216 336.082 312.528 358.421 C 295.007 368.538 276.565 373.871 258.363 375.092 L 258.363 353.973 L 200.01 387.664 L 258.363 421.354 L 258.363 400.015 C 333.3 395.638 400.003 334.424 399.998 250.123 C 399.994 196.566 371.401 147.079 324.989 120.303 C 224.986 62.61 99.992 134.743 100 250.143 C 100 250.856 100.005 251.568 100.015 252.28 L 100.034 252.28 C 100.019 252.53 100.011 252.781 100.011 253.035 Z" transform="matrix(1, 0, 0, 1, -7.105427357601002e-15, 1.4210854715202004e-14)"/>
</svg>