<?xml version="1.0" encoding="utf-8"?>
<svg viewBox="0 0 500 504.30999755859375" width="500" height="504.30999755859375" xmlns="http://www.w3.org/2000/svg">
  <path d="M 0 0 L 500 0 L 500 504.31 L 0 504.31 Z M 222.162 320.166 L 222.162 178.701 L 199.317 178.701 C 197.215 183.632 193.767 187.636 188.973 190.712 C 184.166 193.774 179.333 195.695 174.474 196.474 L 174.474 218.997 C 177.57 218.997 180.802 218.283 184.172 216.856 C 187.529 215.441 190.148 213.58 192.029 211.269 L 192.029 320.166 Z M 314.382 311.445 C 320.901 304.762 324.159 295.112 324.159 282.498 L 324.159 218.666 C 324.159 205.287 321.01 195.092 314.715 188.084 C 308.42 181.062 298.983 177.552 286.404 177.552 C 273.93 177.552 264.553 181.062 258.269 188.084 C 251.974 195.092 248.826 205.287 248.826 218.666 L 248.826 282.498 C 248.826 294.996 252.084 304.618 258.602 311.367 C 265.107 318.116 274.374 321.49 286.404 321.49 C 298.552 321.49 307.878 318.142 314.382 311.445 Z M 281.349 292.621 C 280.082 290.699 279.449 288.422 279.449 285.788 L 279.449 216.038 C 279.449 211.975 279.894 208.88 280.781 206.753 C 281.657 204.611 283.53 203.541 286.404 203.541 C 289.278 203.541 291.185 204.611 292.125 206.753 C 293.066 208.88 293.536 211.975 293.536 216.038 L 293.536 285.788 C 293.536 288.422 292.87 290.699 291.537 292.621 C 290.219 294.528 288.507 295.482 286.404 295.482 C 284.314 295.482 282.629 294.528 281.349 292.621 Z M 100.013 253.035 C 100.014 259.879 105.596 265.426 112.48 265.426 C 119.365 265.424 124.946 259.877 124.945 253.033 C 124.945 252.78 124.937 252.529 124.922 252.28 L 124.973 252.28 C 124.962 251.569 124.956 250.856 124.956 250.141 C 124.953 205.467 148.783 164.185 187.471 141.845 C 270.831 93.71 375.039 153.865 375.046 250.125 C 375.049 294.799 351.218 336.082 312.53 358.421 C 295.009 368.538 276.567 373.871 258.365 375.092 L 258.365 353.973 L 200.012 387.664 L 258.365 421.354 L 258.365 400.015 C 333.302 395.638 400.005 334.424 400 250.123 C 399.996 196.566 371.403 147.079 324.991 120.303 C 224.988 62.61 99.994 134.743 100.002 250.143 C 100.002 250.856 100.007 251.568 100.017 252.28 L 100.036 252.28 C 100.021 252.53 100.013 252.781 100.013 253.035 Z" transform="matrix(1, 0, 0, 1, 0, 0)"/>
  <path d="M 192.33 319.583 L 192.33 210.686 C 190.449 212.997 187.83 214.858 184.473 216.273 C 181.103 217.7 177.871 218.414 174.775 218.414 L 174.775 195.891 C 179.634 195.112 184.467 193.191 189.274 190.129 C 194.068 187.053 197.516 183.049 199.618 178.118 L 222.463 178.118 L 222.463 319.583 L 192.33 319.583 Z M 286.705 320.907 C 274.675 320.907 265.408 317.533 258.903 310.784 C 252.385 304.035 249.127 294.413 249.127 281.915 L 249.127 218.083 C 249.127 204.704 252.275 194.509 258.57 187.501 C 264.854 180.479 274.231 176.969 286.705 176.969 C 299.284 176.969 308.721 180.479 315.016 187.501 C 321.311 194.509 324.46 204.704 324.46 218.083 L 324.46 281.915 C 324.46 294.529 321.202 304.179 314.683 310.862 C 308.179 317.559 298.853 320.907 286.705 320.907 Z M 286.705 294.899 C 288.808 294.899 290.52 293.945 291.838 292.038 C 293.171 290.116 293.837 287.839 293.837 285.205 L 293.837 215.455 C 293.837 211.392 293.367 208.297 292.426 206.17 C 291.486 204.028 289.579 202.958 286.705 202.958 C 283.831 202.958 281.958 204.028 281.082 206.17 C 280.195 208.297 279.75 211.392 279.75 215.455 L 279.75 285.205 C 279.75 287.839 280.383 290.116 281.65 292.038 C 282.93 293.945 284.615 294.899 286.705 294.899 Z" style="white-space: pre; stroke: rgb(255, 255, 255); stroke-width: 10; fill: rgba(255, 255, 255, 0);" transform="matrix(1.0000000298023224, 0, 0, 1.0000000298023224, -2.1316282072803006e-14, 0)"/>
  <path d="M 399.989 268.319 C 399.988 261.475 394.406 255.928 387.522 255.928 C 380.637 255.93 375.056 261.477 375.057 268.321 C 375.057 268.574 375.065 268.825 375.08 269.074 L 375.029 269.074 C 375.04 269.785 375.046 270.498 375.046 271.213 C 375.049 315.887 351.219 357.169 312.531 379.509 C 229.171 427.644 124.963 367.489 124.956 271.229 C 124.953 226.555 148.784 185.272 187.472 162.933 C 204.993 152.816 223.435 147.483 241.637 146.262 L 241.637 167.381 L 299.99 133.69 L 241.637 100 L 241.637 121.339 C 166.7 125.716 99.997 186.93 100.002 271.231 C 100.006 324.788 128.599 374.275 175.011 401.051 C 275.014 458.744 400.008 386.611 400 271.211 C 400 270.498 399.995 269.786 399.985 269.074 L 399.966 269.074 C 399.981 268.824 399.989 268.573 399.989 268.319 Z" style="stroke-linecap: round; stroke-linejoin: round; fill: rgba(255, 255, 255, 0); stroke: rgb(255, 255, 255); stroke-width: 10;" transform="matrix(-1.0000000298023224, 0, 0, -1.0000000298023224, 500.0019680262194, 521.3535311625457)"/>
</svg>