<?xml version="1.0" encoding="utf-8"?>
<svg viewBox="0 0 500 504.30999755859375" width="500" height="504.30999755859375" xmlns="http://www.w3.org/2000/svg">
  <path d="M 0 0 L 500 0 L 500 504.31 L 0 504.31 Z M 222.162 320.166 L 222.162 178.701 L 199.317 178.701 C 197.215 183.632 193.767 187.636 188.973 190.712 C 184.166 193.774 179.333 195.695 174.474 196.474 L 174.474 218.997 C 177.57 218.997 180.802 218.283 184.172 216.856 C 187.529 215.441 190.148 213.58 192.029 211.269 L 192.029 320.166 Z M 314.382 311.445 C 320.901 304.762 324.159 295.112 324.159 282.498 L 324.159 218.666 C 324.159 205.287 321.01 195.092 314.715 188.084 C 308.42 181.062 298.983 177.552 286.404 177.552 C 273.93 177.552 264.553 181.062 258.269 188.084 C 251.974 195.092 248.826 205.287 248.826 218.666 L 248.826 282.498 C 248.826 294.996 252.084 304.618 258.602 311.367 C 265.107 318.116 274.374 321.49 286.404 321.49 C 298.552 321.49 307.878 318.142 314.382 311.445 Z M 281.349 292.621 C 280.082 290.699 279.449 288.422 279.449 285.788 L 279.449 216.038 C 279.449 211.975 279.894 208.88 280.781 206.753 C 281.657 204.611 283.53 203.541 286.404 203.541 C 289.278 203.541 291.185 204.611 292.125 206.753 C 293.066 208.88 293.536 211.975 293.536 216.038 L 293.536 285.788 C 293.536 288.422 292.87 290.699 291.537 292.621 C 290.219 294.528 288.507 295.482 286.404 295.482 C 284.314 295.482 282.629 294.528 281.349 292.621 Z M 100.013 253.035 C 100.014 259.879 105.596 265.426 112.48 265.426 C 119.365 265.424 124.946 259.877 124.945 253.033 C 124.945 252.78 124.937 252.529 124.922 252.28 L 124.973 252.28 C 124.962 251.569 124.956 250.856 124.956 250.141 C 124.953 205.467 148.783 164.185 187.471 141.845 C 270.831 93.71 375.039 153.865 375.046 250.125 C 375.049 294.799 351.218 336.082 312.53 358.421 C 295.009 368.538 276.567 373.871 258.365 375.092 L 258.365 353.973 L 200.012 387.664 L 258.365 421.354 L 258.365 400.015 C 333.302 395.638 400.005 334.424 400 250.123 C 399.996 196.566 371.403 147.079 324.991 120.303 C 224.988 62.61 99.994 134.743 100.002 250.143 C 100.002 250.856 100.007 251.568 100.017 252.28 L 100.036 252.28 C 100.021 252.53 100.013 252.781 100.013 253.035 Z" transform="matrix(1, 0, 0, 1, 0, 0)"/>
</svg>