<?xml version="1.0" encoding="utf-8"?>
<svg viewBox="0 0 500 504.30999755859375" width="500" height="504.30999755859375" xmlns="http://www.w3.org/2000/svg">
  <path d="M 0 0 L 500 0 L 500 504.31 L 0 504.31 Z M 100 150.902 L 100 348.276 L 100.021 348.276 C 100.002 348.847 99.992 349.421 99.992 349.997 C 99.99 377.609 122.375 399.996 149.99 399.998 C 177.605 400 199.994 377.617 199.996 350.005 C 199.996 349.426 199.986 348.85 199.967 348.276 L 200 348.276 L 200 148.276 L 199.967 148.276 C 199.059 121.463 177.035 100.004 149.998 100.002 C 122.958 100 100.929 121.46 100.021 148.276 L 100 148.276 L 100 149.095 C 99.995 149.395 99.992 149.694 99.992 149.995 C 99.992 150.298 99.995 150.6 100 150.902 Z M 400 349.098 L 400 150.308 L 399.995 150.308 C 399.996 150.206 399.996 150.105 399.996 150.003 C 399.998 122.39 377.613 100.004 349.998 100.002 C 322.383 100 299.994 122.383 299.992 149.995 C 299.992 150.298 299.995 150.6 300 150.902 L 300 350.308 L 300.005 350.308 C 300.17 377.777 322.491 399.996 350.002 399.998 C 377.617 400 400.006 377.617 400.008 350.005 C 400.008 349.702 400.005 349.4 400 349.098 Z" transform="matrix(1, 0, 0, 1, 0, 1.4210854715202004e-14)"/>
  <path d="M 99.984 149.997 C 99.984 149.696 99.987 149.397 99.992 149.097 L 99.992 148.278 L 100.013 148.278 C 100.921 121.462 122.95 100.002 149.99 100.004 C 177.027 100.006 199.051 121.465 199.959 148.278 L 199.992 148.278 L 199.992 348.278 L 199.959 348.278 C 199.978 348.852 199.988 349.428 199.988 350.007 C 199.986 377.619 177.597 400.002 149.982 400 C 122.367 399.998 99.982 377.611 99.984 349.999 C 99.984 349.423 99.994 348.849 100.013 348.278 L 99.992 348.278 L 99.992 150.904 C 99.987 150.602 99.984 150.3 99.984 149.997 Z M 400 350.007 C 399.998 377.619 377.609 400.002 349.994 400 C 322.483 399.998 300.162 377.779 299.997 350.31 L 299.992 350.31 L 299.992 150.904 C 299.987 150.602 299.984 150.3 299.984 149.997 C 299.986 122.385 322.375 100.002 349.99 100.004 C 377.605 100.006 399.99 122.392 399.988 150.005 C 399.988 150.107 399.988 150.208 399.987 150.31 L 399.992 150.31 L 399.992 349.1 C 399.997 349.402 400 349.704 400 350.007 Z" style="stroke-width: 10; stroke: rgb(255, 255, 255); fill: rgba(255, 255, 255, 0);" transform="matrix(1, 0, 0, 1, 0, 1.4210854715202004e-14)"/>
</svg>