<?xml version="1.0" encoding="utf-8"?>
<svg viewBox="0 0 500 504.30999755859375" width="500" height="504.30999755859375" xmlns="http://www.w3.org/2000/svg">
  <path d="M 0 0 L 500 0 L 500 504.31 L 0 504.31 Z M 100 150.902 L 100 348.276 L 100.021 348.276 C 100.002 348.847 99.992 349.421 99.992 349.997 C 99.99 377.609 122.375 399.996 149.99 399.998 C 177.605 400 199.994 377.617 199.996 350.005 C 199.996 349.426 199.986 348.85 199.967 348.276 L 200 348.276 L 200 148.276 L 199.967 148.276 C 199.059 121.463 177.035 100.004 149.998 100.002 C 122.958 100 100.929 121.46 100.021 148.276 L 100 148.276 L 100 149.095 C 99.995 149.395 99.992 149.694 99.992 149.995 C 99.992 150.298 99.995 150.6 100 150.902 Z M 400 349.098 L 400 150.308 L 399.995 150.308 C 399.996 150.206 399.996 150.105 399.996 150.003 C 399.998 122.39 377.613 100.004 349.998 100.002 C 322.383 100 299.994 122.383 299.992 149.995 C 299.992 150.298 299.995 150.6 300 150.902 L 300 350.308 L 300.005 350.308 C 300.17 377.777 322.491 399.996 350.002 399.998 C 377.617 400 400.006 377.617 400.008 350.005 C 400.008 349.702 400.005 349.4 400 349.098 Z" transform="matrix(1, 0, 0, 1, 0, 1.4210854715202004e-14)"/>
</svg>