<?xml version="1.0" encoding="utf-8"?>
<svg viewBox="0 0 500 500" xmlns="http://www.w3.org/2000/svg">
  <path d="M 0 0 L 500 0 L 500 500 L 0 500 Z M 350 200 C 349.34 200 348.684 200.013 348.03 200.038 L 348.03 200 L 300 200 L 300 145.259 L 299.778 145.259 C 297.39 119.869 276.015 100 250 100 C 223.985 100 202.61 119.868 200.222 145.259 L 200 145.259 L 200 200 L 148.523 200 L 148.523 200.021 C 121.592 200.802 100 222.879 100 249.999 C 100 277.12 121.591 299.196 148.523 299.979 L 148.523 300 L 200 300 L 200 345.259 L 200.222 345.259 C 200.075 346.82 200 348.401 200 350 C 200 377.614 222.385 400 250 400 C 277.614 400 300 377.615 300 350 C 300 348.401 299.925 346.82 299.778 345.259 L 300 345.259 L 300 300 L 348.03 300 L 348.03 299.962 C 348.684 299.987 349.34 300 350 300 C 377.614 300 400 277.615 400 250 C 400 222.386 377.614 200 350 200 Z"/>
</svg>