<?xml version="1.0" encoding="utf-8"?>
<svg viewBox="0 0 500 500" width="500" height="500" xmlns="http://www.w3.org/2000/svg">
  <path d="M 0 0 L 500 0 L 500 500 L 0 500 Z M 152.846 200 L 100 200 L 100 300 L 152.846 300 L 254.495 400 L 254.495 100.001 Z M 323.186 306.011 C 320.993 302.407 317.028 300 312.5 300 C 305.596 300 300 305.597 300 312.501 C 300 317.028 302.407 320.993 306.011 323.186 L 305.806 323.391 L 376.516 394.101 L 376.744 393.873 C 378.922 397.541 382.924 400 387.5 400 C 394.404 400 400 394.403 400 387.499 C 400 382.924 397.541 378.922 393.873 376.744 L 394.194 376.423 L 323.484 305.713 Z M 388.116 262.457 C 394.533 261.929 399.576 256.553 399.576 250 C 399.576 243.096 393.98 237.5 387.076 237.5 C 386.522 237.5 385.976 237.536 385.441 237.606 L 314.135 237.606 C 313.6 237.536 313.054 237.5 312.5 237.5 C 305.596 237.5 300 243.097 300 250 C 300 256.904 305.597 262.5 312.501 262.5 C 312.707 262.5 312.912 262.495 313.116 262.485 L 313.116 262.606 L 388.116 262.606 Z M 387.499 100 C 382.838 100 378.773 102.552 376.624 106.334 L 376.505 106.215 L 305.795 176.925 L 305.809 176.939 C 302.317 179.156 300 183.057 300 187.5 C 300 194.404 305.597 200 312.501 200 C 316.943 200 320.843 197.683 323.06 194.191 L 323.472 194.603 L 394.182 123.893 L 393.665 123.376 C 397.448 121.228 400 117.162 400 112.5 C 400 105.596 394.403 100 387.499 100 Z" transform="matrix(1, 0, 0, 1, 0, 1.4210854715202004e-14)"/>
</svg>